<svg width="474" height="457" viewBox="0 0 474 457" fill="none" xmlns="http://www.w3.org/2000/svg">
<path d="M423.058 92.2429C422.684 94.2291 421.722 96.3101 419.912 98.5232C414.555 105.097 405.694 107.496 397.408 109.296C372.892 114.59 347.845 117.736 322.784 117.015C309.37 116.629 295.425 114.963 284.122 107.723C276.008 102.536 269.832 94.8567 264.26 86.9893C261.531 83.1361 258.903 79.1636 257.366 74.71C256.418 72.0029 255.944 69.2038 255.873 66.4032C255.542 54.8306 262.02 43.0697 271.182 35.5499C282.557 26.2033 297.278 22.07 311.668 18.8702C328.213 15.1893 345.16 12.4031 362.063 13.6698C378.967 14.9494 395.957 20.6166 408.466 32.0701C408.682 32.2568 408.883 32.4564 409.084 32.656C414.8 38.0431 419.482 44.8434 420.903 52.5628C422.038 58.7901 420.228 63.3499 418.103 68.9768C415.733 75.217 415.834 73.0168 418.577 78.0434C418.591 78.0563 418.606 78.0836 418.62 78.1095C421.262 82.9637 423.962 87.3627 423.058 92.2429Z" fill="#F6B33F"/>
<path d="M423.058 92.2429C422.684 94.2291 421.722 96.3101 419.912 98.5232C414.555 105.097 405.694 107.496 397.407 109.296C372.892 114.59 347.845 117.736 322.784 117.015C309.37 116.629 295.425 114.963 284.122 107.723C276.008 102.536 269.832 94.8567 264.26 86.9893C261.531 83.1361 258.903 79.1636 257.366 74.71C256.418 72.0029 255.944 69.2038 255.873 66.4032C256.691 68.2171 257.682 69.9233 258.788 71.4571C261.187 74.7632 264.246 77.5235 267.276 80.2437C271.972 84.4832 276.683 88.7099 281.379 92.9494C289.048 99.8431 297.076 106.949 306.986 109.777C312.013 111.216 317.312 111.47 322.54 111.536C345.82 111.816 369.129 108.362 391.347 101.363C400.108 98.6037 409.859 94.0567 412.028 85.1367C412.387 83.6301 412.516 82.0432 413.306 80.7104C414.397 78.8563 416.422 78.0692 418.577 78.0434C418.591 78.0563 418.605 78.0836 418.62 78.1095C421.262 82.9637 423.962 87.3627 423.058 92.2429Z" fill="#DD921C"/>
<path d="M423.058 92.2429C421.377 89.5774 419.898 86.7769 417.729 84.5106C409.012 75.4569 394.262 78.7903 381.71 78.2704C368.828 77.7232 356.649 72.4166 343.996 69.9636C326.863 66.6431 308.709 68.7371 292.782 75.8562C296.602 66.3903 308.121 62.9493 318.26 61.7371C339.86 59.1362 362.02 61.256 382.73 67.8969C390.787 70.4705 400.352 73.4966 407.015 68.3235C410.491 65.6163 412.229 61.2302 413.09 56.9102C415.087 47.0164 411.726 40.456 409.084 32.6561C414.8 38.0432 419.482 44.8435 420.903 52.5629C422.038 58.7901 420.228 63.35 418.103 68.9769C415.719 75.2429 415.834 72.9896 418.62 78.1095C421.262 82.9638 423.962 87.3628 423.058 92.2429Z" fill="#C27819"/>
<path d="M353.303 18.9355C363.419 19.1898 373.804 20.5764 382.655 25.5218C391.492 30.4559 398.553 39.5627 398.709 49.6966C398.752 52.9358 398.013 56.3625 395.825 58.7223C390.839 64.0556 382.115 61.362 375.225 58.9766C353.204 51.3361 328.768 50.8687 306.477 57.6554C300.808 59.3759 295.225 61.5623 289.343 62.1618C280.336 63.0952 268.473 58.5362 269.226 47.6024C269.837 39.0555 280.123 35.8291 286.871 32.722C307.585 23.1621 330.487 18.3629 353.303 18.9355Z" fill="#F1C86E"/>
<path d="M289.922 96.0963C287.97 88.4824 295.113 81.5361 302.27 78.3097C315.198 72.4695 330.658 72.536 343.544 78.4823C349.06 81.0297 354.166 84.6026 360.036 86.1769C366.783 88.0029 373.954 87.0298 380.913 87.7101C383.007 87.9223 385.284 88.3763 386.656 89.9888C388.537 92.1896 387.858 95.7625 385.906 97.9224C383.983 100.07 381.126 101.149 378.382 102.07C360.291 108.136 342.087 109.937 323.19 111.19C312.44 111.896 293.218 108.802 289.922 96.0963Z" fill="#F1C86E"/>
<path d="M340.909 21.2021C336.548 25.6943 331.047 29.1088 325.096 31.0278C330.146 31.388 335.197 31.7481 340.248 32.1083C335.69 34.2946 331.131 36.4809 326.573 38.6813C338.911 37.0141 351.461 36.9354 363.842 38.4421C368.991 39.0823 375.209 40.9618 376.236 46.0675C349.576 49.1472 321.213 43.1609 296.634 53.9475C296.564 49.7747 299.434 45.7087 303.401 44.375C296.437 42.9484 289.15 43.2411 282.312 45.2276C282.523 46.3207 284.338 44.8139 283.55 44.0275C282.776 43.241 281.44 43.6941 280.441 44.1879C278.359 45.2149 276.29 46.2419 274.208 47.2549C273.139 47.7881 271.845 48.2946 270.846 47.6812C266.259 44.8421 295.551 30.5874 298.576 29.4155C312.068 24.2283 326.46 21.4018 340.909 21.2021Z" fill="#FEDB81"/>
<path d="M355.568 83.1578C351.154 84.6115 346.741 86.078 342.328 87.5444C354.863 91.5051 368.229 92.8107 381.3 91.3175C371.853 96.4781 361.25 99.5448 350.506 100.224C353.537 99.8381 356.738 101.344 358.388 103.931C337.097 109.972 313.705 108.264 293.499 99.2121C296.897 98.0108 300.281 96.8109 303.694 95.611C296.883 92.798 290.172 89.7721 283.559 86.532C293.246 82.278 304.244 79.5454 314.776 80.531C326.113 81.5984 344.612 86.7843 355.568 83.1578Z" fill="#FEDB81"/>
<path d="M314.57 416.959C310.903 428.6 305.094 439.999 295.564 447.626C276.888 462.558 247.748 458.466 229.553 442.96C211.357 427.439 202.623 403.252 199.753 379.505C199.616 378.452 199.52 377.412 199.41 376.359C196.787 350.731 200.152 324.505 209.174 300.372C211.014 295.452 215.614 287.479 221.409 281.478C227.067 275.639 233.865 271.666 240.387 274.172C245.043 275.972 247.995 281.451 252.966 281.998C259.709 282.745 263.389 274.466 268.992 270.639C275.089 266.478 283.782 268.079 289.632 272.572C290.03 272.878 290.428 273.198 290.813 273.532C295.976 278.011 299.299 284.331 302.142 290.599C303.007 292.518 303.845 294.438 304.628 296.385C313.389 317.331 318.648 339.706 320.159 362.359C321.381 380.719 320.104 399.413 314.57 416.959Z" fill="#F6B33F"/>
<path d="M290.802 273.533C281.28 272.16 270.77 276.427 265.975 284.893C263.279 289.612 262.304 295.106 261.451 300.466C256.913 328.919 254.38 357.679 253.893 386.493C253.784 393.173 253.662 400.253 250.06 405.88C250.832 370.773 251.604 335.68 252.376 300.573C252.443 297.853 252.389 294.812 250.507 292.852C246.619 288.759 238.465 292.586 234.686 288.4C233.548 287.159 233.101 285.439 232.086 284.106C229.756 281.013 225.245 280.719 221.399 281.479C227.06 275.64 233.86 271.667 240.375 274.173C245.048 275.973 247.987 281.453 252.958 282C259.703 282.747 263.388 274.467 268.995 270.64C275.077 266.479 283.773 268.08 289.624 272.573C290.03 272.879 290.423 273.2 290.802 273.533Z" fill="#C27819"/>
<path d="M314.57 416.959C310.903 428.6 305.094 439.999 295.564 447.626C276.888 462.558 247.748 458.466 229.553 442.96C211.357 427.439 202.623 403.252 199.753 379.505C199.616 378.452 199.52 377.412 199.41 376.359C205.342 386.545 216.411 394.586 222.137 405.345C226.408 413.346 227.767 422.986 233.796 429.746C237.517 433.918 242.653 436.545 247.872 438.479C256.715 441.746 266.397 443.266 275.639 441.426C284.894 439.599 293.628 434.105 298.146 425.839C306.756 410.065 298.283 390.252 302.073 372.692C303.433 366.399 306.344 360.558 308.28 354.425C312.894 339.825 311.714 324.318 308.294 309.625C307.278 305.159 306.015 300.758 304.628 296.385C313.389 317.331 318.648 339.706 320.159 362.359C321.381 380.719 320.104 399.413 314.57 416.959Z" fill="#DD931E"/>
<path d="M208.653 320.96C206.933 332.267 205.88 343.68 205.52 355.12C205.267 363.107 205.867 372.213 212.053 377.253C214.28 379.053 217.04 380.147 219.147 382.08C221.667 384.427 222.987 387.747 224.2 390.96C227.88 400.72 231.88 411.333 240.787 416.747C243.227 406.96 243.24 396.76 243.253 386.68C243.267 365.853 243.28 345.027 243.293 324.213C243.307 317.987 243.267 311.56 240.8 305.84C228.973 278.52 211.213 304.147 208.653 320.96Z" fill="#F1C86E"/>
<path d="M262.117 338.412C261.981 358.932 261.859 379.439 261.736 399.96C261.682 407.546 261.859 415.772 266.558 421.72C269.868 425.88 276.094 428.28 280.67 425.56C284.307 423.413 285.751 418.907 286.419 414.733C288.19 403.519 286.392 391.88 288.939 380.813C290.464 374.159 293.516 367.96 295.981 361.586C300.695 349.4 303.364 336.185 301.798 323.225C300.545 312.96 290.601 282.88 276.162 291.36C261.94 299.706 262.186 324.492 262.117 338.412Z" fill="#F1C86E"/>
<path d="M206.893 358.053C207.067 359.347 207.733 361 209.027 360.813C210.48 353.733 212.627 346.787 215.4 340.107C212.96 357.067 215.747 374.76 223.293 390.147C226.533 383.96 226.147 376.587 225.893 369.6C225.28 353.173 225.84 336.707 227.56 320.36C225.653 322.227 223.733 324.08 221.827 325.947C220.747 326.987 218.893 328 217.987 326.827C217.613 326.347 217.613 325.667 217.64 325.053C217.88 318.12 219.28 309.827 218 303.133C205.493 313.467 204.96 343.493 206.893 358.053Z" fill="#FFDB82"/>
<path d="M271.766 372.746C273.681 366.786 275.597 360.839 277.513 354.892C276.399 369.625 276.372 384.451 277.445 399.198C281.208 383.065 284.293 366.786 286.698 350.399C287.35 363.451 288.002 376.492 288.654 389.545C296.711 365.733 297.648 339.559 291.303 315.251C288.097 321.798 286.888 329.105 285.706 336.291C284.252 326.385 282.812 316.466 281.358 306.558C280.149 298.331 275.244 307.824 274.524 310.865C273.151 316.624 273.763 323.732 273.423 329.638C272.703 342.358 275.624 360.772 271.766 372.746Z" fill="#FEDC81"/>
<path d="M468.77 219.601C468.286 221.093 467.787 222.586 467.259 224.054C459.439 245.813 447.115 265.96 431.299 282.827C418.138 296.88 401.75 309.026 382.75 312.253C373.991 313.733 364.63 313.174 356.722 309.094C342.491 301.72 335.991 284.627 334.861 268.64C333.204 245.04 340.539 221.84 349.944 200.04C350.736 198.227 351.514 196.427 352.336 194.627C359.701 178.279 368.562 161.719 383.249 151.44C388.413 147.827 393.68 145.494 398.962 144.307C410.685 141.694 422.422 144.826 433.177 152.547C440.601 157.893 449.844 157.08 457.444 162.346C462.696 165.987 466.79 171.294 469.416 177.173C470.472 179.547 471.308 182 471.866 184.493C474.492 196.107 472.424 208.201 468.77 219.601Z" fill="#F6B33F"/>
<path d="M469.407 177.175C464.151 174.335 459.481 169.361 453.61 167.855C443.596 165.282 434.05 173.428 428.267 181.975C409.234 210.028 407.536 248.815 382.925 272.108C399.249 243.788 396.292 205.762 418.209 181.508C420.8 178.655 423.728 175.976 425.28 172.442C426.832 168.922 426.496 164.162 423.333 161.975C421.693 160.829 419.512 160.521 418.077 159.148C416.774 157.909 416.32 156.082 415.618 154.456C412.792 147.895 405.838 144.709 398.957 144.308C410.669 141.695 422.425 144.828 433.172 152.549C440.594 157.895 449.833 157.082 457.431 162.348C462.687 165.988 466.786 171.295 469.407 177.175Z" fill="#C27819"/>
<path d="M468.777 219.599C468.294 221.092 467.796 222.587 467.254 224.053C459.438 245.812 447.129 265.959 431.307 282.827C418.134 296.879 401.755 309.026 382.757 312.252C373.99 313.734 364.637 313.173 356.718 309.092C342.492 301.72 335.993 284.626 334.866 268.639C333.197 245.039 340.53 221.84 349.956 200.039C345.77 213.44 343.633 227.48 343.823 241.707C344.072 258 347.761 275.213 359.163 286.84C370.55 298.479 391.29 301.853 403.029 290.572C406.468 287.266 409.015 282.919 413.128 280.479C417.46 277.906 423.052 277.773 426.96 274.586C432.375 270.173 432.331 262.053 434.937 255.56C438.347 247.053 446.353 241.453 453.32 235.493C458.955 230.679 464.137 225.359 468.777 219.599Z" fill="#DD931E"/>
<path d="M392.473 161.334C386.94 162.253 382.153 165.707 378.139 169.613C366.472 180.974 359.778 196.667 356.596 212.627C353.414 228.6 353.472 245.013 353.515 261.293C353.543 266.347 354.203 272.467 358.761 274.64C362.573 276.466 367.303 274.266 369.797 270.841C372.277 267.426 373.094 263.121 373.968 258.987C378.455 238.027 386.467 217.827 397.604 199.519C403.767 189.36 419.333 156.853 392.473 161.334Z" fill="#F1C86E"/>
<path d="M445.217 179.894C439.971 182.628 436.463 187.814 433.745 193.068C427.886 204.428 424.656 217.054 418.095 228.028C411.534 238.96 401.524 248.72 400.281 261.415C399.902 265.175 401.144 269.934 404.87 270.641C406.653 270.988 408.48 270.215 410.043 269.268C421.719 262.242 424.861 246.427 435.017 237.321C438.597 234.107 442.922 231.854 446.751 228.96C456.586 221.587 462.723 209.788 463.848 197.627C464.93 186.121 459.815 172.254 445.217 179.894Z" fill="#F1C86E"/>
<path d="M388.408 205.306C378.775 223.918 369.569 243.692 369.669 264.638C370.396 252.011 371.108 239.386 371.821 226.758C369.298 232.718 366.776 238.666 364.24 244.625C364.924 239.185 365.593 233.745 366.263 228.292C363.385 232.292 360.492 236.292 357.613 240.279C358.867 217.932 372.22 198.332 385.088 180.025C382.679 185.598 380.813 191.425 379.544 197.359C382.736 197.265 384.589 193.839 386.014 190.972C390.503 182.011 397.357 173.346 405.793 167.879C401.305 181.159 394.849 192.771 388.408 205.306Z" fill="#FEDB81"/>
<path d="M406.675 264.533C413.741 256.973 420.82 249.414 427.886 241.853C424.964 246.293 422.027 250.732 419.105 255.174C425.836 248.734 431.738 241.425 436.623 233.479C434.544 238.945 432.479 244.4 430.43 249.853C442.917 234.92 450.768 216.146 452.629 196.76C445.81 202.946 439.894 210.133 435.125 218.013C441.158 207.213 444.662 193.799 443.223 181.413C434.369 188.853 432.596 210.693 428.612 221.413C423.408 235.467 417.07 253.4 406.675 264.533Z" fill="#FEDB81"/>
<path d="M167.525 232.429C170.592 242.308 175.441 251.989 183.436 258.468C199.066 271.148 223.442 267.668 238.67 254.508C253.912 241.322 261.225 220.789 263.622 200.628C263.729 199.736 263.823 198.855 263.917 197.961C266.113 176.202 263.287 153.936 255.747 133.443C254.207 129.268 250.349 122.495 245.501 117.402C240.773 112.442 235.068 109.068 229.617 111.202C225.719 112.735 223.241 117.388 219.089 117.842C213.437 118.481 210.357 111.455 205.669 108.202C200.566 104.669 193.294 106.029 188.392 109.842C188.057 110.109 187.722 110.376 187.414 110.655C183.088 114.469 180.302 119.829 177.932 125.148C177.208 126.776 176.499 128.415 175.842 130.069C168.516 147.842 164.11 166.842 162.851 186.068C161.819 201.655 162.904 217.536 167.525 232.429Z" fill="#F6B33F"/>
<path d="M187.427 110.653C195.387 109.493 204.187 113.12 208.2 120.307C210.453 124.307 211.267 128.973 211.987 133.52C215.787 157.68 217.907 182.094 218.307 206.56C218.4 212.227 218.493 218.24 221.52 223.027C220.88 193.214 220.227 163.427 219.587 133.614C219.52 131.307 219.573 128.72 221.147 127.067C224.4 123.587 231.227 126.84 234.387 123.28C235.333 122.227 235.72 120.76 236.56 119.64C238.52 117.013 242.293 116.76 245.507 117.4C240.773 112.44 235.08 109.067 229.627 111.2C225.72 112.733 223.253 117.387 219.093 117.84C213.44 118.48 210.36 111.453 205.68 108.2C200.573 104.667 193.307 106.027 188.4 109.84C188.067 110.107 187.733 110.373 187.427 110.653Z" fill="#C27819"/>
<path d="M167.529 232.427C170.593 242.308 175.45 251.987 183.438 258.467C199.066 271.147 223.457 267.667 238.684 254.508C253.923 241.321 261.229 220.786 263.624 200.627C263.731 199.735 263.824 198.854 263.918 197.96C258.941 206.613 249.695 213.428 244.892 222.574C241.319 229.36 240.182 237.547 235.138 243.281C232.021 246.828 227.726 249.054 223.35 250.693C215.965 253.467 207.856 254.761 200.123 253.201C192.376 251.654 185.057 246.987 181.284 239.975C174.072 226.575 181.164 209.76 177.979 194.84C176.855 189.507 174.42 184.547 172.801 179.334C168.948 166.947 169.925 153.773 172.788 141.307C173.644 137.508 174.688 133.775 175.852 130.067C168.52 147.841 164.118 166.84 162.847 186.067C161.83 201.653 162.9 217.534 167.529 232.427Z" fill="#DD931E"/>
<path d="M256.176 150.932C257.618 160.532 258.499 170.212 258.793 179.932C259.007 186.705 258.513 194.439 253.333 198.719C251.477 200.251 249.154 201.172 247.392 202.825C245.283 204.798 244.175 207.624 243.16 210.358C240.09 218.638 236.739 227.652 229.29 232.252C227.248 223.944 227.234 215.278 227.221 206.718C227.207 189.039 227.194 171.358 227.181 153.691C227.181 148.398 227.207 142.945 229.277 138.091C239.169 114.892 254.027 136.639 256.176 150.932Z" fill="#F1C86E"/>
<path d="M211.44 165.747C211.546 183.16 211.64 200.574 211.746 218C211.786 224.427 211.653 231.427 207.706 236.467C204.933 240.014 199.733 242.04 195.893 239.734C192.853 237.907 191.64 234.08 191.093 230.534C189.613 221.014 191.107 211.134 188.987 201.747C187.707 196.094 185.16 190.827 183.093 185.414C179.133 175.067 176.907 163.853 178.227 152.84C179.267 144.133 187.586 118.587 199.68 125.787C211.573 132.88 211.36 153.92 211.44 165.747Z" fill="#F1C86E"/>
<path d="M257.63 182.416C257.483 183.509 256.922 184.922 255.841 184.761C254.626 178.749 252.837 172.855 250.514 167.189C252.557 181.589 250.22 196.603 243.918 209.669C241.195 204.416 241.529 198.162 241.742 192.229C242.25 178.282 241.782 164.295 240.34 150.415C241.942 152.003 243.545 153.576 245.133 155.162C246.028 156.043 247.59 156.91 248.351 155.91C248.671 155.496 248.658 154.922 248.645 154.402C248.444 148.509 247.27 141.482 248.338 135.789C258.805 144.562 259.246 170.055 257.63 182.416Z" fill="#FFDB82"/>
<path d="M203.36 194.893C201.76 189.84 200.146 184.787 198.546 179.733C199.48 192.253 199.506 204.827 198.6 217.347C195.453 203.653 192.867 189.827 190.853 175.92C190.307 187 189.773 198.08 189.227 209.147C182.48 188.933 181.693 166.72 187.013 146.08C189.68 151.64 190.707 157.84 191.693 163.947C192.907 155.533 194.12 147.107 195.333 138.693C196.333 131.72 200.453 139.773 201.053 142.347C202.187 147.253 201.68 153.28 201.96 158.293C202.573 169.093 200.133 184.72 203.36 194.893Z" fill="#FEDC81"/>
<path d="M60.0534 192.92C50.2267 189.68 39.5334 188 29.6267 190.733C10.2267 196.08 -1.12003 217.947 0.746633 238C2.6133 258.053 15.08 275.933 30.0934 289.6C30.7467 290.213 31.4134 290.8 32.0934 291.387C48.52 305.827 68.28 316.467 89.3333 322.24C93.6267 323.413 101.373 324.213 108.347 323.227C115.133 322.253 121.187 319.587 122.627 313.907C123.653 309.84 121.293 305.133 123.333 301.467C126.107 296.507 133.613 298.093 138.987 296.16C144.813 294.067 147.947 287.36 147.68 281.147C147.667 280.733 147.64 280.293 147.587 279.88C147.013 274.147 144.267 268.76 141.32 263.733C140.413 262.2 139.493 260.68 138.533 259.187C128.32 242.88 115.413 228.267 100.493 216.067C88.4134 206.16 74.8667 197.813 60.0534 192.92Z" fill="#F6B33F"/>
<path d="M147.587 279.88C143.907 287.04 135.853 292.093 127.667 291.187C123.093 290.693 118.827 288.64 114.707 286.573C92.8399 275.627 71.7332 263.173 51.5999 249.28C46.9333 246.053 41.9866 242.64 36.3333 242.32C60.9733 259.12 85.5866 275.907 110.227 292.707C112.133 294 114.2 295.547 114.64 297.787C115.587 302.453 108.973 306.12 110.027 310.76C110.333 312.147 111.293 313.307 111.72 314.653C112.733 317.773 110.733 320.987 108.347 323.227C115.133 322.253 121.187 319.587 122.627 313.907C123.653 309.84 121.293 305.133 123.333 301.467C126.107 296.507 133.613 298.093 138.987 296.16C144.813 294.067 147.947 287.36 147.68 281.147C147.667 280.733 147.64 280.293 147.587 279.88Z" fill="#C27819"/>
<path d="M60.0534 192.92C50.2267 189.68 39.5334 188 29.6267 190.733C10.2267 196.08 -1.12003 217.947 0.746633 238C2.6133 258.053 15.08 275.933 30.0934 289.6C30.7467 290.213 31.4134 290.8 32.0934 291.387C27.9467 282.32 27.7734 270.813 23.1201 261.6C19.6667 254.747 13.6667 249.067 11.9334 241.627C10.8667 237.04 11.5466 232.24 12.7466 227.733C14.7866 220.093 18.4533 212.747 24.2133 207.373C29.9733 201.973 38.0267 198.72 45.9334 199.733C61.0267 201.653 70.5867 217.187 84.56 223.28C89.5734 225.453 95.0267 226.36 100.2 228.067C112.533 232.133 122.68 240.587 131.16 250.16C133.747 253.053 136.187 256.08 138.533 259.187C128.32 242.88 115.413 228.267 100.493 216.067C88.4134 206.16 74.8667 197.813 60.0534 192.92Z" fill="#DD931E"/>
<path d="M74.8666 312.427C66.2133 308.014 57.8132 303.094 49.7466 297.694C44.1066 293.934 38.0933 289.027 37.6266 282.32C37.4666 279.92 38.0533 277.507 37.7333 275.12C37.36 272.24 35.6933 269.707 34.0666 267.294C29.12 259.974 23.7333 252.014 24.32 243.28C32.2667 246.44 39.32 251.467 46.2933 256.427C60.6933 266.694 75.08 276.96 89.4666 287.227C93.7733 290.294 98.1999 293.494 100.947 297.987C114.08 319.52 87.7333 318.974 74.8666 312.427Z" fill="#F1C86E"/>
<path d="M88.8132 267.4C74.5732 257.373 60.3465 247.333 46.1065 237.293C40.8399 233.587 35.2399 229.413 33.4266 223.267C32.1466 218.96 33.5199 213.533 37.6266 211.76C40.8799 210.347 44.7065 211.587 47.9065 213.187C56.5199 217.52 63.6799 224.48 72.5599 228.213C77.9066 230.453 83.6665 231.44 89.2799 232.907C99.9865 235.707 110.413 240.413 118.613 247.88C125.093 253.787 141.04 275.4 128.16 281.053C115.467 286.613 98.4665 274.213 88.8132 267.4Z" fill="#F1C86E"/>
<path d="M48.3866 295.32C47.5733 294.56 46.76 293.28 47.52 292.507C53.12 295 58.96 296.973 64.92 298.373C52.0133 291.667 41.1466 281.04 34.1866 268.307C40.04 269.16 44.9466 273.053 49.6399 276.68C60.6932 285.2 72.3465 292.947 84.4799 299.84C82.2665 300.227 80.04 300.613 77.8266 300.987C76.5866 301.213 74.9866 301.973 75.36 303.173C75.5066 303.667 75.9733 304 76.3999 304.28C81.3199 307.547 87.7199 310.68 91.7333 314.853C78.5066 318.28 57.5066 303.813 48.3866 295.32Z" fill="#FFDB82"/>
<path d="M69.7867 243.893C74.8267 245.52 79.8667 247.16 84.92 248.787C74.1867 242.28 63.9332 234.973 54.2799 226.973C67.2399 232.373 80 238.293 92.4933 244.747C83.7866 237.867 75.0933 230.987 66.4 224.107C86.76 230.36 105.293 242.64 119.013 258.96C112.933 257.907 107.293 255.133 101.747 252.387C107.893 258.267 114.04 264.147 120.173 270.027C125.267 274.893 116.32 273.56 113.88 272.547C109.227 270.627 104.627 266.72 100.373 264.027C91.2399 258.253 79.9333 247.173 69.7867 243.893Z" fill="#FEDC81"/>
<path d="M38.4668 64.8667C38.8668 66.1334 39.2934 67.4 39.7467 68.6534C46.28 87.12 56.5868 104.227 69.8268 118.547C80.8535 130.48 94.5601 140.787 110.467 143.533C117.8 144.787 125.627 144.307 132.253 140.853C144.16 134.587 149.6 120.08 150.547 106.507C151.933 86.4667 145.8 66.7734 137.92 48.2667C137.267 46.7201 136.6 45.2001 135.92 43.6667C129.747 29.7867 122.347 15.7334 110.04 7.00006C105.72 3.93339 101.32 1.94674 96.8935 0.946737C87.0935 -1.27993 77.2534 1.38673 68.2668 7.9334C62.0534 12.4801 54.3201 11.7867 47.9601 16.2534C43.5601 19.3467 40.1334 23.8534 37.9334 28.8534C37.0401 30.8667 36.3467 32.9467 35.88 35.0667C33.68 44.9201 35.4134 55.1867 38.4668 64.8667Z" fill="#F6B33F"/>
<path d="M37.9332 28.8534C42.3332 26.4401 46.2399 22.2134 51.1599 20.9334C59.5333 18.7468 67.5332 25.6667 72.3732 32.9201C88.2932 56.7334 89.7065 89.6667 110.307 109.44C96.6532 85.4001 99.1333 53.1201 80.7866 32.5201C78.6133 30.1067 76.1599 27.8268 74.8533 24.8268C73.5599 21.8401 73.8399 17.8001 76.4933 15.9468C77.8666 14.9734 79.6933 14.7068 80.8933 13.5468C81.9733 12.4934 82.3598 10.9334 82.9465 9.56011C85.3198 3.98678 91.1333 1.2801 96.8933 0.946764C87.0933 -1.2799 77.2532 1.38675 68.2666 7.93342C62.0532 12.4801 54.3199 11.7867 47.9599 16.2534C43.5599 19.3467 40.1332 23.8534 37.9332 28.8534Z" fill="#C27819"/>
<path d="M38.4666 64.8667C38.8666 66.1334 39.2932 67.4 39.7465 68.6534C46.2798 87.12 56.5866 104.227 69.8266 118.547C80.8532 130.48 94.5599 140.787 110.467 143.533C117.8 144.787 125.627 144.307 132.253 140.853C144.16 134.587 149.6 120.08 150.546 106.507C151.933 86.4667 145.8 66.7734 137.92 48.2667C141.427 59.6401 143.213 71.56 143.04 83.64C142.84 97.4667 139.746 112.08 130.213 121.96C120.68 131.84 103.32 134.707 93.4932 125.12C90.6132 122.32 88.4799 118.627 85.0533 116.56C81.4266 114.373 76.7332 114.253 73.4666 111.547C68.9332 107.8 68.9733 100.907 66.7866 95.4001C63.9333 88.1734 57.2399 83.4267 51.3999 78.3601C46.6932 74.2801 42.3466 69.7601 38.4666 64.8667Z" fill="#DD931E"/>
<path d="M102.333 15.4001C106.96 16.1735 110.973 19.1068 114.333 22.4268C124.093 32.0801 129.693 45.4001 132.347 58.9468C135.013 72.5068 134.973 86.4401 134.92 100.267C134.907 104.56 134.36 109.747 130.547 111.6C127.36 113.147 123.387 111.28 121.307 108.373C119.227 105.48 118.547 101.813 117.813 98.3068C114.067 80.5201 107.347 63.3735 98.0399 47.8135C92.8799 39.2001 79.8399 11.6001 102.333 15.4001Z" fill="#F1C86E"/>
<path d="M58.1868 31.1602C62.5735 33.4802 65.5067 37.8801 67.7734 42.3468C72.6934 51.9868 75.3867 62.7068 80.88 72.0135C86.3734 81.3068 94.7468 89.5868 95.7868 100.36C96.1068 103.56 95.0668 107.6 91.9601 108.2C90.4535 108.493 88.9335 107.84 87.6268 107.04C77.8401 101.067 75.2135 87.6401 66.7201 79.9068C63.7201 77.1868 60.1067 75.2668 56.88 72.8135C48.6667 66.5601 43.5335 56.5335 42.5868 46.2135C41.6801 36.4401 45.9601 24.6668 58.1868 31.1602Z" fill="#F1C86E"/>
<path d="M105.733 52.7335C113.787 68.5335 121.507 85.3201 121.413 103.12C120.813 92.3868 120.213 81.6668 119.613 70.9468C121.72 76.0001 123.84 81.0668 125.947 86.1201C125.387 81.4935 124.827 76.8801 124.267 72.2535C126.68 75.6401 129.107 79.0402 131.52 82.4268C130.453 63.4535 119.28 46.8135 108.507 31.2668C110.533 36.0135 112.093 40.9468 113.147 45.9868C110.48 45.9068 108.92 43.0001 107.733 40.5734C103.987 32.9601 98.2533 25.6002 91.1866 20.9602C94.9466 32.2402 100.347 42.0935 105.733 52.7335Z" fill="#FEDB81"/>
<path d="M90.4399 103.027C84.5333 96.6002 78.6133 90.1868 72.6933 83.7735C75.1467 87.5335 77.5866 91.3068 80.0399 95.0668C74.4133 89.6002 69.4667 83.4002 65.3867 76.6535C67.12 81.2935 68.84 85.9202 70.56 90.5602C60.1067 77.8669 53.5333 61.9335 51.9733 45.4802C57.6799 50.7335 62.6399 56.8268 66.6399 63.5202C61.5866 54.3602 58.64 42.9602 59.8666 32.4535C67.2533 38.7735 68.7466 57.3068 72.0799 66.4135C76.4399 78.3335 81.7466 93.5735 90.4399 103.027Z" fill="#FEDB81"/>
</svg>
