<svg width="205" height="182" viewBox="0 0 205 182" fill="none" xmlns="http://www.w3.org/2000/svg">
<path d="M152.06 0.230667C151.46 0.422667 150.775 0.56533 150.65 0.69333C125.636 26.4347 125.287 27.536 120.148 37.8693C116.322 45.5653 112.824 57.6333 110.394 64.128C105.852 76.2587 103.77 82.804 103.478 83.956C103.772 85.0493 103.984 86.1387 104.144 87.128C104.604 88.6533 105.012 90.1839 105.326 91.7079L105.342 91.7412C110.076 80.2093 117.027 71.008 121.931 63.5387C138.73 37.9547 148.72 14.6307 149.146 13.6827C151.112 9.29867 152.492 5.29333 153.083 1.044C153.159 0.494664 152.602 0.0573341 152.06 0.230667Z" fill="#327212"/>
<path d="M142.214 11.472C141.422 12.38 127.32 29.1453 122.354 39.648C119.06 46.62 111.606 66.3267 103.413 84.808C103.874 86.216 104.31 87.632 104.692 89.0479C111.808 72.976 118.062 66.7533 128.282 46.9893C130.825 42.0733 137.429 31.4173 143.142 20.9293C145.537 16.0706 148.97 8.20265 150.924 3.17065C148.116 4.70132 145.029 8.23732 142.214 11.472Z" fill="#5D9F0A"/>
<path d="M104.469 88.2412C106.2 80.1745 107.536 73.8105 105.411 77.6652C104.52 79.2825 103.813 81.6305 103.253 84.3172C103.685 85.6199 104.097 86.9292 104.469 88.2412Z" fill="#216700"/>
<path d="M138.354 17.7961C132.987 25.5934 127.808 32.8721 123.371 42.1054C120.387 48.3148 105.446 81.5694 103.656 85.5548L103.699 85.6868C106.41 81.9134 122.858 46.1454 125.375 41.3801C127.412 37.5228 136 22.8774 141.358 15.0841C143.112 12.5321 146.482 7.51877 149.183 4.94944C145.698 7.1801 138.618 17.4121 138.354 17.7961Z" fill="#87B804"/>
<path d="M143.5 13.4692C141.156 17.2159 127.372 39.4666 123.197 48.1186C119.713 55.3386 106.056 83.6572 106.056 83.6572C107.899 82.0226 123.91 50.4959 125.81 46.7639C129.343 39.8279 135.384 30.5586 138.737 23.9466C139.783 21.7066 142.779 16.3212 145.408 11.7812C145.615 11.4239 148.526 6.40655 148.74 6.06389C146.89 8.01322 143.557 13.3759 143.5 13.4692Z" fill="#327212"/>
<path d="M104.696 61.7575C103.745 52.4641 104.189 42.6655 104.708 34.2508C104.777 33.1361 104.851 32.0455 104.929 30.9828C105.059 29.1988 105.212 22.1668 104.045 20.3121C103.367 19.2348 101.823 22.8268 101.367 24.3801C100.66 26.7775 99.9678 29.3428 99.3092 32.0001C97.6012 38.8961 97.2332 46.8375 97.1665 54.2441C97.1038 61.1841 98.3678 72.2068 98.8252 87.1748C99.2132 99.8507 96.5025 106.004 96.0545 111.272C95.7838 114.463 95.3172 118.708 96.1799 124.169C96.4892 126.128 97.1078 128.008 97.9092 129.771C99.3038 132.843 100.467 134.295 102.965 137.896C107.588 134.926 110.055 110.263 109.608 94.6923C109.193 80.2241 106.073 75.2201 104.696 61.7575Z" fill="#327212"/>
<path d="M103.405 30.3519C103.569 28.3266 103.487 26.2973 103.347 24.2706C103.275 23.2293 102.867 24.3613 102.72 25.0599C100.907 33.7093 99.4399 43.8733 98.8253 51.5439C97.8319 63.9439 100.225 73.3973 101.196 86.2279C101.472 89.8811 102.161 91.8557 101.209 99.7401C100.107 108.869 96.3799 113.337 97.6173 126.103C98.3639 129.271 99.8599 132.003 101.356 134.783C105.395 128.068 107.865 114.203 108.232 95.8666C108.485 83.2466 104.491 71.4973 103.469 60.9959C102.415 50.1519 102.681 39.2666 103.405 30.3519Z" fill="#5D9F0A"/>
<path d="M106.807 96.3306C106.507 85.4013 102.468 69.1026 101.717 56.6746C101.399 51.4253 102.468 30.088 102.468 30.088C102.468 30.088 100.019 46.2399 99.7053 52.3493C98.844 69.1986 103.089 75.8426 103.089 95.0349C103.089 103.297 100.269 112 99.504 116.361C98.244 123.552 98.504 126.297 98.7213 127.876C98.9826 128.226 99.2253 128.593 99.4226 128.98C99.556 129.243 99.6653 129.516 99.7733 129.79C100.3 129.147 100.797 128.477 101.203 127.724C102.868 124.619 103.947 121.114 104.895 117.641C106.307 112.468 106.321 106.941 106.761 101.772C106.832 99.6317 106.845 97.7349 106.807 96.3306Z" fill="#87B804"/>
<path d="M97.228 123.905C97.228 123.905 97.344 126.607 98.252 129.807C99.388 133.812 102.348 138.612 103.109 138.129C105.641 136.526 97.228 123.905 97.228 123.905Z" fill="#216700"/>
<path d="M19.0932 149.996C21.0679 149.584 23.1266 149.644 25.0839 149.151C32.0879 147.389 35.7692 139.324 42.4386 136.555C46.7332 134.771 52.0386 135.29 55.5746 132.271C56.9492 131.096 57.8946 129.5 59.1759 128.224C63.0426 124.369 69.0719 124.095 74.3092 122.556C83.3252 119.908 91.0199 112.988 100.389 112.284C105.981 111.863 112.128 113.598 117.197 115.903C121.829 118.008 124.955 122.217 129.496 124.429C134.164 126.705 139.719 126.202 144.639 127.864C153.671 130.921 159.445 140.822 168.792 142.704C170.857 143.121 173.009 143.114 175.016 143.756C180.347 145.465 183.377 151.248 188.436 153.647C191.051 154.886 209.952 158.352 203.483 165.427C202.752 166.225 201.605 166.455 200.54 166.641C196.688 167.312 192.327 167.535 188.62 168.784C185.964 169.68 183.961 171.032 181.111 171.557C177.121 172.291 173.031 172.486 168.999 172.88C165.124 173.257 160.78 174.725 156.963 174.725C153.567 175.589 150.248 176.857 146.759 177.184C144.551 177.391 142.329 177.214 140.111 177.037C137.605 176.837 135.103 176.639 132.625 176.991C128.292 177.607 124.272 179.879 119.901 180.092C118.556 180.157 117.216 180.025 115.875 179.893C114.645 179.772 113.417 179.651 112.185 179.681C108.632 179.768 105.233 181.108 101.716 181.629C96.9413 182.336 92.0852 181.519 87.3279 180.701C81.2186 179.653 75.1079 178.605 68.9999 177.557C61.7186 176.308 54.3186 175.691 47.1159 174.44C44.2013 173.933 41.2092 174.116 38.2212 174.3C34.3626 174.536 30.5106 174.772 26.8399 173.524C22.9439 172.2 19.6986 169.146 15.6439 168.434C13.9893 168.144 12.3079 168.267 10.6239 168.388C9.3839 168.479 8.13991 168.568 6.90391 168.493C3.99058 168.315 0.727916 166.691 0.339916 163.796C0.0892497 161.925 1.17059 160.076 2.64259 158.897C4.11592 157.717 5.93857 157.08 7.72257 156.464C12.0772 154.961 14.5359 150.949 19.0932 149.996Z" fill="#614D39"/>
<path d="M132.625 176.991C132.687 176.981 132.748 176.974 132.81 176.965C133.492 176.876 134.176 176.827 134.863 176.808C134.865 176.812 134.868 176.815 134.871 176.819C134.122 176.841 133.371 176.886 132.625 176.991Z" fill="#C4BCB5"/>
<path d="M103.573 157.644C103.121 157.644 102.659 157.621 102.185 157.574C92.9186 156.621 85.3666 149.083 76.5506 148.569C76.6333 148.541 76.7133 148.507 76.7893 148.465C77.2266 148.226 77.4973 147.763 77.6546 147.291C78.4093 145.029 76.5266 142.307 74.144 142.217L74.4266 142.207C74.2773 142.196 74.128 142.189 73.9773 142.189C72.664 142.189 71.3506 142.626 70.304 143.42C69.844 143.769 69.428 144.188 68.9093 144.441C68.0493 144.863 67.0226 144.777 66.1253 145.112C65.228 145.448 64.484 146.617 65.12 147.333C65.3453 147.586 65.6813 147.702 66.004 147.808C67.7626 148.395 69.552 148.986 71.3946 149.126C71.2826 149.156 71.1706 149.188 71.0586 149.222C67.2466 150.377 63.7866 151.407 60.3386 151.407C59.0973 151.407 57.856 151.272 56.6013 150.964C57.492 150.792 58.3106 150.275 58.724 149.462C59.0933 148.733 59.2786 146.774 58.3493 146.384C58.148 146.3 57.9293 146.275 57.7093 146.275C57.5826 146.275 57.4546 146.283 57.3293 146.293C57.1346 146.309 56.9373 146.331 56.7426 146.331C56.5933 146.331 56.4466 146.319 56.3013 146.284L56.1626 146.243C55.656 146.068 55.2573 145.648 54.7746 145.403C54.3493 145.186 53.9253 145.086 53.516 145.086C52.4026 145.086 51.4026 145.819 50.7906 146.863C50.596 147.196 50.48 147.612 50.476 148.005C46.0786 144.748 43.476 140 39.6333 138.123C34.6466 141.572 31.1093 147.54 25.2493 149.108C32.1466 147.262 35.8213 139.303 42.4386 136.555C46.7333 134.771 52.0386 135.29 55.5746 132.271C56.9493 131.096 57.896 129.5 59.176 128.224C59.1866 128.212 59.1986 128.202 59.2106 128.189C59.708 127.698 60.244 127.271 60.8053 126.886C62.4333 126.448 64.224 126.083 65.944 126.083C67.4773 126.083 68.9546 126.374 70.2066 127.157C72.904 128.845 73.1453 132.469 74.5986 134.936C75.916 137.175 77.6546 138.796 79.6866 139.927C79.656 140.047 79.6533 140.172 79.6906 140.302C79.764 140.556 79.9773 140.741 80.18 140.912C81.4906 142.016 82.9866 143.181 84.6693 143.181C84.7733 143.181 84.8786 143.177 84.9853 143.168C85.7799 143.097 86.708 142.632 87.2746 141.956C89.036 141.895 92.3426 141.532 94.0226 141.486C94.8906 142.917 95.9173 144.193 97.1066 145.309L97.3053 145.612C100.412 149.436 104.449 150.588 108.917 151.991C111.065 152.665 112.941 153.495 114.643 154.468C113.676 154.8 112.727 155.188 111.771 155.576C109.221 156.61 106.631 157.644 103.573 157.644ZM93.9586 149.262C93.36 149.262 92.7853 149.424 92.172 149.752C91.0586 150.345 90.4053 151.868 91.0693 152.941C91.4693 153.588 92.4266 154.045 93.2226 154.045C93.296 154.045 93.3693 154.041 93.44 154.033C94.424 153.919 95.104 153.181 96.1 153.181C96.2493 153.181 96.408 153.197 96.5746 153.236C97.0066 153.336 97.3999 153.557 97.8173 153.712C98.0666 153.804 98.336 153.871 98.6 153.871C98.7773 153.871 98.9506 153.841 99.1146 153.768C99.6306 153.538 99.8866 152.941 99.9493 152.379C100.04 151.564 99.8146 150.726 99.3693 150.036C99.1026 149.624 98.712 149.239 98.2226 149.202C98.1973 149.2 98.172 149.198 98.1466 149.198C97.5173 149.198 96.976 149.757 96.3373 149.779C96.3226 149.779 96.308 149.78 96.2933 149.78C96.144 149.78 95.9986 149.75 95.8533 149.708C95.6733 149.655 95.4959 149.583 95.3186 149.519C94.8386 149.348 94.392 149.262 93.9586 149.262ZM64.4386 132.721C63.952 132.721 63.4986 132.859 63.1706 133.207C63.0493 133.335 62.964 133.489 62.8773 133.644C62.8053 133.771 62.7333 133.897 62.64 134.008C62.232 134.483 61.5853 134.528 61.0373 134.736C60.42 134.972 60.044 135.451 59.4453 135.741C58.0573 136.419 56.556 136.896 55.2906 137.804C54.864 138.11 54.4506 138.502 54.3426 139.016C54.1493 139.94 55.1026 140.791 56.0466 140.832C56.0826 140.833 56.1173 140.835 56.1533 140.835C57.056 140.835 57.8906 140.333 58.6253 139.798C59.388 139.243 60.1426 138.616 61.06 138.389C61.3613 138.315 61.672 138.286 61.9866 138.286C62.5666 138.286 63.1626 138.386 63.752 138.486C64.3426 138.586 64.9266 138.686 65.4839 138.686C66.0666 138.686 66.6186 138.577 67.1186 138.244C68.5946 137.257 68.3453 134.786 66.968 133.668C66.396 133.204 65.356 132.721 64.4386 132.721ZM53.54 149.857C53.18 149.684 52.8173 149.496 52.4533 149.29C52.6373 149.296 52.8173 149.322 52.984 149.398C53.2053 149.5 53.3773 149.674 53.54 149.857Z" fill="#4A3928"/>
<path d="M144.627 177.277C143.124 177.277 141.616 177.157 140.111 177.038C138.604 176.917 137.1 176.797 135.6 176.797C137.1 176.797 138.605 176.917 140.111 177.038C141.617 177.157 143.124 177.277 144.627 177.277ZM144.98 177.275C145.539 177.267 146.099 177.243 146.656 177.193C146.097 177.243 145.539 177.267 144.98 177.275ZM168.999 172.88C173.031 172.486 177.121 172.291 181.111 171.557C183.961 171.032 185.964 169.68 188.62 168.784C192.327 167.535 196.688 167.312 200.54 166.641C196.688 167.312 192.327 167.535 188.62 168.785C185.964 169.68 183.961 171.032 181.111 171.557C177.121 172.291 173.031 172.486 168.999 172.88ZM188.357 153.609C188.343 153.603 188.328 153.595 188.313 153.588C188.328 153.596 188.343 153.603 188.357 153.609ZM188.288 153.576C188.276 153.569 188.265 153.564 188.253 153.559C188.264 153.564 188.276 153.569 188.288 153.576ZM188.091 153.477C188.087 153.475 188.084 153.474 188.08 153.471C188.083 153.474 188.087 153.475 188.091 153.477ZM188.027 153.443H188.025C188.025 153.443 188.025 153.443 188.027 153.443Z" fill="#BAB1A8"/>
<path d="M144.627 177.277C143.124 177.277 141.617 177.157 140.111 177.038C138.605 176.917 137.1 176.797 135.6 176.797C135.564 176.797 135.528 176.797 135.492 176.797C135.283 176.798 135.072 176.802 134.863 176.808C131.844 172.997 129.601 168.483 126.28 164.831C122.391 160.555 119.113 157.02 114.643 154.468C116.255 153.912 117.912 153.508 119.72 153.508C120.817 153.508 121.969 153.656 123.2 154.01C129.808 155.91 135.716 159.715 142.783 159.715C142.867 159.715 142.953 159.715 143.039 159.714C143.243 159.71 143.448 159.705 143.653 159.696C144.368 160.125 145.163 160.42 145.988 160.543C146.155 160.568 146.325 160.58 146.5 160.58C147.828 160.58 149.289 159.868 149.341 158.648C150.144 158.377 150.929 158.053 151.689 157.679C151.695 157.676 151.7 157.674 151.704 157.672C151.712 157.668 151.719 157.664 151.727 157.66C151.744 157.652 151.761 157.643 151.779 157.635C155.895 155.573 157.76 154.804 162.457 153.764C163.743 153.48 164.815 153.044 165.848 152.538C166.263 152.748 166.681 152.956 167.115 153.092C167.509 153.217 167.92 153.277 168.332 153.277C169.663 153.277 171 152.655 171.799 151.583C172.173 151.08 172.44 150.464 172.372 149.841C172.364 149.762 172.351 149.684 172.333 149.609C175.239 148.843 177.828 148.969 181.071 148.103L181.361 148.014C183.468 149.993 185.5 152.128 188.025 153.443H188.027C188.044 153.452 188.061 153.462 188.08 153.471C188.084 153.474 188.087 153.475 188.091 153.477C188.105 153.484 188.121 153.492 188.136 153.5C188.143 153.503 188.149 153.507 188.156 153.509C188.168 153.516 188.181 153.522 188.193 153.529C188.203 153.533 188.212 153.539 188.221 153.543C188.232 153.548 188.243 153.553 188.253 153.559C188.265 153.564 188.276 153.569 188.288 153.576C188.296 153.58 188.305 153.584 188.313 153.588C188.328 153.595 188.343 153.603 188.357 153.609C188.363 153.612 188.368 153.615 188.375 153.617C188.395 153.628 188.416 153.637 188.436 153.647C190.673 154.708 204.829 157.396 204.824 162.581C204.823 163.457 204.417 164.404 203.483 165.427C202.752 166.226 201.605 166.455 200.54 166.641C196.688 167.312 192.327 167.535 188.62 168.784C185.964 169.68 183.961 171.032 181.111 171.557C177.121 172.291 173.031 172.486 168.999 172.88C165.124 173.257 160.78 174.726 156.963 174.726C153.593 175.581 150.299 176.839 146.84 177.176C146.813 177.179 146.785 177.181 146.759 177.184C146.724 177.186 146.691 177.189 146.656 177.193C146.099 177.243 145.539 177.267 144.98 177.275C144.863 177.276 144.744 177.277 144.627 177.277ZM146.085 163.661C145.711 163.661 145.337 163.685 144.971 163.728C142.98 163.959 141.744 165.103 143.155 166.735C144.433 168.212 146.591 168.41 148.395 168.479C148.507 168.483 148.619 168.488 148.731 168.488C148.969 168.488 149.208 168.469 149.433 168.395C150.636 167.998 150.772 166.189 149.967 165.214C149.175 164.252 148.061 163.825 146.891 163.702C146.624 163.673 146.355 163.661 146.085 163.661ZM168.068 158.407C167.02 158.417 165.876 158.615 165.187 159.404C164.496 160.191 164.655 161.709 165.661 161.998C166.085 162.121 166.551 162.007 166.975 162.132C167.392 162.256 167.705 162.592 168.076 162.821C168.408 163.028 168.785 163.123 169.167 163.123C170.329 163.123 171.532 162.252 171.652 161.063C171.787 159.722 170.492 158.505 169.188 158.505C168.955 158.505 168.721 158.544 168.496 158.628L168.068 158.407ZM183.413 156.386C182.735 156.386 181.925 156.724 181.715 157.403C181.475 158.171 182.249 159.098 182.867 159.473C183.716 159.988 184.543 160.741 185.539 160.741C185.645 160.741 185.753 160.732 185.864 160.714C186.665 160.581 187.363 160.244 188.171 160.105C188.552 160.04 188.937 159.898 189.196 159.614C189.455 159.327 189.552 158.869 189.343 158.545L189.063 158.252C188.513 157.78 187.964 157.305 187.416 156.832C187.261 156.7 187.105 156.567 186.917 156.491C186.761 156.429 186.596 156.412 186.427 156.412C186.403 156.412 186.379 156.412 186.356 156.412L186.087 156.429C185.76 156.455 185.451 156.465 185.148 156.465C184.62 156.465 184.109 156.433 183.559 156.392C183.511 156.388 183.463 156.386 183.413 156.386Z" fill="#473526"/>
<path d="M92.928 181.567C91.0533 181.339 89.1826 181.02 87.3266 180.701C81.2186 179.653 75.108 178.605 69 177.557C75.108 178.605 81.2186 179.653 87.328 180.701C89.1826 181.02 91.0533 181.339 92.928 181.567ZM112.388 179.677C112.451 179.676 112.512 179.676 112.575 179.676C112.513 179.676 112.451 179.676 112.388 179.677ZM13.3773 168.256C13.3733 168.256 13.3693 168.256 13.3653 168.256H13.3666C13.3693 168.256 13.3733 168.256 13.3773 168.256ZM19.0933 149.996C21.0373 149.588 23.0613 149.641 24.992 149.174C23.0613 149.641 21.0373 149.589 19.0933 149.996Z" fill="#8F8277"/>
<path d="M97.8669 181.898C97.7842 181.898 97.7028 181.897 97.6202 181.897C96.0562 181.886 94.4909 181.757 92.9282 181.567C91.0535 181.339 89.1829 181.02 87.3282 180.701C81.2189 179.653 75.1082 178.605 69.0002 177.557C61.7189 176.308 54.3189 175.691 47.1162 174.44C45.7029 174.195 44.2722 174.11 42.8309 174.11C41.3002 174.11 39.7602 174.205 38.2215 174.3C37.2562 174.359 36.2922 174.417 35.3309 174.453C35.3015 174.455 35.2722 174.456 35.2442 174.456C35.1789 174.459 35.1148 174.462 35.0508 174.463C35.0202 174.464 34.9882 174.465 34.9575 174.467C34.8562 174.469 34.7548 174.472 34.6548 174.475C34.6402 174.475 34.6269 174.475 34.6122 174.476C34.2802 174.484 33.9482 174.488 33.6162 174.488C33.5962 174.488 33.5762 174.488 33.5562 174.488C31.3255 174.484 29.1202 174.276 26.9775 173.571C26.9309 173.555 26.8855 173.54 26.8402 173.524C22.9442 172.2 19.6989 169.146 15.6442 168.434C15.6215 168.431 15.5989 168.427 15.5749 168.422C15.5549 168.42 15.5349 168.416 15.5135 168.414C14.8055 168.297 14.0935 168.256 13.3775 168.256C13.3735 168.256 13.3695 168.256 13.3669 168.256H13.3655C13.3615 168.256 13.3562 168.256 13.3522 168.256C12.6362 168.256 11.9189 168.297 11.1989 168.347C11.0082 168.36 10.8162 168.375 10.6242 168.388C9.71352 168.455 8.80018 168.521 7.88952 168.521C7.88418 168.521 7.8802 168.521 7.87487 168.521C7.8722 168.521 7.86953 168.521 7.86686 168.521C7.57753 168.521 7.28819 168.515 6.99886 168.498C6.96686 168.497 6.9362 168.495 6.9042 168.493C3.99087 168.315 0.728202 166.691 0.340202 163.796C0.338868 163.788 0.338866 163.781 0.337533 163.774C0.314866 163.598 0.304199 163.424 0.304199 163.25C0.304199 163.202 0.305535 163.155 0.306868 163.108C0.356202 161.655 1.1522 160.262 2.24287 159.244C2.3722 159.123 2.50687 159.007 2.64421 158.897C4.11621 157.717 5.93885 157.08 7.72285 156.464C12.0775 154.962 14.5362 150.95 19.0935 149.996C21.0375 149.589 23.0615 149.641 24.9922 149.174C25.0229 149.167 25.0535 149.159 25.0842 149.151C25.0962 149.148 25.1095 149.144 25.1229 149.141C25.1255 149.14 25.1295 149.139 25.1335 149.139C25.1429 149.136 25.1522 149.133 25.1615 149.131C25.1655 149.131 25.1695 149.129 25.1735 149.128C25.1829 149.126 25.1922 149.123 25.2015 149.12C25.2042 149.12 25.2082 149.119 25.2109 149.119C25.2215 149.115 25.2322 149.112 25.2429 149.109C25.2442 149.109 25.2482 149.108 25.2495 149.108C31.1095 147.54 34.6469 141.572 39.6335 138.123C43.4762 140 46.0789 144.748 50.4762 148.005C50.4722 148.52 50.6615 148.996 51.1215 149.2C51.3148 149.286 51.5242 149.307 51.7389 149.307C51.8415 149.307 51.9455 149.303 52.0495 149.297C52.1535 149.293 52.2575 149.288 52.3602 149.288C52.3922 149.288 52.4228 149.288 52.4535 149.29C52.8175 149.496 53.1802 149.684 53.5402 149.857C53.6335 149.963 53.7242 150.072 53.8202 150.174C54.3682 150.753 55.1509 151.027 55.9429 151.027C56.1629 151.027 56.3855 151.005 56.6015 150.964C57.8562 151.272 59.0975 151.407 60.3389 151.407C63.7869 151.407 67.2469 150.377 71.0588 149.222C71.1708 149.188 71.2829 149.156 71.3949 149.126C71.5975 149.14 71.8002 149.15 72.0042 149.153C72.0695 149.155 72.1349 149.156 72.1989 149.156C73.4589 149.156 74.7082 148.932 75.9495 148.71C76.1522 148.676 76.3575 148.638 76.5508 148.569C85.3668 149.083 92.9188 156.621 102.186 157.574C102.659 157.621 103.122 157.644 103.574 157.644C106.631 157.644 109.222 156.61 111.771 155.576C112.727 155.188 113.676 154.8 114.643 154.468C119.114 157.02 122.391 160.555 126.28 164.831C129.602 168.483 131.844 172.997 134.863 176.808C134.176 176.827 133.492 176.876 132.81 176.965C132.748 176.974 132.687 176.981 132.626 176.991C128.292 177.607 124.272 179.879 119.902 180.092C119.879 180.093 119.855 180.095 119.832 180.096C119.614 180.105 119.396 180.109 119.178 180.109C119.175 180.109 119.174 180.109 119.171 180.109C119.154 180.109 119.136 180.109 119.119 180.109C118.059 180.107 117 180.004 115.94 179.898C115.919 179.897 115.896 179.895 115.875 179.893C115.851 179.891 115.828 179.888 115.806 179.886C114.74 179.781 113.674 179.677 112.604 179.676C112.596 179.676 112.588 179.676 112.579 179.676C112.578 179.676 112.576 179.676 112.575 179.676C112.512 179.676 112.451 179.676 112.388 179.677C112.32 179.679 112.254 179.679 112.186 179.681C108.632 179.768 105.234 181.108 101.716 181.629C101.654 181.639 101.59 181.646 101.527 181.656C100.335 181.822 99.1389 181.895 97.9415 181.898C97.9162 181.898 97.8922 181.898 97.8669 181.898ZM88.9908 165.941C88.8695 165.941 88.7482 165.945 88.6282 165.952C87.7882 166.003 86.8682 166.35 86.5455 167.126C85.9842 168.471 87.5242 169.695 88.8269 170.348C89.9295 170.898 91.2669 171.415 92.4602 171.415C93.2682 171.415 94.0095 171.179 94.5669 170.56C95.4629 169.565 95.3295 167.903 94.4588 166.886C93.6868 165.984 92.4722 165.56 91.2775 165.56C91.1255 165.56 90.9735 165.567 90.8228 165.58L91.1455 165.916C90.8722 165.965 90.5962 165.98 90.3188 165.98C90.0988 165.98 89.8762 165.971 89.6548 165.962C89.4335 165.951 89.2122 165.941 88.9908 165.941ZM111.363 165.229C111.786 165.229 112.19 165.303 112.526 165.555C112.816 165.774 113.007 166.1 113.275 166.347C113.584 166.632 113.963 166.757 114.354 166.757C115.466 166.757 116.672 165.744 116.642 164.547C116.6 163.016 115.032 161.859 113.499 161.859C113.411 161.859 113.323 161.862 113.235 161.869L112.574 162.636C112.072 162.432 111.532 162.331 110.991 162.331C110.378 162.331 109.763 162.462 109.207 162.721C108.543 163.029 107.899 163.686 108.074 164.397C108.246 165.095 109.059 165.352 109.808 165.352C109.918 165.352 110.026 165.347 110.13 165.336C110.531 165.296 110.956 165.229 111.363 165.229ZM64.8722 160.539L65.4935 160.844C63.9895 160.967 62.4509 161.096 61.0749 161.714C59.6975 162.331 58.4895 163.54 58.2989 165.036C58.8602 165.519 59.5855 165.707 60.3335 165.707C60.8869 165.707 61.4522 165.604 61.9762 165.441C63.2055 165.059 64.3482 164.4 65.6122 164.147C66.1255 164.045 66.6922 163.992 67.0669 163.628C67.6202 163.091 67.4495 162.109 66.9175 161.552C66.3855 160.996 65.6095 160.756 64.8722 160.539ZM42.7949 159.089C42.5295 159.089 42.2455 159.095 42.0269 159.247C41.5282 159.589 41.7589 160.438 42.2722 160.762C42.7855 161.084 43.4309 161.074 44.0309 161.16C45.0602 161.31 46.0388 161.795 46.7842 162.521C46.8455 162.527 46.9082 162.529 46.9695 162.529C48.1482 162.529 49.2562 161.495 49.2949 160.308C49.3242 159.36 48.7375 158.302 47.8269 158.302C47.6202 158.302 47.3975 158.356 47.1615 158.477C46.8469 158.64 46.5269 158.76 46.2029 158.85C45.4175 159.064 44.6055 159.095 43.7695 159.095C43.4482 159.095 43.1229 159.089 42.7949 159.089ZM24.8229 156.233C24.6562 156.233 24.4922 156.251 24.3322 156.292L24.1122 156.359C23.8135 156.462 23.5295 156.605 23.2295 156.708C22.4282 156.983 20.8349 156.988 20.8389 158.259C20.8402 158.722 21.3028 159.032 21.7202 159.235C23.2748 159.984 24.9789 160.428 26.7029 160.531C26.8002 160.536 26.8989 160.539 26.9989 160.539C27.5375 160.539 28.0989 160.436 28.4095 160.014C28.6602 159.671 28.6682 159.205 28.5935 158.788C28.4402 157.927 27.9455 157.021 27.0868 156.788C26.3948 156.6 25.5855 156.233 24.8229 156.233ZM76.0695 155.475C75.0375 155.475 73.8335 155.877 73.8215 156.867C73.8095 157.76 74.8469 158.284 75.7375 158.363C76.6269 158.439 77.5989 158.31 78.3455 158.798C78.6335 158.988 78.8602 159.253 79.1389 159.455C79.4709 159.692 79.8642 159.8 80.2642 159.8C81.2295 159.8 82.2282 159.168 82.4508 158.208C82.7455 156.948 81.5882 155.605 80.3215 155.605C80.2242 155.605 80.1269 155.614 80.0295 155.629L79.0015 155.953C78.1389 155.709 77.2522 155.553 76.3588 155.486C76.2655 155.479 76.1682 155.475 76.0695 155.475ZM40.6042 148.897C41.1482 148.897 41.6709 148.964 42.0935 149.253C42.3229 149.41 42.5122 149.629 42.7655 149.74C42.8815 149.79 42.9975 149.812 43.1109 149.812C43.8029 149.812 44.4135 148.96 44.4042 148.192C44.3869 146.828 43.0669 145.677 41.7335 145.677C41.5122 145.677 41.2922 145.709 41.0775 145.776L41.9548 146.189C41.2122 145.932 40.4228 145.674 39.6508 145.674C39.3588 145.674 39.0695 145.709 38.7855 145.798C37.7508 146.119 36.9842 147.451 37.6269 148.322C38.0069 148.84 38.6029 148.943 39.2642 148.943C39.4802 148.943 39.7042 148.931 39.9295 148.92C40.1549 148.909 40.3815 148.897 40.6042 148.897Z" fill="#36271A"/>
<path d="M175.135 143.795C175.124 143.792 175.115 143.788 175.104 143.785C175.113 143.788 175.124 143.792 175.135 143.795ZM175.016 143.756C173.009 143.114 170.857 143.121 168.792 142.704C170.857 143.12 173.009 143.114 175.016 143.756Z" fill="white"/>
<path d="M149.343 158.633C149.344 158.568 149.343 158.503 149.337 158.436C149.247 157.414 148.084 156.228 147.048 156.04C146.775 155.996 146.493 156.021 146.22 155.991C145.365 155.897 144.655 155.293 143.824 155.071C143.661 155.027 143.493 154.998 143.325 154.986C143.172 154.86 143.013 154.733 142.845 154.607C139.829 152.322 136.584 151.617 133.968 148.612C132.721 147.18 131.903 145.388 130.773 143.844C131.321 144.08 131.893 144.225 132.487 144.225C132.592 144.225 132.697 144.221 132.803 144.212C133.891 144.117 135.231 143.28 135.548 142.175C135.832 141.186 135.696 139.981 134.736 139.479C134.544 139.379 134.349 139.292 134.153 139.217C133.527 138.98 132.884 138.873 132.239 138.873C130.892 138.873 129.539 139.341 128.328 140.064C127.997 140.261 127.651 140.556 127.528 140.897C123.981 138.72 119.836 138.579 115.6 138.519C108.879 138.424 105.571 137.349 103.679 133.533C104.707 133.151 105.695 132.641 106.769 132.425C107.283 132.324 107.849 132.271 108.225 131.908C108.86 131.291 108.589 130.331 107.916 129.94C107.5 129.698 107.051 129.532 106.584 129.431C106.181 129.343 105.765 129.303 105.347 129.303C104.345 129.303 103.327 129.535 102.439 129.903C102.271 129.202 102.119 128.445 101.977 127.632C101.068 122.403 100.152 117.093 96.6055 112.91C97.7041 112.637 98.8215 112.431 99.9628 112.32C100.105 112.307 100.247 112.295 100.389 112.284C100.415 112.283 100.44 112.28 100.465 112.279C101.007 112.24 101.552 112.221 102.103 112.221C102.103 112.221 102.104 112.221 102.105 112.221C102.112 112.221 102.119 112.221 102.125 112.221C107.231 112.225 112.648 113.835 117.197 115.903C121.829 118.008 124.955 122.217 129.496 124.429C134.164 126.705 139.719 126.202 144.639 127.864C153.671 130.921 159.445 140.822 168.792 142.704C170.857 143.121 173.009 143.114 175.016 143.756C175.036 143.763 175.056 143.769 175.076 143.776C175.085 143.779 175.095 143.783 175.104 143.785C175.115 143.788 175.124 143.792 175.135 143.795C175.147 143.8 175.16 143.804 175.172 143.808C175.179 143.81 175.185 143.812 175.192 143.815C175.207 143.82 175.221 143.825 175.237 143.831C175.241 143.832 175.244 143.833 175.248 143.835C175.265 143.84 175.283 143.847 175.3 143.852C175.301 143.853 175.303 143.853 175.303 143.853C177.636 144.677 179.527 146.286 181.361 148.014L181.071 148.103C177.828 148.969 175.239 148.843 172.333 149.609C171.989 148.14 169.992 147.669 168.415 147.573L168.985 147.864C167.979 147.681 166.948 147.497 165.931 147.497C165.411 147.497 164.895 147.545 164.387 147.665C162.883 148.02 161.453 149.18 161.295 150.717C161.26 151.045 161.297 151.41 161.525 151.647C161.712 151.838 161.953 151.897 162.217 151.897C162.561 151.897 162.944 151.798 163.289 151.765C163.368 151.759 163.447 151.755 163.524 151.755C164.339 151.755 165.088 152.152 165.848 152.537C164.815 153.044 163.743 153.48 162.457 153.764C157.76 154.804 155.895 155.573 151.779 157.635C151.761 157.643 151.744 157.652 151.727 157.66C151.719 157.664 151.712 157.668 151.704 157.672C151.7 157.673 151.695 157.676 151.689 157.679C150.929 158.053 150.145 158.369 149.343 158.633ZM148.928 146.847C147.973 146.847 147.112 147.232 146.644 148.219C146.076 149.421 146.467 149.936 147.513 150.46C148.209 150.807 149.219 150.649 149.981 150.973C150.6 151.237 150.984 151.861 151.697 151.961C151.757 151.969 151.816 151.973 151.873 151.973C153.119 151.973 153.756 150.069 153.024 148.979C152.44 148.109 151.216 147.298 149.968 146.983C149.619 146.895 149.268 146.847 148.928 146.847ZM153.699 138.873C152.591 138.873 151.532 139.229 150.924 140.035C150.681 140.357 150.495 140.721 150.221 141.017C149.557 141.737 148.336 142.185 148.383 143.163C148.437 144.285 149.904 144.732 151.653 144.732C154.077 144.732 157.045 143.873 157.555 142.76C158.376 140.961 156.983 139.595 155.213 139.088C154.724 138.948 154.207 138.873 153.699 138.873ZM138.059 131.152C137.053 131.152 136.028 131.331 135.18 131.56C132.211 132.364 134.272 135.185 136.04 136.071C137.141 136.621 138.48 137.136 139.673 137.136C140.48 137.137 141.221 136.902 141.78 136.281C142.976 134.955 142.289 132.848 140.951 131.907C140.24 131.407 139.324 131.195 138.372 131.157C138.268 131.153 138.163 131.152 138.059 131.152ZM120.052 129.668C119.941 129.668 119.832 129.673 119.723 129.685C119.112 129.748 118.524 129.989 118.045 130.424C117.588 130.84 117.355 131.575 117.696 132.091C117.917 132.427 118.317 132.592 118.7 132.72C119.767 133.12 120.877 133.185 121.999 133.272C122.085 133.279 122.167 133.283 122.244 133.283C124.376 133.283 122.867 130.776 121.772 130.139C121.243 129.829 120.644 129.668 120.052 129.668ZM116.427 122.583C114.991 122.671 113.671 124.121 114.293 125.597C114.709 126.584 115.791 127.125 116.871 127.125C117.277 127.125 117.685 127.048 118.056 126.889C118.668 126.625 119.228 126.141 119.397 125.497C119.809 123.927 118.131 122.685 116.723 122.583H116.427ZM107.237 116.372C107.071 116.372 106.905 116.391 106.745 116.431L106.527 116.496C106.228 116.598 105.944 116.745 105.644 116.847C104.843 117.121 103.248 117.127 103.253 118.398C103.255 118.861 103.717 119.172 104.135 119.373C105.689 120.124 107.393 120.567 109.117 120.669C109.213 120.675 109.312 120.679 109.411 120.679C109.952 120.679 110.513 120.575 110.823 120.152C111.073 119.809 111.083 119.345 111.008 118.925C110.855 118.067 110.359 117.16 109.5 116.926C108.809 116.737 108 116.372 107.237 116.372Z" fill="#725B43"/>
<path d="M94.1307 126.847C92.6841 126.847 91.2281 126.283 89.9494 125.556C88.1881 124.556 87.8654 122.536 89.2534 120.963C90.0614 120.044 91.3454 119.744 92.6334 119.744C92.6454 119.744 92.6574 119.744 92.6681 119.744C93.7161 119.748 94.7654 119.948 95.5641 120.176C96.7121 120.504 97.7987 121.285 98.1721 122.42C98.7681 124.228 97.2427 126.215 95.4001 126.691C94.9814 126.798 94.5561 126.847 94.1307 126.847Z" fill="#402F21"/>
<path d="M116.871 127.125C115.791 127.125 114.709 126.584 114.293 125.597C113.671 124.121 114.991 122.671 116.427 122.583H116.723C118.131 122.685 119.809 123.927 119.397 125.497C119.228 126.141 118.668 126.625 118.056 126.889C117.685 127.048 117.277 127.125 116.871 127.125Z" fill="#4B3827"/>
<path d="M139.673 137.136C138.48 137.136 137.141 136.621 136.04 136.071C134.272 135.185 132.211 132.364 135.18 131.56C136.028 131.331 137.053 131.152 138.059 131.152C138.163 131.152 138.268 131.153 138.372 131.157C139.324 131.195 140.24 131.407 140.951 131.907C142.289 132.848 142.976 134.955 141.78 136.281C141.221 136.902 140.48 137.137 139.673 137.136Z" fill="#4B3827"/>
<path d="M92.4602 171.415C91.2668 171.415 89.9295 170.898 88.8268 170.348C87.5242 169.695 85.9842 168.471 86.5455 167.125C86.8682 166.349 87.7882 166.003 88.6282 165.952C88.7482 165.945 88.8695 165.941 88.9908 165.941C89.2122 165.941 89.4335 165.951 89.6548 165.961C89.8762 165.971 90.0988 165.98 90.3188 165.98C90.5962 165.98 90.8722 165.965 91.1455 165.916L90.8228 165.58C90.9735 165.567 91.1255 165.56 91.2775 165.56C92.4722 165.56 93.6868 165.984 94.4588 166.886C95.3295 167.903 95.4628 169.565 94.5668 170.56C94.0095 171.179 93.2682 171.415 92.4602 171.415Z" fill="#24180F"/>
<path d="M151.653 144.732C149.904 144.732 148.437 144.285 148.383 143.162C148.336 142.185 149.557 141.737 150.221 141.017C150.495 140.721 150.681 140.357 150.924 140.035C151.532 139.229 152.591 138.873 153.699 138.873C154.207 138.873 154.724 138.948 155.213 139.088C156.983 139.595 158.376 140.961 157.555 142.76C157.045 143.873 154.077 144.732 151.653 144.732Z" fill="#4B3827"/>
<path d="M122.244 133.283C122.167 133.283 122.085 133.279 121.999 133.272C120.877 133.185 119.767 133.12 118.7 132.72C118.317 132.592 117.917 132.426 117.696 132.091C117.355 131.574 117.588 130.84 118.045 130.424C118.524 129.989 119.112 129.748 119.723 129.685C119.832 129.673 119.941 129.668 120.052 129.668C120.644 129.668 121.243 129.829 121.772 130.138C122.867 130.776 124.376 133.283 122.244 133.283Z" fill="#4B3827"/>
<path d="M101.491 133.985C100.743 133.985 100.017 133.797 99.4561 133.314C99.6467 131.819 100.855 130.609 102.232 129.992C102.3 129.961 102.369 129.932 102.439 129.903C102.777 131.325 103.179 132.525 103.679 133.533C103.499 133.6 103.316 133.662 103.133 133.72C102.609 133.883 102.044 133.985 101.491 133.985Z" fill="#402F21"/>
<path d="M103.678 133.533C103.178 132.525 102.777 131.325 102.438 129.903C103.326 129.535 104.345 129.303 105.346 129.303C105.765 129.303 106.181 129.343 106.584 129.431C107.05 129.532 107.5 129.698 107.916 129.94C108.589 130.331 108.86 131.291 108.225 131.908C107.849 132.271 107.282 132.324 106.769 132.425C105.694 132.641 104.706 133.15 103.678 133.533Z" fill="#4B3827"/>
<path d="M60.3335 165.707C59.5855 165.707 58.8602 165.519 58.2988 165.036C58.4895 163.54 59.6975 162.331 61.0748 161.714C62.4508 161.096 63.9895 160.967 65.4935 160.844L64.8722 160.539C65.6095 160.756 66.3855 160.996 66.9175 161.552C67.4495 162.109 67.6202 163.091 67.0668 163.628C66.6922 163.992 66.1255 164.045 65.6122 164.147C64.3482 164.4 63.2055 165.059 61.9762 165.441C61.4522 165.604 60.8868 165.707 60.3335 165.707Z" fill="#24180F"/>
<path d="M87.7386 134.639C87.6386 134.639 87.5386 134.635 87.4426 134.629C85.7186 134.528 84.0146 134.084 82.4586 133.333C82.0426 133.133 81.58 132.821 81.5786 132.357C81.5733 131.087 83.1666 131.083 83.9693 130.807C84.268 130.704 84.5519 130.56 84.8506 130.457L85.0706 130.391C85.232 130.351 85.3959 130.332 85.5626 130.332C86.3239 130.332 87.1333 130.699 87.8266 130.887C88.6839 131.121 89.1786 132.027 89.3333 132.887C89.4079 133.304 89.3986 133.769 89.148 134.112C88.8386 134.535 88.2773 134.639 87.7386 134.639Z" fill="#402F21"/>
<path d="M109.411 120.679C109.312 120.679 109.213 120.675 109.117 120.669C107.393 120.567 105.689 120.124 104.135 119.374C103.717 119.172 103.255 118.862 103.253 118.398C103.248 117.127 104.843 117.121 105.644 116.847C105.944 116.745 106.228 116.598 106.527 116.496L106.745 116.431C106.905 116.391 107.071 116.372 107.237 116.372C108 116.372 108.809 116.738 109.5 116.927C110.359 117.16 110.855 118.067 111.008 118.926C111.083 119.345 111.073 119.809 110.823 120.152C110.513 120.575 109.952 120.679 109.411 120.679Z" fill="#4B3827"/>
<path d="M26.9989 160.539C26.8989 160.539 26.8002 160.536 26.7029 160.531C24.9789 160.428 23.2749 159.984 21.7202 159.235C21.3029 159.032 20.8402 158.722 20.8389 158.259C20.8349 156.988 22.4282 156.983 23.2295 156.708C23.5295 156.605 23.8135 156.462 24.1122 156.359L24.3322 156.292C24.4922 156.251 24.6562 156.233 24.8229 156.233C25.5855 156.233 26.3949 156.6 27.0869 156.788C27.9455 157.021 28.4402 157.927 28.5935 158.788C28.6682 159.205 28.6602 159.671 28.4095 160.014C28.0989 160.436 27.5375 160.539 26.9989 160.539Z" fill="#24180F"/>
<path d="M56.1532 140.835C56.1172 140.835 56.0826 140.833 56.0466 140.832C55.1026 140.791 54.1492 139.94 54.3426 139.016C54.4506 138.502 54.8639 138.11 55.2906 137.804C56.5559 136.896 58.0572 136.419 59.4452 135.741C60.0439 135.451 60.4199 134.972 61.0372 134.736C61.5852 134.528 62.2319 134.483 62.6399 134.008C62.7332 133.897 62.8052 133.771 62.8772 133.644C62.9639 133.489 63.0492 133.335 63.1706 133.207C63.4986 132.859 63.9519 132.721 64.4386 132.721C65.3559 132.721 66.3959 133.204 66.9679 133.668C68.3452 134.786 68.5945 137.257 67.1185 138.244C66.6185 138.577 66.0665 138.686 65.4839 138.686C64.9265 138.686 64.3425 138.586 63.7519 138.486C63.1625 138.385 62.5665 138.285 61.9865 138.285C61.6719 138.285 61.3612 138.315 61.0599 138.389C60.1426 138.616 59.3879 139.243 58.6252 139.798C57.8906 140.333 57.0559 140.835 56.1532 140.835Z" fill="#312317"/>
<path d="M124.368 149.877C124.036 149.877 123.699 149.741 123.38 149.619C122.537 149.295 121.811 149.141 121.009 149.141C120.684 149.141 120.347 149.167 119.985 149.216C119.764 149.247 119.537 149.269 119.312 149.269C118.949 149.269 118.593 149.209 118.285 149.024C116.429 147.912 119.013 145.338 120.557 145.338C120.616 145.338 120.675 145.343 120.731 145.35L121.428 145.169C121.731 145.05 122.044 144.996 122.357 144.996C124.151 144.996 125.923 146.783 125.576 148.613C125.475 149.141 125.176 149.692 124.659 149.838C124.563 149.865 124.465 149.877 124.368 149.877Z" fill="#402F21"/>
<path d="M151.874 151.973C151.816 151.973 151.757 151.969 151.697 151.961C150.984 151.861 150.6 151.237 149.982 150.973C149.219 150.649 148.21 150.807 147.514 150.46C146.467 149.936 146.076 149.421 146.644 148.219C147.112 147.232 147.973 146.847 148.928 146.847C149.268 146.847 149.619 146.895 149.968 146.983C151.216 147.298 152.44 148.109 153.024 148.979C153.756 150.069 153.119 151.973 151.874 151.973Z" fill="#4B3827"/>
<path d="M71.3948 149.125C69.5521 148.985 67.7628 148.395 66.0041 147.808C65.6815 147.702 65.3454 147.585 65.1201 147.333C64.4841 146.617 65.2281 145.448 66.1254 145.112C67.0228 144.777 68.0495 144.863 68.9095 144.441C69.4281 144.188 69.8441 143.769 70.3041 143.42C71.3508 142.625 72.6641 142.189 73.9775 142.189C74.1281 142.189 74.2774 142.196 74.4268 142.207L74.1441 142.217C76.5268 142.307 78.4094 145.029 77.6548 147.291C77.4974 147.763 77.2268 148.225 76.7894 148.465C76.7134 148.507 76.6334 148.541 76.5508 148.569C76.2401 148.552 75.9281 148.543 75.6135 148.543C74.2428 148.543 72.8414 148.72 71.3948 149.125Z" fill="#312317"/>
<path d="M72.1985 149.156C72.1345 149.156 72.0692 149.155 72.0039 149.153C71.7999 149.149 71.5972 149.14 71.3945 149.125C72.8412 148.72 74.2425 148.543 75.6132 148.543C75.9279 148.543 76.2399 148.552 76.5505 148.569C76.3572 148.637 76.1519 148.676 75.9492 148.71C74.7079 148.932 73.4585 149.156 72.1985 149.156Z" fill="#24180F"/>
<path d="M86.8239 141.965C86.6345 141.965 86.4772 141.959 86.3585 141.945C83.9359 141.665 81.6705 141.031 79.6865 139.927C79.7825 139.555 80.1545 139.231 80.5105 139.02C81.7212 138.296 83.0732 137.829 84.4199 137.829C85.0652 137.829 85.7092 137.936 86.3345 138.173C86.5305 138.248 86.7252 138.335 86.9172 138.434C87.8785 138.936 88.0145 140.143 87.7292 141.131C87.6439 141.428 87.4839 141.707 87.2745 141.956C87.1105 141.961 86.9599 141.965 86.8239 141.965Z" fill="#402F21"/>
<path d="M84.6693 143.181C82.9866 143.181 81.4906 142.016 80.1799 140.912C79.9773 140.741 79.7639 140.556 79.6906 140.302C79.6533 140.172 79.6559 140.047 79.6866 139.926C81.6706 141.031 83.9359 141.665 86.3586 141.945C86.4773 141.959 86.6346 141.965 86.8239 141.965C86.9599 141.965 87.1106 141.961 87.2746 141.956C86.7079 142.632 85.7799 143.097 84.9853 143.168C84.8786 143.177 84.7733 143.181 84.6693 143.181Z" fill="#312317"/>
<path d="M130.773 143.844C129.771 143.41 128.845 142.671 127.997 141.957C127.795 141.786 127.581 141.6 127.508 141.347C127.464 141.191 127.476 141.04 127.528 140.897C128.2 141.309 128.849 141.795 129.476 142.367C129.964 142.815 130.387 143.315 130.773 143.844Z" fill="#402F21"/>
<path d="M132.486 144.226C131.893 144.226 131.321 144.08 130.773 143.844C130.387 143.315 129.964 142.815 129.476 142.367C128.849 141.795 128.2 141.309 127.528 140.897C127.65 140.556 127.997 140.262 128.328 140.064C129.538 139.341 130.892 138.874 132.239 138.874C132.884 138.874 133.526 138.98 134.153 139.217C134.349 139.292 134.544 139.379 134.736 139.479C135.696 139.981 135.832 141.187 135.548 142.175C135.231 143.28 133.891 144.117 132.803 144.212C132.697 144.221 132.592 144.226 132.486 144.226Z" fill="#4B3827"/>
<path d="M79.5081 128.759C79.4588 128.759 79.4108 128.757 79.3628 128.757C78.0681 128.733 76.7721 128.71 75.4761 128.689C74.3388 128.668 72.9094 128.434 72.6108 127.337C72.3041 126.21 73.5614 125.233 74.7214 125.091C74.9601 125.061 75.2001 125.052 75.4414 125.052C75.6974 125.052 75.9548 125.063 76.2108 125.075C76.4681 125.085 76.7254 125.097 76.9801 125.097C77.3961 125.097 77.8081 125.067 78.2108 124.959L78.2361 125.003C78.3961 124.957 78.5561 124.936 78.7161 124.936C80.0734 124.936 81.3348 126.473 80.8641 127.803C80.7254 128.189 80.4534 128.551 80.0654 128.685C79.8868 128.747 79.6974 128.759 79.5081 128.759Z" fill="#402F21"/>
<path d="M168.332 153.277C167.92 153.277 167.509 153.217 167.115 153.092C166.681 152.956 166.263 152.748 165.848 152.538C166.927 152.008 167.964 151.402 169.159 150.807C170.281 150.248 171.327 149.876 172.333 149.609C172.351 149.684 172.364 149.762 172.372 149.841C172.44 150.464 172.173 151.08 171.799 151.583C171 152.655 169.663 153.277 168.332 153.277Z" fill="#2F2116"/>
<path d="M165.848 152.538C165.088 152.152 164.338 151.755 163.524 151.755C163.446 151.755 163.368 151.759 163.289 151.765C162.944 151.799 162.561 151.897 162.217 151.897C161.953 151.897 161.712 151.839 161.525 151.647C161.297 151.411 161.26 151.045 161.294 150.717C161.453 149.18 162.882 148.02 164.386 147.665C164.894 147.545 165.41 147.497 165.93 147.497C166.948 147.497 167.978 147.681 168.985 147.864L168.414 147.574C169.992 147.669 171.989 148.14 172.333 149.609C171.326 149.876 170.281 150.248 169.158 150.807C167.964 151.402 166.926 152.008 165.848 152.538Z" fill="#4B3827"/>
<path d="M143.653 159.696C143.279 159.471 142.925 159.209 142.603 158.916C142.188 158.537 141.832 158.088 141.427 157.736C141.041 157.402 140.689 157.191 140.781 156.58C140.855 156.089 141.211 155.68 141.628 155.412C142.072 155.128 142.599 154.98 143.125 154.98C143.192 154.98 143.259 154.981 143.325 154.986C145.043 156.417 145.839 157.861 146.423 159.361C147.412 159.185 148.389 158.945 149.343 158.633C149.343 158.637 149.341 158.643 149.341 158.648C147.508 159.267 145.583 159.614 143.653 159.696Z" fill="#402F21"/>
<path d="M146.5 160.58C146.325 160.58 146.155 160.568 145.988 160.543C145.163 160.42 144.368 160.126 143.653 159.696C145.583 159.615 147.508 159.267 149.341 158.648C149.289 159.868 147.828 160.58 146.5 160.58Z" fill="#2F2116"/>
<path d="M146.423 159.361C145.839 157.861 145.043 156.417 143.325 154.986C143.493 154.998 143.661 155.026 143.824 155.071C144.655 155.293 145.365 155.897 146.22 155.991C146.493 156.021 146.775 155.996 147.048 156.04C148.084 156.228 149.247 157.413 149.337 158.436C149.343 158.503 149.344 158.568 149.343 158.633C148.389 158.945 147.412 159.185 146.423 159.361Z" fill="#4B3827"/>
<path d="M133.646 153.776C133.167 153.776 132.668 153.701 132.228 153.597C131.439 153.409 130.539 153.135 130.226 152.385C129.891 151.585 130.463 150.641 131.24 150.257C131.782 149.991 132.386 149.925 132.995 149.925C133.26 149.925 133.528 149.938 133.791 149.952L133.49 149.968C134.65 150.517 136.03 151.544 135.599 152.755C135.323 153.528 134.516 153.776 133.646 153.776Z" fill="#402F21"/>
<path d="M107.876 146.031C107.811 146.031 107.745 146.027 107.68 146.017C107.275 145.957 106.92 145.726 106.536 145.586C105.304 145.139 103.608 145.522 102.913 144.414C101.696 142.469 103.908 141.316 106.128 141.316C106.692 141.316 107.256 141.391 107.764 141.545C109.097 141.953 110.048 142.914 109.604 144.533C109.387 145.324 108.675 146.031 107.876 146.031Z" fill="#402F21"/>
<path d="M93.2228 154.045C92.4268 154.045 91.4695 153.588 91.0695 152.941C90.4055 151.868 91.0588 150.345 92.1722 149.752C92.7855 149.424 93.3602 149.262 93.9588 149.262C94.3922 149.262 94.8388 149.348 95.3188 149.519C95.4962 149.583 95.6735 149.655 95.8535 149.708C95.9988 149.75 96.1442 149.78 96.2935 149.78C96.3082 149.78 96.3228 149.779 96.3375 149.779C96.9762 149.757 97.5175 149.198 98.1469 149.198C98.1722 149.198 98.1975 149.2 98.2228 149.202C98.7122 149.239 99.1028 149.624 99.3695 150.036C99.8148 150.726 100.04 151.564 99.9495 152.379C99.8869 152.941 99.6309 153.538 99.1149 153.768C98.9509 153.841 98.7775 153.871 98.6002 153.871C98.3362 153.871 98.0668 153.804 97.8175 153.712C97.4002 153.557 97.0068 153.336 96.5748 153.236C96.4082 153.197 96.2495 153.181 96.1002 153.181C95.1042 153.181 94.4242 153.919 93.4402 154.033C93.3695 154.041 93.2962 154.045 93.2228 154.045Z" fill="#312317"/>
<path d="M56.6014 150.964C55.5934 150.716 54.5761 150.355 53.5401 149.857C53.3774 149.673 53.2054 149.5 52.984 149.398C52.8174 149.322 52.6374 149.296 52.4534 149.289C52.1534 149.12 51.8521 148.938 51.5494 148.745C51.1787 148.509 50.8227 148.262 50.4761 148.005C50.4801 147.612 50.5961 147.196 50.7907 146.862C51.4027 145.819 52.4027 145.086 53.5161 145.086C53.9254 145.086 54.3494 145.185 54.7747 145.403C55.2574 145.648 55.6561 146.068 56.1627 146.243L56.3014 146.284C56.4467 146.319 56.5934 146.331 56.7427 146.331C56.9374 146.331 57.1347 146.309 57.3294 146.293C57.4547 146.283 57.5827 146.274 57.7094 146.274C57.9294 146.274 58.1481 146.3 58.3494 146.384C59.2787 146.773 59.0934 148.733 58.7241 149.461C58.3107 150.274 57.4921 150.792 56.6014 150.964Z" fill="#312317"/>
<path d="M55.9428 151.027C55.1508 151.027 54.3681 150.753 53.8201 150.174C53.7241 150.072 53.6335 149.963 53.5401 149.857C54.5761 150.355 55.5935 150.716 56.6015 150.964C56.3855 151.005 56.1628 151.027 55.9428 151.027ZM51.7388 149.307C51.5241 149.307 51.3148 149.286 51.1214 149.2C50.6614 148.996 50.4721 148.52 50.4761 148.005C50.8228 148.263 51.1788 148.509 51.5495 148.745C51.8521 148.939 52.1534 149.12 52.4534 149.29C52.4228 149.288 52.3921 149.288 52.3601 149.288C52.2575 149.288 52.1535 149.293 52.0495 149.297C51.9455 149.303 51.8415 149.307 51.7388 149.307Z" fill="#24180F"/>
<path d="M80.2641 159.8C79.8641 159.8 79.4707 159.692 79.1387 159.455C78.8601 159.253 78.6334 158.988 78.3454 158.798C77.5987 158.31 76.6267 158.439 75.7374 158.363C74.8467 158.284 73.8094 157.76 73.8214 156.867C73.8334 155.877 75.0374 155.475 76.0694 155.475C76.1681 155.475 76.2654 155.479 76.3587 155.486C77.2521 155.553 78.1387 155.709 79.0014 155.953L80.0294 155.629C80.1267 155.614 80.2241 155.605 80.3214 155.605C81.5881 155.605 82.7454 156.948 82.4507 158.208C82.2281 159.168 81.2294 159.8 80.2641 159.8Z" fill="#24180F"/>
<path d="M114.353 166.757C113.963 166.757 113.584 166.632 113.275 166.347C113.007 166.1 112.816 165.773 112.525 165.555C112.189 165.303 111.785 165.229 111.363 165.229C110.956 165.229 110.531 165.296 110.129 165.336C110.025 165.347 109.917 165.352 109.808 165.352C109.059 165.352 108.245 165.095 108.073 164.397C107.899 163.686 108.543 163.029 109.207 162.721C109.763 162.461 110.377 162.331 110.991 162.331C111.532 162.331 112.072 162.432 112.573 162.636L113.235 161.869C113.323 161.861 113.411 161.859 113.499 161.859C115.032 161.859 116.6 163.016 116.641 164.547C116.672 165.744 115.465 166.757 114.353 166.757Z" fill="#24180F"/>
<path d="M148.731 168.488C148.619 168.488 148.507 168.483 148.395 168.479C146.591 168.41 144.434 168.212 143.155 166.735C141.744 165.103 142.98 163.959 144.971 163.728C145.338 163.686 145.711 163.662 146.086 163.662C146.355 163.662 146.624 163.674 146.891 163.702C148.062 163.826 149.175 164.252 149.967 165.214C150.772 166.189 150.636 167.998 149.434 168.395C149.208 168.469 148.97 168.488 148.731 168.488Z" fill="#2F2116"/>
<path d="M169.166 163.123C168.785 163.123 168.408 163.028 168.076 162.821C167.705 162.592 167.392 162.256 166.974 162.132C166.55 162.007 166.085 162.121 165.661 161.999C164.654 161.709 164.496 160.191 165.186 159.404C165.876 158.615 167.02 158.417 168.068 158.407L168.496 158.628C168.721 158.544 168.954 158.505 169.188 158.505C170.492 158.505 171.786 159.723 171.652 161.063C171.532 162.252 170.329 163.123 169.166 163.123Z" fill="#2F2116"/>
<path d="M185.539 160.741C184.543 160.741 183.716 159.988 182.867 159.473C182.249 159.098 181.475 158.171 181.715 157.403C181.925 156.724 182.735 156.386 183.413 156.386C183.463 156.386 183.511 156.388 183.559 156.392C184.109 156.433 184.62 156.465 185.148 156.465C185.451 156.465 185.76 156.455 186.087 156.429L186.356 156.412C186.379 156.412 186.403 156.412 186.427 156.412C186.596 156.412 186.761 156.429 186.917 156.491C187.105 156.567 187.261 156.7 187.416 156.832C187.964 157.305 188.513 157.78 189.063 158.252L189.343 158.545C189.552 158.869 189.455 159.327 189.196 159.614C188.937 159.898 188.552 160.04 188.171 160.105C187.363 160.244 186.665 160.581 185.864 160.714C185.753 160.732 185.645 160.741 185.539 160.741Z" fill="#2F2116"/>
<path d="M46.9693 162.529C46.908 162.529 46.8453 162.527 46.784 162.521C46.0386 161.795 45.06 161.31 44.0307 161.16C43.4307 161.074 42.7853 161.084 42.272 160.762C41.7587 160.438 41.528 159.589 42.0267 159.247C42.2453 159.095 42.5293 159.089 42.7947 159.089C43.1227 159.089 43.448 159.095 43.7693 159.095C44.6053 159.095 45.4173 159.064 46.2027 158.85C46.5267 158.76 46.8467 158.64 47.1613 158.477C47.3973 158.356 47.62 158.302 47.8267 158.302C48.7373 158.302 49.324 159.36 49.2947 160.308C49.256 161.495 48.148 162.529 46.9693 162.529Z" fill="#24180F"/>
<path d="M43.1108 149.812C42.9974 149.812 42.8814 149.79 42.7654 149.74C42.5121 149.629 42.3228 149.41 42.0934 149.253C41.6708 148.964 41.1481 148.897 40.6041 148.897C40.3814 148.897 40.1548 148.909 39.9294 148.92C39.7041 148.931 39.4801 148.943 39.2641 148.943C38.6028 148.943 38.0068 148.84 37.6268 148.322C36.9841 147.451 37.7507 146.119 38.7854 145.798C39.0694 145.709 39.3587 145.673 39.6507 145.673C40.4227 145.673 41.2121 145.932 41.9548 146.189L41.0774 145.776C41.2921 145.709 41.5121 145.677 41.7334 145.677C43.0668 145.677 44.3868 146.828 44.4041 148.192C44.4134 148.96 43.8028 149.812 43.1108 149.812Z" fill="#24180F"/>
</svg>
