<svg width="206" height="407" viewBox="0 0 206 407" fill="none" xmlns="http://www.w3.org/2000/svg">
<path d="M147.456 96.6934C149.188 92.8574 150.273 89.7334 150.487 88.3907C150.847 86.1334 152.005 77.5628 154.303 72.3094C156.597 67.0561 160.208 59.4787 162.171 58.0614C162.171 58.0614 158.46 63.2694 157.24 74.2788C156.1 84.5534 151.715 101.505 148.063 102.34C147.753 100.443 147.127 98.6587 147.456 96.6934Z" fill="#327212"/>
<path d="M155.28 72.72C152.984 77.972 152.263 85.1267 151.904 87.384C151.708 88.6094 149.34 93.7707 147.373 97.5134C147.32 98.7187 147.569 99.8707 147.812 101.04C149.872 99.22 152.139 93.208 154.075 86.84C155.406 82.4574 155.137 79.3067 155.817 75.4987C156.78 70.128 158.604 65.0307 160.02 61.768C161.176 59.1 162.171 58.0614 162.171 58.0614C160.208 59.4787 157.576 67.4667 155.28 72.72Z" fill="#5D9F0A"/>
<path d="M154.812 75.156C155.397 73.0066 158.483 65.104 158.483 65.104C158.483 65.104 155.151 74.948 155.061 77.2533C154.945 80.2226 154.179 83.4493 153.403 86.0253C152.947 87.54 151.407 92.5026 151.18 92.9066C150.796 93.5906 149.964 96.4 148.493 98.852C148.104 99.5 147.831 99.916 147.636 100.168C147.555 99.76 147.484 99.3506 147.435 98.9386C147.863 98.0253 150.289 93.9253 151.869 88.7533C153.644 82.9506 154.579 76.0226 154.812 75.156Z" fill="#87B804"/>
<path d="M147.579 99.4907C148.939 97.0147 150.637 94.3561 151.024 93.2361C151.233 92.6281 153.201 89.5481 153.437 88.3774C153.667 87.2401 154.596 85.1867 154.755 83.8307C155.195 83.0094 155.649 82.2201 156.117 81.4547C154.279 90.9867 150.945 101.681 148.063 102.34L148.055 102.293C148.004 101.347 147.899 100.397 147.579 99.4907Z" fill="#013300"/>
<path d="M147.456 96.6932C147.456 96.6932 147.23 97.6532 147.23 98.8919C147.227 100.443 147.779 102.509 148.089 102.441C149.124 102.213 147.456 96.6932 147.456 96.6932Z" fill="#216700"/>
<path d="M145.394 102.891C145.394 102.891 110.073 278.904 104.536 345.498C104.536 345.498 104.097 347.909 106.424 348.003C108.581 348.089 108.516 345.714 108.516 345.714C108.516 345.714 109.448 330.259 112.73 309.12C117.48 278.531 123.7 235.856 128.24 211.465C135.914 170.216 147.572 102.489 147.572 102.489L145.394 102.891Z" fill="#237A00"/>
<path d="M122.195 230.509C114.851 274.141 107.893 319.127 105.372 345.886C105.372 345.886 105.223 347.331 105.663 347.863C105.876 347.94 106.128 347.991 106.424 348.003C106.657 348.012 106.863 347.991 107.047 347.95C107.323 347.481 107.455 345.984 107.455 345.984C107.455 345.984 108.548 330.016 111.641 308.855C116.112 278.237 122.76 235.977 126.869 211.541C128.793 200.101 131.221 187.037 133.612 173.601C139.859 138.499 146.107 103.001 146.107 103.001L145.629 102.884C145.629 102.884 139.528 133.629 132.244 174.051C129.079 191.607 125.563 210.511 122.195 230.509Z" fill="#439300"/>
<path d="M145.537 103.841C145.537 103.841 143.165 116.095 140.823 129.013C138.555 141.524 136.32 154.661 135.94 157.643L145.537 103.841Z" fill="#0F6100"/>
<path d="M135.592 157.584C135.592 157.584 134.415 164.227 133.269 171.225C132.159 178.003 131.084 185.119 130.915 186.732L135.592 157.584Z" fill="#0F6100"/>
<path d="M130.355 188.428C130.355 188.428 128.116 200.709 125.917 213.653C123.787 226.191 121.699 239.352 121.351 242.337L130.355 188.428Z" fill="#0F6100"/>
<path d="M122.271 232.781C122.271 232.781 120.647 241.415 119.433 249.587C118.257 257.504 117.172 265.808 117.051 267.687L122.271 232.781Z" fill="#0F6100"/>
<path d="M116.517 269.587C116.517 269.587 114.457 281.901 112.445 294.876C110.497 307.443 109.156 318.344 108.852 321.332L116.517 269.587Z" fill="#0F6100"/>
<path d="M111.731 304.272C111.731 304.272 110.263 313.859 108.941 323.985C107.663 333.792 106.529 344.108 106.296 346.436L111.731 304.272Z" fill="#0F6100"/>
<path d="M113.614 292.325C113.614 292.325 116.94 278.187 127.493 259.944C138.046 241.701 137.833 226.384 152.209 221.251C166.584 216.119 171.492 242.88 171.492 242.88C171.492 242.88 162.557 226.44 155.844 227.684C149.132 228.927 138.668 258.035 134.637 265.396C130.606 272.755 116.02 295.396 111.146 316.024L113.614 292.325Z" fill="#327212"/>
<path d="M133.12 265.949C131.928 268.707 130.293 271.115 128.472 273.491C126.176 276.485 123.82 279.296 122.286 282.784C120.84 286.076 119.82 289.513 118.206 292.739C116.713 295.725 114.748 298.371 112.714 300.965L111.146 316.024C116.02 295.396 130.606 272.755 134.637 265.396C136.177 262.584 138.658 256.593 141.509 250.197C139.76 251.935 134.54 262.663 133.12 265.949Z" fill="#013300"/>
<path d="M152.472 221.167C141.014 228.069 136.236 247.58 132.539 254.023C129.32 259.633 120.179 277.293 113.543 293.013L112.709 301.019C119.281 283.84 130.314 267.351 133.799 261.277C138.014 253.929 148.914 224.852 155.98 223.635C160.091 222.925 165.017 228.203 168.423 232.744C165.572 225.868 160.53 218.485 152.472 221.167Z" fill="#5D9F0A"/>
<path d="M176.622 271.413C176.622 271.413 171.746 241.401 169.726 236.253C167.706 231.107 159.653 226.755 155.844 227.684C155.844 227.684 163.846 229.001 166.241 237.873C168.636 246.747 168.585 251.833 171.061 256.361C173.536 260.891 173.474 266.121 176.622 271.413Z" fill="#115400"/>
<path d="M173.834 260.821C173.282 256.764 170.953 253.127 170.426 249.084C169.202 239.676 166.929 231.804 158.018 227.644C157.212 227.533 156.468 227.531 155.844 227.684C155.844 227.684 163.846 229.001 166.241 237.873C168.636 246.747 168.585 251.833 171.061 256.361C173.209 260.292 173.449 264.751 175.53 269.316C174.721 266.529 174.208 263.573 173.834 260.821Z" fill="#013300"/>
<path d="M111.444 313.176C111.444 313.176 111.909 293.239 115.241 286.837C118.575 280.436 111.055 307.289 111.444 313.176Z" fill="#216700"/>
<path d="M116.476 289.584C116.476 289.584 127.597 265.224 130.649 259.903C133.7 254.58 139.727 239.963 142.536 235.119C145.348 230.275 151.628 219.641 158.744 221.732C158.744 221.732 163.003 223.461 164.593 226.705C164.593 226.705 161.285 222.908 158.177 222.097C155.069 221.287 150.928 221.901 144.191 233.773C137.451 245.644 134.684 254.041 132.597 258.217C130.513 262.393 117.928 288.171 116.476 289.584Z" fill="#87B804"/>
<path d="M115.649 291.941C115.649 291.941 127.113 270.732 130.153 264.733C133.193 258.733 143.808 235.571 145.679 232.393C147.548 229.216 151.919 221.487 157.62 222.349C162.764 223.127 165.212 228.44 165.212 228.44C165.212 228.44 162.5 223.356 157.188 222.724C152.052 222.112 147.935 229.672 144.356 236.263C140.776 242.856 132.148 262.84 129.032 267.776C125.916 272.713 117.1 290.559 115.649 291.941Z" fill="#327212"/>
<path d="M126.632 203.271C126.632 203.271 117.49 188.483 104.627 177.827C91.7628 167.171 93.6988 159.057 93.6988 159.057C93.6988 159.057 92.0748 167.881 104.108 182.835C110.139 190.327 118.54 210.389 125.183 214.448C125.183 214.448 127.088 205.415 126.632 203.271Z" fill="#327212"/>
<path d="M93.9518 133.531C93.9518 133.531 92.1238 159.296 96.3598 168.697C96.3598 168.697 88.0065 160.8 89.2825 149.151C90.5585 137.504 93.9518 133.531 93.9518 133.531Z" fill="#327212"/>
<path d="M125.84 211.041C126.113 209.516 126.401 207.736 126.565 206.212C124.52 202.917 115.655 189.192 104.403 179.871C103.019 178.724 101.817 177.584 100.759 176.461C101.881 178.1 103.179 179.853 104.681 181.719C110.148 188.513 119.24 204.999 125.84 211.041Z" fill="#5D9F0A"/>
<path d="M100.758 176.461C98.4624 173.103 96.9078 170.225 95.8544 167.829C94.5344 165.46 93.9624 163.469 93.7344 161.983C93.9464 163.841 94.5451 166.555 96.0637 170.024C97.1304 172.033 98.6397 174.211 100.758 176.461Z" fill="#5D9F0A"/>
<path d="M90.2865 149.045C89.0105 160.693 96.3599 168.697 96.3599 168.697C94.4612 164.485 91.8212 157.508 91.6478 150.515C91.4345 141.899 93.9519 133.531 93.9519 133.531C93.9519 133.531 91.5638 137.397 90.2865 149.045Z" fill="#5D9F0A"/>
<path d="M125.66 207.223C125.66 207.223 112.342 185.765 103.047 179.631C103.047 179.631 112.868 190.32 114.678 194.205C116.484 198.092 124.528 209.079 125.676 210.353C125.676 210.353 126.28 208.201 125.66 207.223Z" fill="#87B804"/>
<path d="M93.3242 135.259C93.3242 135.259 89.4455 147.789 90.8202 155.879C91.9775 162.689 94.8976 166.387 94.8976 166.387L94.8149 165.691C94.2509 164.328 92.8909 161.423 92.1389 158.656C91.5469 156.477 91.3762 154.336 91.1895 152.448C90.5362 145.904 93.3242 135.259 93.3242 135.259Z" fill="#87B804"/>
<path d="M93.0465 161.492C91.4892 158.455 90.7358 155.251 90.4905 151.907C90.0852 146.396 90.7078 140.64 92.7972 135.431C91.6918 137.627 90.0772 141.901 89.2825 149.151C88.0065 160.799 96.3598 168.697 96.3598 168.697L96.2171 168.352C95.1305 166.073 94.1732 163.693 93.0465 161.492Z" fill="#013300"/>
<path d="M126.442 203.205C126.442 203.205 126.861 205.445 126.529 210.119C126.197 214.792 125.159 214.875 124.767 213.892C124.375 212.911 124.398 209.016 126.442 203.205Z" fill="#216700"/>
<path d="M140.302 143.848C145.655 139.219 153.57 134.372 154.894 132.516C157.119 129.397 161.268 118.313 168.496 111.929C175.723 105.544 186.568 96.512 190.403 95.5947C190.403 95.5947 181.226 101.065 171.12 116.597C161.691 131.092 142.615 153.507 136.85 152.553C137.862 149.565 138.34 146.555 140.302 143.848Z" fill="#327212"/>
<path d="M169.556 113.12C162.33 119.505 157.476 131.005 155.252 134.124C154.044 135.817 145.174 140.659 139.562 145.009C138.567 146.76 138.036 148.609 137.488 150.483C141.768 149.028 149.532 141.503 157.102 133.256C162.312 127.579 164.335 122.765 168.195 117.548C173.639 110.191 180.084 103.753 184.558 99.78C188.215 96.5333 190.403 95.5946 190.403 95.5946C186.568 96.512 176.783 106.736 169.556 113.12Z" fill="#5D9F0A"/>
<path d="M179.86 103.788C179.86 103.788 169.502 113.616 167.044 116.441C164.586 119.265 157.09 132.829 156.022 133.645C156.022 133.645 160.668 128.811 165.794 119.687C167.677 116.336 179.86 103.788 179.86 103.788Z" fill="#87B804"/>
<path d="M154.061 135.849C154.061 135.849 142.076 144.189 138.56 147.153C138.315 147.791 138.102 148.436 137.904 149.088C138.369 148.833 139.07 148.384 140.112 147.657C144.045 144.916 147.354 141.264 148.414 140.484C149.473 139.704 152.985 137.073 154.061 135.849Z" fill="#87B804"/>
<path d="M171.12 116.597C175.194 110.337 179.114 105.715 182.344 102.423C178.886 105.88 170.02 117.056 166.318 120.907C163.57 123.767 159.846 130.404 156.647 134.556C155.423 136.144 151.071 139.937 150.312 140.709C148.9 142.148 147.388 144.557 143.562 147.432C141.218 149.193 137.488 150.483 137.488 150.483C137.21 151.427 137.171 151.603 136.85 152.553C142.615 153.507 161.691 131.092 171.12 116.597Z" fill="#013300"/>
<path d="M183.588 101.188V101.187L183.524 101.251L183.588 101.188Z" fill="#013300"/>
<path d="M140.301 143.848C140.301 143.848 139.25 145.131 138.305 146.96C137.121 149.251 136.32 152.633 136.809 152.719C138.436 153 140.301 143.848 140.301 143.848Z" fill="#216700"/>
<path d="M141.463 122.801C140.567 119.961 140.012 117.651 139.909 116.659C139.736 114.992 139.192 108.663 138.005 104.773C136.819 100.884 134.948 95.272 133.907 94.2133C133.907 94.2133 135.853 98.0787 136.409 106.205C136.927 113.791 139.131 126.321 141.084 126.963C141.268 125.565 141.621 124.253 141.463 122.801Z" fill="#327212"/>
<path d="M137.475 105.069C138.661 108.959 138.984 114.239 139.156 115.907C139.251 116.811 140.476 120.633 141.499 123.407C141.517 124.297 141.372 125.144 141.231 126.004C140.14 124.649 138.977 120.199 137.996 115.491C137.32 112.249 137.493 109.928 137.161 107.115C136.693 103.148 135.759 99.3772 135.028 96.9612C134.431 94.9852 133.907 94.2133 133.907 94.2133C134.948 95.2719 136.291 101.18 137.475 105.069Z" fill="#5D9F0A"/>
<path d="M137.704 106.869C137.411 105.28 135.824 99.4308 135.824 99.4308C135.824 99.4308 137.526 106.715 137.552 108.415C137.587 110.605 137.971 112.991 138.363 114.895C138.595 116.015 139.378 119.685 139.496 119.984C139.696 120.491 140.118 122.568 140.886 124.387C141.088 124.868 141.232 125.176 141.335 125.363C141.381 125.063 141.423 124.761 141.454 124.457C141.232 123.781 139.966 120.741 139.163 116.917C138.262 112.625 137.823 107.511 137.704 106.869Z" fill="#87B804"/>
<path d="M141.371 124.863C140.663 123.028 139.775 121.056 139.577 120.228C139.469 119.779 138.44 117.493 138.324 116.628C138.211 115.788 137.729 114.268 137.656 113.267C137.427 112.657 137.192 112.072 136.947 111.505C137.848 118.547 139.541 126.456 141.084 126.963L141.089 126.928C141.127 126.229 141.191 125.529 141.371 124.863Z" fill="#013300"/>
<path d="M141.462 122.801C141.462 122.801 141.576 123.511 141.564 124.425C141.55 125.568 141.236 127.089 141.069 127.036C140.516 126.861 141.462 122.801 141.462 122.801Z" fill="#216700"/>
<path d="M58.972 81.9466C58.972 81.9466 94.584 274.959 99.6507 347.876C99.6507 347.876 100.091 350.519 97.5907 350.588C95.2734 350.653 95.3747 348.057 95.3747 348.057C95.3747 348.057 94.5773 331.138 91.3307 307.971C86.6333 274.449 80.5173 227.683 75.964 200.941C68.2627 155.717 56.6387 81.4773 56.6387 81.4773L58.972 81.9466Z" fill="#237A00"/>
<path d="M82.2024 221.856C89.5171 269.683 96.3944 318.983 98.7491 348.288C98.7491 348.288 98.8904 349.871 98.4117 350.447C98.181 350.528 97.9104 350.58 97.5904 350.588C97.3411 350.596 97.1197 350.571 96.9224 350.522C96.6331 350.007 96.5104 348.368 96.5104 348.368C96.5104 348.368 95.5464 330.885 92.5064 307.697C88.1064 274.145 81.5237 227.831 77.4331 201.044C75.5197 188.505 73.0838 174.181 70.6931 159.452C64.4478 120.969 58.2051 82.0559 58.2051 82.0559L58.7211 81.936C58.7211 81.936 64.8651 115.649 72.1571 159.963C75.3238 179.209 78.8504 199.935 82.2024 221.856Z" fill="#439300"/>
<path d="M58.8052 82.984C58.8052 82.984 61.1931 96.42 63.5371 110.583C65.8078 124.297 68.0331 138.699 68.4038 141.965L58.8052 82.984Z" fill="#0F6100"/>
<path d="M68.7788 141.907C68.7788 141.907 69.9548 149.187 71.0922 156.859C72.1948 164.288 73.2575 172.085 73.4175 173.852L68.7788 141.907Z" fill="#0F6100"/>
<path d="M73.9961 175.715C73.9961 175.715 76.2388 189.18 78.4294 203.368C80.5521 217.109 82.6214 231.535 82.9548 234.805L73.9961 175.715Z" fill="#0F6100"/>
<path d="M82.0918 224.341C82.0918 224.341 83.7225 233.805 84.9171 242.763C86.0771 251.437 87.1345 260.536 87.2385 262.591L82.0918 224.341Z" fill="#0F6100"/>
<path d="M87.7866 264.679C87.7866 264.679 89.836 278.176 91.8253 292.397C93.752 306.168 95.0493 318.109 95.336 321.383L87.7866 264.679Z" fill="#0F6100"/>
<path d="M92.4707 302.684C92.4707 302.684 93.9174 313.188 95.204 324.284C96.4494 335.028 97.5294 346.326 97.748 348.877L92.4707 302.684Z" fill="#0F6100"/>
<path d="M86.2064 258.868C86.2064 258.868 82.4038 242.503 69.7544 221.337C57.1064 200.172 57.705 182.472 40.0451 176.425C22.3851 170.38 15.7344 201.268 15.7344 201.268C15.7344 201.268 27.1384 182.341 35.4117 183.831C43.6824 185.321 55.9824 219.043 60.8051 227.581C65.6277 236.119 83.1664 262.399 88.7411 286.275L86.2064 258.868Z" fill="#327212"/>
<path d="M62.6696 228.233C64.0829 231.428 66.0509 234.224 68.2509 236.984C71.0256 240.464 73.8736 243.731 75.6949 247.775C77.4123 251.588 78.5963 255.569 80.5216 259.309C82.3029 262.773 84.6749 265.847 87.1309 268.861L88.7416 286.275C83.1669 262.399 65.6283 236.119 60.8056 227.581C58.9643 224.317 56.0269 217.376 52.6416 209.963C54.7656 211.984 60.9843 224.423 62.6696 228.233Z" fill="#013300"/>
<path d="M39.7239 176.327C53.7372 184.395 59.2185 206.979 63.6465 214.455C67.5038 220.964 78.4198 241.445 86.2798 259.664L87.1358 268.921C79.3865 249.017 66.1065 229.873 61.9319 222.828C56.8812 214.304 44.0425 180.613 35.3319 179.149C30.2652 178.299 24.0585 184.359 19.7505 189.58C23.4252 181.656 29.8199 173.165 39.7239 176.327Z" fill="#5D9F0A"/>
<path d="M8.76953 234.2C8.76953 234.2 15.4535 199.556 18.0615 193.625C20.6709 187.693 30.7215 182.728 35.4122 183.831C35.4122 183.831 25.4895 185.291 22.3362 195.525C19.1815 205.759 19.1322 211.639 15.9722 216.852C12.8135 222.065 12.7749 228.111 8.76953 234.2Z" fill="#115400"/>
<path d="M12.448 221.983C13.2174 217.299 16.1774 213.113 16.9161 208.445C18.6334 197.584 21.6174 188.504 32.7241 183.769C33.7228 183.647 34.6427 183.651 35.412 183.831C35.412 183.831 25.4894 185.291 22.3361 195.525C19.1814 205.759 19.1321 211.639 15.9721 216.852C13.2321 221.375 12.8374 226.527 10.1641 231.788C11.2254 228.575 11.924 225.16 12.448 221.983Z" fill="#013300"/>
<path d="M88.436 282.981C88.436 282.981 88.2973 259.937 84.316 252.513C80.336 245.089 89.0453 276.181 88.436 282.981Z" fill="#216700"/>
<path d="M82.7281 255.677C82.7281 255.677 69.5108 227.439 65.8561 221.264C62.1988 215.088 55.0694 198.149 51.7001 192.528C48.3308 186.909 40.7988 174.572 31.9575 176.931C31.9575 176.931 26.6534 178.895 24.6147 182.632C24.6147 182.632 28.7894 178.268 32.6481 177.357C36.5081 176.445 41.6148 177.188 49.6867 190.961C57.7587 204.735 60.9961 214.46 63.4828 219.303C65.9708 224.143 80.9654 254.033 82.7281 255.677Z" fill="#87B804"/>
<path d="M83.6987 258.409C83.6987 258.409 69.9894 233.808 66.3627 226.851C62.7374 219.893 50.1187 193.041 47.876 189.356C45.6347 185.668 40.3987 176.701 33.3321 177.652C26.9561 178.511 23.812 184.632 23.812 184.632C23.812 184.632 27.2774 178.776 33.8601 178.088C40.2214 177.423 45.1454 186.193 49.4267 193.837C53.7081 201.483 63.9387 224.647 67.684 230.376C71.4267 236.107 81.9361 256.8 83.6987 258.409Z" fill="#327212"/>
<path d="M77.9575 192.179C77.9575 192.179 91.1602 175.804 108.104 165.004C125.048 154.203 124.063 144.112 124.063 144.112C124.063 144.112 124.566 155.011 107.911 171.123C99.5655 179.196 86.3882 202.047 77.8708 205.884C77.8708 205.884 77.0695 194.689 77.9575 192.179Z" fill="#327212"/>
<path d="M127.875 113.297C127.875 113.297 125.889 144.651 119.361 155.312C119.361 155.312 130.521 147.119 130.887 132.873C131.251 118.627 127.875 113.297 127.875 113.297Z" fill="#327212"/>
<path d="M77.6412 201.672C77.5652 199.789 77.5105 197.596 77.5612 195.735C80.5132 192.087 93.2185 176.949 108.039 167.504C109.863 166.341 111.469 165.157 112.902 163.972C111.309 165.769 109.491 167.677 107.413 169.688C99.8465 177.008 86.4278 195.436 77.6412 201.672Z" fill="#5D9F0A"/>
<path d="M112.903 163.972C116.161 160.289 118.467 157.067 120.099 154.347C122.043 151.699 123.04 149.389 123.55 147.635C122.999 149.841 121.854 153.017 119.496 156.959C117.911 159.212 115.772 161.596 112.903 163.972Z" fill="#5D9F0A"/>
<path d="M129.715 132.584C129.349 146.831 119.361 155.312 119.361 155.312C122.287 150.536 126.535 142.543 127.865 134.14C129.507 123.787 127.875 113.297 127.875 113.297C127.875 113.297 130.08 118.339 129.715 132.584Z" fill="#5D9F0A"/>
<path d="M78.4705 197.095C78.4705 197.095 97.6932 173.347 109.683 167.428C109.683 167.428 96.3345 178.753 93.5692 183.151C90.8039 187.549 79.5119 199.513 77.9479 200.867C77.9479 200.867 77.5785 198.179 78.4705 197.095Z" fill="#87B804"/>
<path d="M128.34 115.48C128.34 115.48 130.913 131.205 127.983 140.739C125.516 148.764 121.464 152.759 121.464 152.759L121.673 151.932C122.56 150.379 124.639 147.093 125.973 143.877C127.027 141.345 127.573 138.791 128.099 136.544C129.924 128.759 128.34 115.48 128.34 115.48Z" fill="#87B804"/>
<path d="M124.443 147.153C126.775 143.737 128.184 139.996 129.013 136.003C130.379 129.423 130.571 122.385 128.936 115.772C129.892 118.595 131.113 124.005 130.887 132.873C130.521 147.119 119.361 155.312 119.361 155.312C119.436 155.189 119.509 155.048 119.584 154.917C121.24 152.344 122.753 149.627 124.443 147.153Z" fill="#013300"/>
<path d="M78.1918 192.129C78.1918 192.129 77.3345 194.763 76.9731 200.449C76.6145 206.136 77.8305 206.401 78.4531 205.28C79.0745 204.157 79.6758 199.459 78.1918 192.129Z" fill="#216700"/>
<path d="M66.4092 138.988C61.5118 133.065 53.9332 126.465 52.8439 124.232C51.0092 120.479 48.4772 107.792 41.8892 99.6495C35.3012 91.5068 25.3212 79.8801 21.4092 78.2281C21.4092 78.2281 30.2212 85.7201 38.3172 104.239C45.8732 121.523 62.3238 149.024 68.6012 148.987C68.0318 145.584 68.0332 142.249 66.4092 138.988Z" fill="#327212"/>
<path d="M40.5639 100.753C47.1519 108.896 50.3585 122.155 52.1919 125.908C53.1865 127.945 61.7799 134.703 66.9986 140.371C67.7572 142.432 68.0065 144.523 68.2719 146.64C63.9785 144.332 57.0119 134.864 50.3745 124.651C45.8065 117.62 44.4732 112.072 41.2599 105.771C36.7279 96.8841 30.9772 88.8215 26.9025 83.7575C23.5719 79.6188 21.4092 78.2281 21.4092 78.2281C25.3212 79.8801 33.9745 92.6108 40.5639 100.753Z" fill="#5D9F0A"/>
<path d="M31.2095 88.896C31.2095 88.896 40.5375 101.297 42.6681 104.773C44.7975 108.248 50.4588 124.191 51.4548 125.257C51.4548 125.257 47.3428 119.233 43.4455 108.495C42.0148 104.551 31.2095 88.896 31.2095 88.896Z" fill="#87B804"/>
<path d="M53.1641 127.976C53.1641 127.976 64.4694 139.052 67.6988 142.859C67.8508 143.589 67.968 144.324 68.068 145.061C67.616 144.707 66.9494 144.1 65.9667 143.136C62.2561 139.496 59.364 134.981 58.3707 133.956C57.3787 132.932 54.0974 129.483 53.1641 127.976Z" fill="#87B804"/>
<path d="M38.3172 104.239C35.0545 96.7761 31.6758 91.1055 28.8052 86.9935C31.8892 91.3228 39.4079 104.924 42.6852 109.723C45.1172 113.285 47.9465 121.097 50.6385 126.133C51.6678 128.059 55.6452 132.907 56.3185 133.872C57.5759 135.671 58.7718 138.533 62.3465 142.299C64.5345 144.604 68.2718 146.64 68.2718 146.64C68.4092 147.708 68.4198 147.905 68.6011 148.987C62.3238 149.024 45.8732 121.523 38.3172 104.239Z" fill="#013300"/>
<path d="M27.6934 85.4439V85.4426L27.7507 85.5239L27.6934 85.4439Z" fill="#013300"/>
<path d="M66.4092 138.988C66.4092 138.988 67.3052 140.555 68.0012 142.695C68.8692 145.371 69.1479 149.164 68.6145 149.172C66.8412 149.195 66.4092 138.988 66.4092 138.988Z" fill="#216700"/>
<path d="M62.9323 103.779C63.9323 100.685 64.559 98.1654 64.683 97.0814C64.8896 95.2601 65.5589 88.3454 66.8843 84.1081C68.2096 79.8707 70.2936 73.7561 71.4256 72.6134C71.4256 72.6134 69.2843 76.8147 68.5803 85.696C67.9216 93.9854 65.391 107.661 63.283 108.335C63.1043 106.804 62.743 105.364 62.9323 103.779Z" fill="#327212"/>
<path d="M67.4477 84.4388C66.1237 88.6774 65.7064 94.4481 65.4997 96.2694C65.3864 97.2574 64.0197 101.421 62.8851 104.44C62.8544 105.413 62.997 106.343 63.1384 107.285C64.3264 105.817 65.6357 100.967 66.7517 95.8307C67.5211 92.2947 67.365 89.7534 67.7584 86.6814C68.313 82.3481 69.3664 78.2361 70.1837 75.6041C70.8517 73.4521 71.425 72.6134 71.425 72.6134C70.293 73.7561 68.773 80.2014 67.4477 84.4388Z" fill="#5D9F0A"/>
<path d="M67.1799 86.4054C67.5173 84.6708 69.2973 78.2947 69.2973 78.2947C69.2973 78.2947 67.3733 86.2374 67.3213 88.0961C67.2546 90.4934 66.8119 93.0961 66.3639 95.1734C66.1013 96.3948 65.212 100.399 65.0826 100.724C64.86 101.276 64.3799 103.543 63.5306 105.52C63.3053 106.044 63.1479 106.38 63.0359 106.583C62.9893 106.253 62.9493 105.923 62.9199 105.591C63.1679 104.855 64.5679 101.547 65.4799 97.3748C66.5039 92.6934 67.0426 87.1041 67.1799 86.4054Z" fill="#87B804"/>
<path d="M63.0029 106.035C63.7883 104.037 64.7683 101.893 64.9923 100.991C65.1136 100.5 66.2496 98.0147 66.3856 97.0707C66.5176 96.1534 67.0549 94.4961 67.1456 93.4027C67.4002 92.7401 67.6616 92.1027 67.9323 91.4854C66.871 99.176 64.9469 107.804 63.2829 108.335L63.2789 108.297C63.2496 107.532 63.1883 106.767 63.0029 106.035Z" fill="#013300"/>
<path d="M70.1014 76.4186V76.4173L70.0908 76.46L70.1014 76.4186Z" fill="#013300"/>
<path d="M62.932 103.779C62.932 103.779 62.8026 104.553 62.8013 105.553C62.8013 106.804 63.1187 108.472 63.2987 108.416C63.896 108.232 62.932 103.779 62.932 103.779Z" fill="#216700"/>
<path d="M114.16 48.1999C114.16 48.1999 99.6772 267.583 103.02 349.524C103.02 349.524 102.871 352.524 105.507 352.321C107.951 352.136 107.535 349.248 107.535 349.248C107.535 349.248 106.363 330.279 107.02 304.06C107.972 266.124 108.843 213.249 110.448 182.897C113.164 131.567 116.557 47.4159 116.557 47.4159L114.16 48.1999Z" fill="#237A00"/>
<path d="M106.376 206.936C104.375 261.128 103.008 316.916 104.017 349.883C104.017 349.883 104.056 351.665 104.629 352.253C104.88 352.32 105.171 352.348 105.507 352.321C105.771 352.302 106 352.248 106.2 352.172C106.444 351.564 106.377 349.721 106.377 349.721C106.377 349.721 105.313 330.103 105.753 303.885C106.388 265.951 107.799 213.528 108.915 183.177C109.436 168.968 110.295 152.712 111.055 136.007C113.044 92.3628 114.977 48.2374 114.977 48.2374L114.423 48.1601C114.423 48.1601 111.972 86.4708 109.577 136.74C108.536 158.575 107.295 182.097 106.376 206.936Z" fill="#439300"/>
<path d="M114.459 49.3386C114.459 49.3386 113.547 64.5999 112.765 80.668C112.009 96.228 111.383 112.548 111.381 116.235L114.459 49.3386Z" fill="#0F6100"/>
<path d="M110.981 116.212C110.981 116.212 110.611 124.468 110.327 133.157C110.051 141.571 109.861 150.392 109.904 152.381L110.981 116.212Z" fill="#0F6100"/>
<path d="M109.517 154.527C109.517 154.527 108.761 169.803 108.145 185.883C107.548 201.455 107.088 217.785 107.127 221.472L109.517 154.527Z" fill="#0F6100"/>
<path d="M106.788 209.696C106.788 209.696 106.2 220.441 106.008 230.572C105.821 240.381 105.793 250.653 105.927 252.96L106.788 209.696Z" fill="#0F6100"/>
<path d="M105.599 255.351C105.599 255.351 105.049 270.641 104.648 286.735C104.261 302.319 104.317 315.792 104.405 319.476L105.599 255.351Z" fill="#0F6100"/>
<path d="M105.193 298.287C105.193 298.287 104.92 310.173 104.888 322.698C104.857 334.827 105.065 347.559 105.137 350.429L105.193 298.287Z" fill="#0F6100"/>
<path d="M106.569 248.691C106.569 248.691 108.62 230 119.396 204.965C130.172 179.928 127.439 160.244 145.279 151.52C163.119 142.796 173.779 176.523 173.779 176.523C173.779 176.523 159.543 156.676 151.028 159.264C142.515 161.853 133.595 200.861 129.543 210.929C125.489 220.997 110.184 252.289 107.164 279.557L106.569 248.691Z" fill="#327212"/>
<path d="M127.662 211.865C126.557 215.591 124.82 218.931 122.836 222.257C120.334 226.452 117.729 230.416 116.297 235.132C114.946 239.581 114.174 244.156 112.596 248.545C111.136 252.611 109.008 256.305 106.785 259.944L107.164 279.557C110.184 252.289 125.489 220.997 129.542 210.929C131.09 207.084 133.352 199.008 136.028 190.356C134.036 192.849 128.978 207.427 127.662 211.865Z" fill="#013300"/>
<path d="M145.604 151.372C131.837 161.944 128.761 187.761 124.996 196.599C121.717 204.295 112.68 228.373 106.585 249.585L106.787 260.013C112.565 236.932 124.245 214.083 127.795 205.752C132.087 195.675 141.576 156.639 150.555 154.031C155.779 152.515 163.02 158.583 168.169 163.925C163.364 155.496 155.637 146.736 145.604 151.372Z" fill="#5D9F0A"/>
<path d="M185.012 212.493C185.012 212.493 173.869 174.58 170.424 168.252C166.977 161.924 155.825 157.508 151.028 159.264C151.028 159.264 161.628 159.783 166.158 170.851C170.69 181.919 171.441 188.473 175.38 193.939C179.319 199.404 180.078 206.147 185.012 212.493Z" fill="#115400"/>
<path d="M179.694 199.271C178.328 194.129 174.721 189.789 173.391 184.664C170.295 172.735 166.08 162.935 153.844 158.895C152.78 158.869 151.813 158.976 151.028 159.264C151.028 159.264 161.628 159.783 166.158 170.851C170.69 181.919 171.441 188.473 175.38 193.939C178.799 198.681 179.825 204.384 183.258 209.957C181.761 206.489 180.621 202.757 179.694 199.271Z" fill="#013300"/>
<path d="M107.092 275.849C107.092 275.849 104.5 250.117 107.8 241.385C111.1 232.655 105.642 268.328 107.092 275.849Z" fill="#216700"/>
<path d="M109.845 244.739C109.845 244.739 120.377 211.747 123.485 204.445C126.593 197.144 132.073 177.444 134.945 170.795C137.817 164.144 144.265 149.533 153.839 151.177C153.839 151.177 159.644 152.775 162.231 156.717C162.231 156.717 157.325 152.315 153.161 151.729C148.997 151.144 143.72 152.545 136.875 168.819C130.028 185.092 127.783 196.308 125.745 201.991C123.707 207.672 111.501 242.707 109.845 244.739Z" fill="#87B804"/>
<path d="M109.148 247.896C109.148 247.896 120.632 218.908 123.616 210.737C126.6 202.568 136.668 171.189 138.585 166.824C140.504 162.459 144.94 151.865 152.479 152.137C159.281 152.38 163.311 158.86 163.311 158.86C163.311 158.86 158.973 152.713 151.976 152.681C145.212 152.651 141.08 162.988 137.489 172C133.899 181.012 125.903 208.007 122.648 214.82C119.395 221.635 110.809 245.903 109.148 247.896Z" fill="#327212"/>
<path d="M110.736 145.088C110.736 145.088 101.872 127.588 88.8039 114.655C75.7333 101.72 78.272 92.4787 78.272 92.4787C78.272 92.4787 76.024 102.555 87.9573 120.391C93.9373 129.331 101.703 152.861 108.536 157.879C108.536 157.879 111.096 147.579 110.736 145.088Z" fill="#327212"/>
<path d="M80.0416 63.1054C80.0416 63.1054 76.5815 92.6721 80.5375 103.716C80.5375 103.716 72.1096 94.1894 74.1523 80.8467C76.1949 67.5027 80.0416 63.1054 80.0416 63.1054Z" fill="#327212"/>
<path d="M109.436 153.991C109.816 152.251 110.228 150.215 110.492 148.469C108.508 144.571 99.8762 128.309 88.4456 116.996C87.0376 115.604 85.827 114.228 84.7656 112.88C85.8643 114.827 87.143 116.912 88.6323 119.137C94.055 127.243 102.764 146.692 109.436 153.991Z" fill="#5D9F0A"/>
<path d="M84.7654 112.88C82.5187 108.896 81.032 105.503 80.0507 102.689C78.7853 99.8932 78.2933 97.5706 78.1387 95.8492C78.2547 97.9999 78.7333 101.155 80.1453 105.227C81.1626 107.596 82.6427 110.181 84.7654 112.88Z" fill="#5D9F0A"/>
<path d="M75.2282 80.7761C73.1855 94.1187 80.5375 103.716 80.5375 103.716C78.7641 98.7681 76.3642 90.5974 76.5909 82.5387C76.8709 72.6094 80.0415 63.1054 80.0415 63.1054C80.0415 63.1054 77.2708 67.4334 75.2282 80.7761Z" fill="#5D9F0A"/>
<path d="M109.471 149.584C109.471 149.584 96.5508 124.193 87.0161 116.648C87.0161 116.648 96.8441 129.464 98.5401 134.031C100.236 138.599 108.153 151.663 109.301 153.191C109.301 153.191 110.072 150.747 109.471 149.584Z" fill="#87B804"/>
<path d="M79.272 65.0614C79.272 65.0614 74.4066 79.2881 75.3946 88.6708C76.2266 96.5708 79.1173 100.979 79.1173 100.979L79.0706 100.173C78.5506 98.5761 77.2719 95.1614 76.6346 91.9374C76.1333 89.3988 76.0773 86.9228 75.988 84.7401C75.6786 77.1734 79.272 65.0614 79.272 65.0614Z" fill="#87B804"/>
<path d="M77.4336 95.2494C75.9562 91.6694 75.3415 87.9441 75.2762 84.0814C75.1695 77.7161 76.1709 71.1227 78.7002 65.2334C77.3936 67.7041 75.4243 72.5401 74.1523 80.8467C72.1096 94.1894 80.5375 103.716 80.5375 103.716C80.4922 103.587 80.4522 103.444 80.4082 103.311C79.3829 100.631 78.5056 97.8414 77.4336 95.2494Z" fill="#013300"/>
<path d="M110.537 145.001C110.537 145.001 110.852 147.603 110.224 152.965C109.596 158.327 108.485 158.368 108.127 157.219C107.767 156.068 108.02 151.584 110.537 145.001Z" fill="#216700"/>
<path d="M113.124 112.689C117.568 105.531 124.747 97.3173 125.627 94.7039C127.107 90.3106 128.259 75.8679 134.215 66.0439C140.171 56.2199 149.276 42.128 153.192 39.8466C153.192 39.8466 144.821 49.1933 138.515 70.7666C132.628 90.8999 118.609 123.431 112.009 124.093C112.201 120.233 111.805 116.511 113.124 112.689Z" fill="#327212"/>
<path d="M135.74 67.1279C129.784 76.9519 127.991 92.1079 126.511 96.4999C125.707 98.8866 117.479 107.389 112.67 114.299C112.116 116.684 112.103 119.045 112.076 121.437C116.314 118.38 122.51 107.036 128.27 94.8946C132.235 86.5372 132.976 80.1959 135.604 72.8053C139.309 62.3799 144.395 52.7386 148.076 46.6319C151.084 41.6413 153.192 39.8466 153.192 39.8466C149.276 42.1279 141.695 57.3039 135.74 67.1279Z" fill="#5D9F0A"/>
<path d="M144.159 52.8494C144.159 52.8494 135.832 67.732 134.007 71.8494C132.183 75.9654 128.128 94.3907 127.207 95.6934C127.207 95.6934 130.812 88.5107 133.632 76.0894C134.667 71.528 144.159 52.8494 144.159 52.8494Z" fill="#87B804"/>
<path d="M125.735 98.9187C125.735 98.9187 115.171 112.543 112.229 117.153C112.157 117.987 112.121 118.819 112.103 119.653C112.535 119.205 113.164 118.455 114.083 117.268C117.548 112.792 120.052 107.431 120.972 106.175C121.895 104.92 124.932 100.704 125.735 98.9187Z" fill="#87B804"/>
<path d="M138.515 70.7666C141.056 62.0719 143.932 55.3666 146.461 50.4559C143.735 55.6333 137.451 71.6533 134.577 77.3746C132.443 81.6226 130.399 90.6573 128.169 96.5786C127.316 98.8439 123.712 104.699 123.12 105.851C122.013 107.999 121.096 111.328 117.788 115.929C115.761 118.748 112.076 121.437 112.076 121.437C112.06 122.644 112.071 122.865 112.009 124.093C118.609 123.431 132.628 90.8999 138.515 70.7666Z" fill="#013300"/>
<path d="M147.446 48.6027V48.6014L147.394 48.6987L147.446 48.6027Z" fill="#013300"/>
<path d="M113.124 112.689C113.124 112.689 112.367 114.539 111.892 117.004C111.297 120.088 111.455 124.353 112.017 124.301C113.883 124.129 113.124 112.689 113.124 112.689Z" fill="#216700"/>
<path d="M112.592 73.0081C111.175 69.6668 110.217 66.9241 109.959 65.7294C109.525 63.7214 107.999 56.0787 106.103 51.4987C104.207 46.9174 101.291 40.3281 99.9639 39.1788C99.9639 39.1788 102.713 43.6281 104.509 53.4601C106.187 62.6374 110.472 77.6161 112.765 78.1321C112.772 76.4041 112.981 74.7561 112.592 73.0081Z" fill="#327212"/>
<path d="M105.549 51.9307C107.445 56.5121 108.568 62.9054 109.003 64.9148C109.239 66.0054 111.171 70.4988 112.721 73.7414C112.869 74.8241 112.829 75.8774 112.793 76.9441C111.369 75.4401 109.417 70.1721 107.635 64.5641C106.407 60.7054 106.267 57.8521 105.488 54.4667C104.391 49.6947 102.796 45.2228 101.624 42.3761C100.667 40.0508 99.9639 39.1788 99.9639 39.1788C101.291 40.3281 103.652 47.3494 105.549 51.9307Z" fill="#5D9F0A"/>
<path d="M106.065 54.0933C105.505 52.1973 102.875 45.2799 102.875 45.2799C102.875 45.2799 105.841 53.9293 106.116 55.9986C106.472 58.6653 107.247 61.5199 107.964 63.7879C108.385 65.1226 109.796 69.4906 109.972 69.8399C110.269 70.4306 111.044 72.9053 112.17 75.0186C112.469 75.5786 112.674 75.9346 112.817 76.1479C112.826 75.7759 112.831 75.4026 112.821 75.0279C112.473 74.2346 110.609 70.6999 109.155 66.1453C107.523 61.0346 106.292 54.8599 106.065 54.0933Z" fill="#87B804"/>
<path d="M112.787 75.5334C111.724 73.3921 110.44 71.1107 110.097 70.1267C109.912 69.5934 108.423 66.9468 108.168 65.9081C107.919 64.8988 107.159 63.1107 106.932 61.9001C106.585 61.1881 106.236 60.5068 105.877 59.8494C107.908 68.3108 110.955 77.7241 112.765 78.1321L112.767 78.0894C112.707 77.2321 112.68 76.3721 112.787 75.5334Z" fill="#013300"/>
<path d="M101.807 43.2773V43.276L101.823 43.3213L101.807 43.2773Z" fill="#013300"/>
<path d="M112.592 73.008C112.592 73.008 112.821 73.8573 112.941 74.9733C113.091 76.3693 112.955 78.2653 112.759 78.2239C112.111 78.0853 112.592 73.008 112.592 73.008Z" fill="#216700"/>
<path d="M148.417 102.425C148.257 97.9174 147.023 92.1334 147.34 90.7054C147.875 88.3041 151.517 81.5054 151.371 75.3601C151.227 69.2147 150.733 60.2334 149.416 58.0614C149.416 58.0614 150.924 64.7041 147.809 76.2081C144.904 86.9441 142.492 105.617 145.645 107.855C146.677 106.071 147.968 104.523 148.417 102.425Z" fill="#327212"/>
<path d="M150.281 75.396C150.425 81.5414 146.901 88.8481 146.365 91.2481C146.076 92.5521 147.759 98.7747 148.176 103.279C147.759 104.509 147.075 105.568 146.388 106.647C145.135 104.033 145.312 97.1374 145.944 90.0121C146.379 85.1094 147.859 82.0547 148.689 77.9747C149.86 72.2227 150.103 66.4147 150.024 62.6014C149.959 59.4841 149.416 58.0614 149.416 58.0614C150.733 60.2334 150.137 69.2507 150.281 75.396Z" fill="#5D9F0A"/>
<path d="M150.191 66.5333C150.191 66.5333 150.057 75.6386 149.778 78.0173C149.5 80.3946 146.164 89.8293 146.249 90.6826C146.249 90.6826 146.524 86.4093 148.728 80.0253C149.537 77.6799 150.191 66.5333 150.191 66.5333Z" fill="#87B804"/>
<path d="M146.052 92.5574C146.052 92.5574 147.421 101.757 147.564 104.685C147.357 105.079 147.132 105.461 146.896 105.84C146.808 105.513 146.709 104.992 146.591 104.192C146.143 101.171 146.443 98.0361 146.343 97.2041C146.244 96.3708 145.936 93.5921 146.052 92.5574Z" fill="#87B804"/>
<path d="M147.809 76.2081C149.065 71.5721 149.569 67.7267 149.724 64.7867C149.591 67.9041 148.089 76.9174 147.872 80.3214C147.711 82.8494 146.104 87.4907 145.503 90.7947C145.272 92.0587 145.387 95.7374 145.351 96.4267C145.283 97.7134 144.773 99.4721 145.104 102.503C145.307 104.36 146.388 106.647 146.388 106.647C146.043 107.192 145.973 107.287 145.645 107.855C142.492 105.617 144.904 86.9441 147.809 76.2081Z" fill="#013300"/>
<path d="M149.767 63.668V63.6667L149.766 63.7253L149.767 63.668Z" fill="#013300"/>
<path d="M145.591 103.301C145.591 103.301 151.221 93.3334 158.34 86.6734C165.457 80.0134 165.156 73.9668 165.156 73.9668C165.156 73.9668 165.251 80.5028 158.195 90.3481C154.66 95.2828 148.972 109.136 145.412 111.528C145.412 111.528 145.197 104.817 145.591 103.301Z" fill="#327212"/>
<path d="M167.057 55.4308C167.057 55.4308 165.907 74.2708 163.095 80.7388C163.095 80.7388 167.795 75.7028 168.095 67.1481C168.396 58.5948 167.057 55.4308 167.057 55.4308Z" fill="#327212"/>
<path d="M145.361 109.003C145.349 107.873 145.35 106.559 145.39 105.44C146.649 103.22 152.061 94 158.286 88.1747C159.052 87.4574 159.729 86.7307 160.333 86.004C159.656 87.1 158.885 88.2627 158.004 89.492C154.8 93.9653 149.058 105.168 145.361 109.003Z" fill="#5D9F0A"/>
<path d="M160.333 86.0039C161.72 83.7586 162.707 81.8012 163.411 80.1506C164.242 78.5412 164.679 77.1439 164.908 76.0852C164.656 77.4172 164.148 79.3332 163.135 81.7239C162.455 83.0946 161.545 84.5479 160.333 86.0039Z" fill="#5D9F0A"/>
<path d="M167.615 66.9881C167.312 75.5428 163.095 80.7388 163.095 80.7388C164.355 77.8401 166.195 72.9988 166.833 67.9414C167.62 61.7094 167.057 55.4308 167.057 55.4308C167.057 55.4308 167.916 58.4334 167.615 66.9881Z" fill="#5D9F0A"/>
<path d="M145.751 106.248C145.751 106.248 153.948 91.7907 158.967 88.112C158.967 88.112 153.329 95.0507 152.14 97.7187C150.951 100.388 146.157 107.688 145.496 108.517C145.496 108.517 145.371 106.907 145.751 106.248Z" fill="#87B804"/>
<path d="M167.225 56.7361C167.225 56.7361 168.124 66.1481 166.812 71.9001C165.708 76.7441 163.991 79.1841 163.991 79.1841L164.085 78.6854C164.471 77.7441 165.363 75.7508 165.949 73.8054C166.411 72.2748 166.663 70.7348 166.905 69.3814C167.741 64.6894 167.225 56.7361 167.225 56.7361Z" fill="#87B804"/>
<path d="M165.281 75.7881C166.281 73.7134 166.904 71.4521 167.288 69.0468C167.921 65.0841 168.076 60.8574 167.469 56.9054C167.835 58.5894 168.283 61.8241 168.095 67.1481C167.795 75.7028 163.095 80.7388 163.095 80.7388L163.192 80.5001C163.903 78.9374 164.557 77.2908 165.281 75.7881Z" fill="#013300"/>
<path d="M145.689 103.269C145.689 103.269 145.307 104.86 145.099 108.276C144.889 111.693 145.389 111.84 145.659 111.16C145.927 110.48 146.225 107.653 145.689 103.269Z" fill="#216700"/>
<path d="M57.1682 76.3466C57.3575 78.1786 58.1615 79.5959 58.7722 81.1973L58.9415 81.0346C58.9335 80.6013 58.9202 80.1706 58.9202 79.7506C58.9189 79.3053 58.9722 78.8959 59.0682 78.5199C59.7402 75.8839 60.3522 73.2346 60.3402 70.5133C60.3175 65.0586 59.8256 58.6173 59.1296 53.8866C57.6429 43.7986 59.0815 38.2013 59.0815 38.2013C58.0389 39.9746 57.1682 47.6493 56.7068 52.9133C56.2455 58.1786 57.2589 66.0866 57.4895 68.1839C57.6269 69.4319 57.5428 72.4893 57.1682 76.3466Z" fill="#327212"/>
<path d="M57.4615 53.0199C57.0002 58.2839 58.0148 64.8212 58.2455 66.9172C58.3695 68.0559 57.8388 73.2586 57.2842 77.0959C57.5015 78.1812 57.9149 79.1373 58.3269 80.1106C59.3522 77.9533 59.6335 72.0226 59.6135 65.8639C59.5989 61.6253 58.7509 58.9013 58.4162 55.3426C57.9402 50.3253 58.1122 45.3239 58.3922 42.0559C58.6202 39.3852 59.0815 38.2013 59.0815 38.2013C58.0388 39.9746 57.9229 47.7546 57.4615 53.0199Z" fill="#5D9F0A"/>
<path d="M57.6562 55.3054C57.6029 53.2441 58.0456 45.42 58.0456 45.42C58.0456 45.42 57.8429 55.0307 58.2669 57.1001C58.8136 59.7654 58.9709 62.8294 58.9829 65.3174C58.9896 66.7814 58.9829 71.5894 58.9149 72.0081C58.7962 72.7161 58.8189 75.4267 58.3309 77.9894C58.2016 78.668 58.1029 79.1094 58.0229 79.384C57.8816 79.0427 57.7483 78.6974 57.627 78.3454C57.727 77.4227 58.5203 73.1467 58.5109 68.1427C58.5003 62.5267 57.6789 56.1361 57.6562 55.3054Z" fill="#87B804"/>
<path d="M58.772 81.1973L58.9413 81.0106C58.9333 80.5853 58.92 80.1639 58.92 79.7506C58.9186 79.3039 58.972 78.8906 59.0693 78.5133C59.736 75.9173 60.3453 73.3026 60.3373 70.6213C60.3279 67.4293 60.156 63.8906 59.8746 60.548C59.716 61.3493 59.572 62.1693 59.444 63.0146C59.6213 64.2586 59.4186 66.3266 59.5013 67.3946C59.5866 68.4959 58.8919 71.7479 58.8759 72.3413C58.8479 73.4373 58.2493 76.2426 57.8413 78.7973C58.2506 79.5173 58.5226 80.3319 58.756 81.1586L58.772 81.1973Z" fill="#013300"/>
<path d="M57.168 76.3468C57.168 76.3468 57.2147 77.2587 57.4747 78.3587C57.8027 79.7348 58.6133 81.4228 58.812 81.2801C59.4706 80.8054 57.168 76.3468 57.168 76.3468Z" fill="#216700"/>
<path d="M58.4132 84.9574C58.9772 83.6827 58.9692 82.244 58.9372 80.844C57.8572 76.9534 55.9079 72.3787 55.8266 71.0654C55.6866 68.796 56.7412 61.8054 55.3479 56.3907C53.9532 50.9774 51.7239 43.14 50.3652 41.5614C50.3652 41.5614 52.7972 47.056 53.0919 58.0814C53.3465 67.5307 55.2972 82.7974 57.6465 86.124C57.9479 85.7734 58.2185 85.396 58.4132 84.9574Z" fill="#327212"/>
<path d="M54.7266 70.8199C55.7412 76.9719 56.9906 82.8266 58.3186 85.1106L58.4132 84.9572C58.8625 83.9426 58.9479 82.8226 58.9492 81.7026C57.6879 77.8586 55.3505 73.0053 55.2758 71.8053C55.1358 69.5346 56.0039 62.1239 54.6105 56.7106C53.2159 51.2973 51.7239 43.1399 50.3652 41.5612C50.3652 41.5612 51.0359 42.6799 51.7385 45.4279C52.5959 48.7906 53.6532 54.0066 54.0652 59.4172C54.3586 63.2546 53.9906 66.3546 54.7266 70.8199Z" fill="#5D9F0A"/>
<path d="M52.6812 48.8719C52.6812 48.8719 54.5092 56.9853 54.8185 59.1679C55.1292 61.3519 54.8385 70.5986 55.0772 71.3333C55.0772 71.3333 54.3625 67.4706 54.5252 61.2252C54.5838 58.9319 52.6812 48.8719 52.6812 48.8719Z" fill="#87B804"/>
<path d="M58.1561 83.228C58.3508 83.7547 58.5001 84.132 58.6174 84.4014C58.7401 84.0134 58.8161 83.6134 58.8655 83.2067C58.0735 80.4734 55.3374 73.0494 55.3374 73.0494C55.4747 73.9974 56.2707 76.3814 56.5147 77.0934C56.7587 77.8054 57.2148 80.6654 58.1561 83.228Z" fill="#87B804"/>
<path d="M57.6468 86.124C57.9068 85.8214 58.1295 85.488 58.3108 85.1227C57.9348 84.5414 57.1748 83.2934 56.7855 82.1214C55.9202 79.52 55.8975 77.8254 55.6735 76.6667C55.5521 76.0454 54.6988 72.812 54.5895 71.6307C54.3055 68.54 54.4242 64 54.0028 61.7147C53.6388 59.7427 53.1482 55.5907 52.6948 52.124C52.8882 53.888 53.0335 55.8734 53.0922 58.0814C53.3468 67.5307 55.2975 82.7974 57.6468 86.124Z" fill="#013300"/>
<path d="M51.7866 46.4426L51.788 46.4413L51.7987 46.4946L51.7866 46.4426Z" fill="#013300"/>
<path d="M114 42.42C114.807 38.252 115.213 34.8987 115.191 33.488C115.152 31.1187 114.849 22.1441 115.897 16.4441C116.944 10.7454 118.689 2.48406 120.016 0.777395C120.016 0.777395 117.861 6.60939 118.46 18.1014C119.019 28.8281 117.991 46.84 115.267 48.1614C114.759 46.2467 114.02 44.488 114 42.42Z" fill="#327212"/>
<path d="M116.715 16.744C115.668 22.444 116.113 29.9026 116.151 32.2733C116.172 33.5586 115.055 39.1733 114.051 43.276C114.18 44.5253 114.535 45.6799 114.889 46.8533C116.236 44.7186 117.153 38.24 117.763 31.4386C118.184 26.756 117.531 23.5466 117.527 19.5373C117.519 13.8853 118.221 8.40528 118.863 4.86528C119.388 1.97195 120.016 0.777293 120.016 0.777293C118.689 2.48396 117.763 11.044 116.715 16.744Z" fill="#5D9F0A"/>
<path d="M116.694 19.312C116.848 17.0253 118.137 8.49595 118.137 8.49595C118.137 8.49595 116.928 19.056 117.184 21.44C117.51 24.5146 117.368 27.9333 117.126 30.6839C116.984 32.3013 116.484 37.6079 116.364 38.0519C116.161 38.8053 115.91 41.8026 115.11 44.5133C114.898 45.232 114.745 45.6946 114.628 45.9773C114.508 45.5666 114.396 45.1546 114.3 44.7373C114.504 43.7426 115.814 39.2133 116.317 33.6879C116.881 27.4866 116.634 20.2346 116.694 19.312Z" fill="#87B804"/>
<path d="M114.488 45.2867C115.198 42.564 116.146 39.6134 116.29 38.4107C116.367 37.7587 117.467 34.3374 117.484 33.1014C117.503 31.9014 117.938 29.6694 117.871 28.252C118.098 27.3507 118.34 26.4801 118.596 25.6347C118.507 35.6827 117.418 47.1174 115.267 48.1614L115.254 48.1134C115.082 47.1441 114.866 46.18 114.488 45.2867Z" fill="#013300"/>
<path d="M118.895 5.92407V5.92274L118.887 5.97876L118.895 5.92407Z" fill="#013300"/>
<path d="M114 42.4201C114 42.4201 113.959 43.4388 114.132 44.7161C114.349 46.3121 115.069 48.3708 115.303 48.2614C116.075 47.8948 114 42.4201 114 42.4201Z" fill="#216700"/>
<path d="M115.488 47.3973C114.697 43.6026 112.945 38.8587 112.957 37.612C112.978 35.5173 114.562 29.328 113.534 24.1467C112.508 18.9653 110.805 11.428 109.537 9.75064C109.537 9.75064 111.614 15.1866 111.116 25.2933C110.649 34.7253 111.732 50.8106 114.321 52.324C114.792 50.6906 115.481 49.2253 115.488 47.3973Z" fill="#327212"/>
<path d="M112.76 24.3079C113.788 29.4892 112.364 36.0946 112.342 38.1892C112.33 39.3279 114.469 44.3879 115.444 48.1479C115.33 49.2386 115 50.2172 114.672 51.2119C113.382 49.1532 112.473 43.2986 111.856 37.1946C111.429 32.9946 112.028 30.2333 112.009 26.6826C111.982 21.6746 111.284 16.7333 110.654 13.5159C110.14 10.8879 109.537 9.75056 109.537 9.75056C110.805 11.4279 111.734 19.1279 112.76 24.3079Z" fill="#5D9F0A"/>
<path d="M111.364 16.8228C111.364 16.8228 112.639 24.5415 112.796 26.5868C112.954 28.6321 111.984 37.0135 112.175 37.7241C112.175 37.7241 111.728 34.0775 112.347 28.4108C112.574 26.3308 111.364 16.8228 111.364 16.8228Z" fill="#87B804"/>
<path d="M112.314 39.3346C112.314 39.3346 114.676 46.9532 115.217 49.4119C115.129 49.7706 115.025 50.1212 114.914 50.4692C114.802 50.2026 114.652 49.7746 114.448 49.1106C113.674 46.6106 113.417 43.9226 113.221 43.2306C113.025 42.5386 112.388 40.2239 112.314 39.3346Z" fill="#87B804"/>
<path d="M111.116 25.2933C111.316 21.22 111.099 17.9067 110.768 15.4013C111.141 18.0547 111.421 25.86 111.779 28.7653C112.043 30.9227 111.591 35.044 111.657 37.9107C111.683 39.008 112.316 42.1053 112.395 42.6933C112.539 43.7893 112.439 45.3386 113.132 47.8626C113.555 49.408 114.672 51.212 114.672 51.212C114.507 51.7147 114.472 51.8053 114.321 52.324C111.732 50.8106 110.649 34.7253 111.116 25.2933Z" fill="#013300"/>
<path d="M114.201 47.5933C114.201 47.5933 117.232 36.3853 122.135 28.3986C127.035 20.4106 125.689 14.1626 125.689 14.1626C125.689 14.1626 126.945 20.9506 122.672 32.2439C120.529 37.9026 118.151 53.164 115.528 56.1826C115.528 56.1826 114.137 49.2293 114.201 47.5933Z" fill="#327212"/>
<path d="M126.98 6.63202C126.843 5.67202 126.699 4.79335 126.555 3.96535C126.396 5.43468 126.216 6.90402 126.014 8.36802C125.97 8.68535 125.828 10.124 125.806 10.9267C125.766 12.4507 125.731 14.6014 125.699 15.4707C125.608 17.9947 125.395 20.0573 125.14 21.5173C125.14 21.5173 128.262 15.5787 126.98 6.63202Z" fill="#327212"/>
<path d="M115.031 53.5613C114.817 52.3879 114.581 51.0186 114.415 49.8493C115.093 47.352 118.072 36.9546 122.359 29.968C122.887 29.1093 123.335 28.2506 123.723 27.4053C123.34 28.6466 122.888 29.972 122.355 31.3813C120.413 36.512 117.509 49.0213 115.031 53.5613Z" fill="#5D9F0A"/>
<path d="M123.723 27.4053C124.507 24.8639 124.999 22.6799 125.305 20.8573C125.728 19.0599 125.852 17.5413 125.857 16.4053C125.881 17.8279 125.792 19.8986 125.352 22.5373C125.016 24.0626 124.499 25.7106 123.723 27.4053Z" fill="#5D9F0A"/>
<path d="M126.537 6.5361C126.485 6.16677 126.432 5.82277 126.38 5.47344C126.279 6.31611 126.173 7.15743 126.056 8.0001C126.365 13.2361 125.687 18.3854 125.14 21.5161C125.14 21.5161 127.82 15.4828 126.537 6.5361Z" fill="#5D9F0A"/>
<path d="M114.869 50.636C114.869 50.636 119.291 34.3747 122.931 29.804C122.931 29.804 119.348 37.86 118.808 40.812C118.269 43.7667 115.476 52.0747 115.059 53.0347C115.059 53.0347 114.663 51.3787 114.869 50.636Z" fill="#87B804"/>
<path d="M126.214 6.89604C126.29 7.68138 126.344 8.43871 126.361 9.13205C126.398 10.5774 126.458 12.2174 126.338 13.8787C126.186 15.9881 125.78 18.196 125.621 19.232L125.629 19.7654C125.629 19.7654 126.661 16.972 126.736 11.7667C126.76 10.0334 126.581 8.02672 126.314 6.03472C126.278 6.32138 126.252 6.60938 126.214 6.89604Z" fill="#87B804"/>
<path d="M114.279 47.5466C114.279 47.5466 114.239 49.2559 114.675 52.8439C115.111 56.4306 115.567 56.5093 115.675 55.7613C115.783 55.0146 115.528 52.0279 114.279 47.5466Z" fill="#216700"/>
<path d="M19.6013 374.996C21.5773 374.584 23.636 374.644 25.5934 374.151C32.5974 372.389 36.2787 364.324 42.948 361.555C47.2427 359.771 52.548 360.29 56.084 357.271C57.46 356.096 58.4054 354.5 59.6854 353.224C63.552 349.369 69.5814 349.095 74.8187 347.556C83.8347 344.908 91.5294 337.988 100.899 337.284C106.491 336.863 112.639 338.598 117.707 340.903C122.339 343.008 125.465 347.217 130.005 349.429C134.675 351.705 140.228 351.202 145.147 352.864C154.18 355.921 159.955 365.822 169.303 367.704C171.367 368.121 173.52 368.114 175.524 368.756C180.857 370.465 183.887 376.248 188.945 378.647C191.56 379.886 210.463 383.352 203.991 390.427C203.261 391.225 202.115 391.455 201.049 391.641C197.197 392.312 192.836 392.535 189.131 393.784C186.475 394.68 184.469 396.032 181.62 396.557C177.631 397.291 173.539 397.486 169.508 397.88C165.632 398.257 161.289 399.725 157.472 399.725C154.077 400.589 150.756 401.857 147.268 402.184C145.06 402.391 142.839 402.214 140.619 402.037C138.115 401.837 135.612 401.639 133.135 401.991C128.803 402.607 124.781 404.879 120.411 405.092C119.067 405.157 117.725 405.025 116.384 404.893C115.156 404.772 113.927 404.651 112.696 404.681C109.14 404.768 105.743 406.108 102.225 406.629C97.4493 407.336 92.5947 406.519 87.836 405.701C81.728 404.653 75.6187 403.605 69.5093 402.557C62.228 401.308 54.828 400.691 47.6267 399.44C44.712 398.933 41.7187 399.116 38.7307 399.3C34.872 399.536 31.02 399.772 27.3507 398.524C23.452 397.2 20.208 394.146 16.1533 393.434C14.4987 393.144 12.8173 393.267 11.1333 393.388C9.89335 393.479 8.64933 393.568 7.41466 393.493C4.49866 393.315 1.23736 391.691 0.849365 388.796C0.600032 386.925 1.68003 385.076 3.15203 383.897C4.62537 382.717 6.44805 382.08 8.23205 381.464C12.5854 379.961 15.0453 375.949 19.6013 374.996Z" fill="#614D39"/>
<path d="M133.135 401.991C133.196 401.981 133.257 401.974 133.319 401.965C134.001 401.876 134.685 401.827 135.372 401.808C135.375 401.812 135.377 401.815 135.38 401.819C134.631 401.841 133.88 401.886 133.135 401.991Z" fill="#C4BCB5"/>
<path d="M104.083 382.644C103.631 382.644 103.168 382.621 102.694 382.574C93.4282 381.621 85.8762 374.083 77.0602 373.569C77.1429 373.541 77.2229 373.507 77.3002 373.465C77.7362 373.226 78.0069 372.763 78.1642 372.291C78.9189 370.029 77.0348 367.307 74.6535 367.217L74.9362 367.207C74.7869 367.196 74.6375 367.189 74.4868 367.189C73.1735 367.189 71.8615 367.626 70.8135 368.42C70.3535 368.769 69.9375 369.188 69.4175 369.441C68.5588 369.863 67.5309 369.777 66.6335 370.112C65.7375 370.448 64.9935 371.617 65.6309 372.333C65.8549 372.586 66.1908 372.702 66.5122 372.808C68.2708 373.395 70.0615 373.986 71.9029 374.126C71.7922 374.156 71.6802 374.188 71.5682 374.222C67.7562 375.377 64.2962 376.407 60.8482 376.407C59.6068 376.407 58.3669 376.274 57.1109 375.964C58.0015 375.792 58.8202 375.275 59.2335 374.462C59.6029 373.733 59.7882 371.774 58.8602 371.384C58.6576 371.3 58.4389 371.275 58.2189 371.275C58.0922 371.275 57.9655 371.283 57.8402 371.293C57.6455 371.309 57.4482 371.331 57.2522 371.331C57.1042 371.331 56.9562 371.319 56.8109 371.284L56.6722 371.243C56.1655 371.068 55.7668 370.648 55.2842 370.403C54.8575 370.186 54.4349 370.086 54.0255 370.086C52.9122 370.086 51.9122 370.819 51.3015 371.863C51.1055 372.196 50.9895 372.612 50.9855 373.005C46.5882 369.748 43.9855 365 40.1428 363.123C35.2135 366.532 31.6989 372.403 25.9615 374.052C32.7282 372.107 36.3962 364.276 42.9482 361.555C47.2428 359.771 52.5482 360.29 56.0842 357.271C57.4602 356.096 58.4055 354.5 59.6855 353.224C59.6949 353.214 59.7055 353.204 59.7148 353.195C60.2148 352.702 60.7508 352.272 61.3148 351.886C62.9428 351.448 64.7335 351.083 66.4535 351.083C67.9868 351.083 69.4642 351.374 70.7162 352.157C73.4135 353.845 73.6549 357.469 75.1082 359.936C76.4255 362.175 78.1642 363.796 80.1962 364.927C80.1656 365.047 80.1629 365.172 80.2002 365.302C80.2735 365.556 80.4869 365.741 80.6882 365.912C81.9989 367.016 83.4962 368.181 85.1788 368.181C85.2842 368.181 85.3895 368.177 85.4949 368.168C86.2895 368.097 87.2175 367.632 87.7842 366.956C89.5455 366.895 92.8522 366.532 94.5322 366.486C95.4002 367.917 96.4269 369.193 97.6162 370.309L97.8148 370.612C100.92 374.436 104.959 375.588 109.427 376.991C111.575 377.665 113.451 378.495 115.152 379.468C114.186 379.8 113.236 380.188 112.28 380.576C109.731 381.61 107.14 382.644 104.083 382.644ZM94.4682 374.262C93.8708 374.262 93.2948 374.424 92.6815 374.752C91.5682 375.345 90.9162 376.868 91.5775 377.941C91.9789 378.588 92.9362 379.045 93.7322 379.045C93.8069 379.045 93.8802 379.041 93.9508 379.033C94.9335 378.919 95.6122 378.181 96.6095 378.181C96.7588 378.181 96.9162 378.197 97.0842 378.236C97.5175 378.336 97.9109 378.557 98.3269 378.712C98.5762 378.804 98.8455 378.871 99.1095 378.871C99.2868 378.871 99.4602 378.841 99.6242 378.768C100.139 378.538 100.396 377.941 100.459 377.379C100.55 376.564 100.324 375.726 99.8788 375.036C99.6122 374.624 99.2216 374.239 98.7322 374.202C98.7069 374.2 98.6815 374.198 98.6562 374.198C98.0268 374.198 97.4855 374.757 96.8482 374.779C96.8335 374.779 96.8188 374.78 96.8042 374.78C96.6535 374.78 96.5082 374.75 96.3629 374.708C96.1829 374.655 96.0055 374.583 95.8282 374.519C95.3482 374.348 94.9015 374.262 94.4682 374.262ZM64.9495 357.721C64.4615 357.721 64.0082 357.859 63.6802 358.207C63.5589 358.335 63.4748 358.489 63.3868 358.644C63.3148 358.771 63.2428 358.897 63.1482 359.008C62.7428 359.483 62.0949 359.528 61.5469 359.736C60.9295 359.972 60.5535 360.451 59.9562 360.741C58.5682 361.419 57.0655 361.896 55.8002 362.804C55.3735 363.11 54.9602 363.502 54.8535 364.016C54.6588 364.94 55.6122 365.791 56.5562 365.832C56.5922 365.833 56.6282 365.835 56.6629 365.835C57.5642 365.835 58.4002 365.333 59.1335 364.798C59.8975 364.243 60.6522 363.616 61.5695 363.389C61.8709 363.315 62.1816 363.286 62.4962 363.286C63.0762 363.286 63.6722 363.386 64.2629 363.486C64.8522 363.586 65.4375 363.686 65.9949 363.686C66.5762 363.686 67.1296 363.577 67.6296 363.244C69.1042 362.257 68.8548 359.786 67.4762 358.668C66.9055 358.204 65.8655 357.721 64.9495 357.721ZM54.0495 374.857C53.6895 374.684 53.3282 374.496 52.9642 374.29C53.1469 374.296 53.3269 374.322 53.4936 374.398C53.7149 374.5 53.8869 374.674 54.0495 374.857ZM25.6855 374.128C25.6935 374.126 25.7015 374.123 25.7082 374.121C25.7015 374.124 25.6935 374.126 25.6855 374.128ZM25.8002 374.097C25.8122 374.093 25.8255 374.089 25.8389 374.086C25.8255 374.091 25.8122 374.093 25.8002 374.097Z" fill="#4A3928"/>
<path d="M169.508 397.88C173.539 397.486 177.631 397.291 181.62 396.557C184.469 396.032 186.475 394.68 189.131 393.784C192.836 392.535 197.197 392.312 201.049 391.641C202.115 391.455 203.261 391.226 203.991 390.427C210.463 383.352 191.56 379.886 188.945 378.647C191.561 379.886 210.463 383.352 203.991 390.427C203.261 391.226 202.115 391.455 201.049 391.641C197.197 392.312 192.836 392.535 189.131 393.785C186.475 394.68 184.469 396.032 181.62 396.557C177.631 397.291 173.54 397.486 169.508 397.88ZM188.8 378.577C188.787 378.571 188.773 378.564 188.761 378.559C188.775 378.564 188.787 378.571 188.8 378.577ZM188.539 378.445C188.536 378.444 188.535 378.443 188.531 378.441C188.533 378.443 188.536 378.444 188.539 378.445Z" fill="#BAB1A8"/>
<path d="M145.136 402.277C145.131 402.277 145.127 402.277 145.121 402.277C143.808 402.276 142.49 402.184 141.173 402.081C140.988 402.067 140.804 402.052 140.619 402.038C139.113 401.917 137.608 401.797 136.109 401.797C136.073 401.797 136.038 401.797 136.004 401.797C135.793 401.798 135.583 401.802 135.372 401.808C132.353 397.997 130.109 393.483 126.789 389.831C122.901 385.555 119.623 382.02 115.152 379.468C116.764 378.912 118.421 378.508 120.229 378.508C121.327 378.508 122.478 378.656 123.709 379.01C130.317 380.91 136.224 384.715 143.292 384.715C143.377 384.715 143.462 384.715 143.548 384.714C143.753 384.71 143.957 384.705 144.161 384.696C144.876 385.125 145.672 385.42 146.497 385.543C146.662 385.568 146.835 385.58 147.008 385.58C148.336 385.58 149.798 384.868 149.85 383.647C150.652 383.377 151.435 383.055 152.193 382.681C152.2 382.677 152.208 382.675 152.214 382.671C152.221 382.668 152.228 382.664 152.234 382.662C152.252 382.652 152.269 382.643 152.288 382.635C156.404 380.573 158.269 379.804 162.967 378.764C164.252 378.48 165.323 378.044 166.357 377.538C166.772 377.748 167.191 377.956 167.624 378.092C168.017 378.217 168.429 378.277 168.841 378.277C170.172 378.277 171.509 377.655 172.308 376.583C172.683 376.08 172.949 375.464 172.881 374.841C172.873 374.762 172.86 374.684 172.842 374.609C175.748 373.843 178.337 373.969 181.581 373.103L181.87 373.014C183.976 374.992 186.006 377.127 188.53 378.441C188.534 378.443 188.536 378.444 188.539 378.445C188.555 378.453 188.57 378.462 188.586 378.469C188.592 378.474 188.597 378.476 188.604 378.479C188.617 378.486 188.629 378.492 188.642 378.498C188.652 378.503 188.66 378.508 188.668 378.512C188.68 378.517 188.69 378.522 188.701 378.528C188.712 378.533 188.722 378.539 188.733 378.544C188.742 378.55 188.752 378.553 188.761 378.559C188.773 378.564 188.786 378.571 188.8 378.577C188.806 378.581 188.815 378.584 188.821 378.588C188.837 378.596 188.853 378.603 188.868 378.61C188.873 378.614 188.879 378.615 188.883 378.617C188.904 378.628 188.924 378.637 188.945 378.647C191.56 379.886 210.463 383.352 203.991 390.427C203.261 391.226 202.115 391.455 201.049 391.641C197.197 392.312 192.836 392.535 189.13 393.784C186.474 394.68 184.469 396.032 181.62 396.557C177.63 397.291 173.539 397.486 169.508 397.88C165.632 398.257 161.289 399.726 157.472 399.726C154.104 400.581 150.808 401.839 147.349 402.176C147.323 402.179 147.296 402.181 147.268 402.184C147.236 402.186 147.204 402.189 147.172 402.192C146.497 402.252 145.821 402.276 145.144 402.277C145.141 402.277 145.139 402.277 145.136 402.277ZM146.594 388.661C146.22 388.661 145.847 388.685 145.48 388.728C143.488 388.959 142.252 390.103 143.664 391.735C144.942 393.212 147.1 393.41 148.905 393.479C149.016 393.483 149.129 393.488 149.241 393.488C149.48 393.488 149.716 393.469 149.942 393.395C151.145 392.998 151.281 391.189 150.475 390.214C149.684 389.252 148.571 388.825 147.4 388.702C147.133 388.673 146.864 388.661 146.594 388.661ZM168.578 383.407C167.529 383.417 166.385 383.615 165.696 384.404C165.005 385.191 165.164 386.709 166.172 386.998C166.595 387.121 167.061 387.007 167.484 387.132C167.901 387.256 168.214 387.592 168.584 387.821C168.917 388.028 169.294 388.123 169.676 388.123C170.838 388.123 172.041 387.252 172.161 386.063C172.296 384.722 171 383.505 169.697 383.505C169.464 383.505 169.232 383.544 169.006 383.628L168.578 383.407ZM183.922 381.386C183.244 381.386 182.433 381.724 182.224 382.403C181.984 383.171 182.758 384.098 183.376 384.473C184.225 384.988 185.052 385.741 186.048 385.741C186.154 385.741 186.262 385.732 186.373 385.714C187.174 385.581 187.872 385.244 188.68 385.105C189.061 385.04 189.447 384.898 189.705 384.614C189.965 384.327 190.061 383.869 189.852 383.545L189.572 383.252C189.023 382.78 188.473 382.305 187.924 381.832C187.771 381.7 187.615 381.567 187.427 381.491C187.271 381.429 187.104 381.412 186.936 381.412C186.912 381.412 186.888 381.412 186.865 381.412L186.596 381.429C186.271 381.455 185.961 381.465 185.657 381.465C185.129 381.465 184.619 381.433 184.069 381.392C184.021 381.388 183.972 381.386 183.922 381.386Z" fill="#473526"/>
<path d="M25.748 374.11C25.752 374.109 25.7574 374.108 25.7628 374.107C25.7574 374.108 25.7534 374.109 25.748 374.11Z" fill="#BAB1A8"/>
<path d="M119.817 405.109C119.992 405.108 120.168 405.103 120.343 405.096C120.168 405.103 119.993 405.108 119.817 405.109ZM0.813477 388.25C0.81481 386.571 1.82415 384.96 3.15215 383.897C1.82415 384.962 0.81481 386.571 0.813477 388.25ZM19.6014 374.996C21.5468 374.588 23.5708 374.641 25.5028 374.174C23.5708 374.641 21.5468 374.589 19.6014 374.996Z" fill="#8F8277"/>
<path d="M98.3761 406.898C98.3694 406.898 98.3628 406.898 98.3561 406.898C94.8428 406.896 91.3148 406.298 87.8361 405.701C81.7281 404.653 75.6188 403.605 69.5094 402.557C62.2281 401.308 54.8282 400.691 47.6268 399.44C46.2122 399.195 44.7814 399.11 43.3401 399.11C41.8108 399.11 40.2695 399.205 38.7308 399.3C38.6508 399.304 38.5721 399.309 38.4921 399.313C37.0321 399.403 35.5735 399.488 34.1255 399.488C31.8268 399.488 29.5561 399.275 27.3508 398.524C23.4521 397.2 20.2081 394.146 16.1534 393.434C16.1308 393.431 16.1081 393.427 16.0841 393.422C16.0694 393.42 16.0534 393.417 16.0374 393.415C15.3268 393.298 14.6108 393.256 13.8935 393.256C13.8868 393.256 13.8815 393.256 13.8748 393.256C13.8708 393.256 13.8655 393.256 13.8615 393.256C13.1455 393.256 12.4281 393.297 11.7081 393.347C11.5175 393.36 11.3255 393.375 11.1335 393.388C10.2241 393.455 9.31344 393.52 8.40677 393.521C8.39877 393.521 8.39211 393.521 8.38411 393.521C8.38278 393.521 8.38014 393.521 8.37747 393.521C8.08814 393.521 7.79881 393.515 7.51081 393.498C7.47881 393.497 7.44678 393.496 7.41478 393.493C4.49878 393.315 1.23748 391.691 0.849479 388.796C0.848146 388.788 0.848143 388.781 0.84681 388.774C0.824143 388.598 0.813477 388.424 0.813477 388.25C0.81481 386.571 1.82415 384.962 3.15215 383.897C4.62681 382.717 6.44816 382.08 8.23216 381.464C12.5855 379.962 15.0454 375.95 19.6014 374.996C21.5468 374.589 23.5708 374.641 25.5028 374.174C25.5321 374.167 25.5628 374.159 25.5935 374.151C25.6068 374.148 25.6188 374.144 25.6322 374.141C25.6362 374.14 25.6401 374.139 25.6454 374.138C25.6534 374.136 25.6614 374.133 25.6708 374.132C25.6748 374.131 25.6801 374.128 25.6855 374.128C25.6935 374.126 25.7015 374.124 25.7081 374.121C25.7135 374.12 25.7188 374.119 25.7242 374.117C25.7322 374.115 25.7401 374.114 25.7481 374.11C25.7534 374.109 25.7575 374.108 25.7628 374.107C25.7722 374.104 25.7815 374.101 25.7908 374.098C25.7935 374.098 25.7975 374.097 25.8001 374.097C25.8121 374.093 25.8255 374.091 25.8388 374.086C25.8521 374.083 25.8654 374.079 25.8788 374.076C25.8801 374.075 25.8815 374.075 25.8828 374.075C25.8935 374.071 25.9055 374.068 25.9161 374.065C25.9188 374.064 25.9215 374.063 25.9242 374.063C25.9362 374.059 25.9468 374.056 25.9588 374.052C25.9588 374.052 25.9601 374.052 25.9615 374.052C31.6988 372.403 35.2134 366.532 40.1428 363.123C43.9854 365 46.5881 369.748 50.9855 373.005C50.9815 373.519 51.1708 373.996 51.6322 374.2C51.8255 374.286 52.0348 374.307 52.2481 374.307C52.3508 374.307 52.4548 374.303 52.5588 374.297C52.6628 374.293 52.7668 374.288 52.8695 374.288C52.9015 374.288 52.9321 374.288 52.9641 374.29C53.3281 374.496 53.6895 374.684 54.0495 374.857C54.1428 374.963 54.2335 375.072 54.3295 375.174C54.8775 375.753 55.6601 376.027 56.4521 376.027C56.6721 376.027 56.8935 376.005 57.1108 375.964C58.3668 376.274 59.6068 376.407 60.8481 376.407C64.2961 376.407 67.7561 375.377 71.5681 374.222C71.6801 374.188 71.7921 374.156 71.9028 374.126C72.1055 374.14 72.3095 374.15 72.5135 374.153C72.5775 374.155 72.6428 374.156 72.7081 374.156C73.9681 374.156 75.2175 373.932 76.4588 373.71C76.6615 373.676 76.8668 373.638 77.0602 373.569C85.8762 374.083 93.4282 381.621 102.693 382.574C103.168 382.621 103.631 382.644 104.083 382.644C107.14 382.644 109.731 381.61 112.28 380.576C113.236 380.188 114.185 379.8 115.152 379.468C119.623 382.02 122.901 385.555 126.789 389.831C130.109 393.483 132.353 397.997 135.372 401.808C134.685 401.827 134.001 401.876 133.319 401.965C133.257 401.974 133.196 401.981 133.135 401.991C128.803 402.607 124.781 404.879 120.411 405.092C120.388 405.093 120.365 405.095 120.343 405.096C120.168 405.103 119.992 405.108 119.817 405.109C119.772 405.109 119.725 405.109 119.68 405.109C118.58 405.109 117.483 405.002 116.384 404.893C116.361 404.891 116.339 404.888 116.316 404.886C115.249 404.781 114.183 404.677 113.115 404.676C113.105 404.676 113.097 404.676 113.088 404.676C113.087 404.676 113.087 404.676 113.085 404.676C113.023 404.676 112.96 404.676 112.897 404.677C112.831 404.679 112.763 404.679 112.696 404.681C109.14 404.768 105.743 406.108 102.225 406.629C102.163 406.639 102.099 406.646 102.036 406.656C100.823 406.826 99.6041 406.897 98.3841 406.898C98.3814 406.898 98.3788 406.898 98.3761 406.898ZM89.5001 390.941C89.3788 390.941 89.2574 390.945 89.1374 390.952C88.2988 391.003 87.3775 391.35 87.0548 392.126C86.4935 393.471 88.0348 394.695 89.3361 395.348C90.4375 395.898 91.7761 396.415 92.9708 396.415C93.7774 396.415 94.5188 396.179 95.0761 395.56C95.9721 394.565 95.8388 392.903 94.9681 391.886C94.1961 390.984 92.9814 390.56 91.7868 390.56C91.6348 390.56 91.4828 390.567 91.3322 390.58L91.6548 390.916C91.3815 390.965 91.1055 390.98 90.8281 390.98C90.6081 390.98 90.3855 390.971 90.1641 390.962C89.9428 390.951 89.7215 390.941 89.5001 390.941ZM111.872 390.229C112.295 390.229 112.699 390.303 113.035 390.555C113.325 390.774 113.517 391.1 113.784 391.347C114.092 391.632 114.471 391.757 114.861 391.757C115.973 391.757 117.181 390.744 117.151 389.547C117.111 388.016 115.541 386.859 114.007 386.859C113.919 386.859 113.831 386.862 113.744 386.869L113.084 387.636C112.583 387.432 112.041 387.331 111.5 387.331C110.887 387.331 110.272 387.462 109.716 387.721C109.052 388.029 108.408 388.686 108.584 389.397C108.755 390.095 109.569 390.352 110.317 390.352C110.427 390.352 110.533 390.347 110.637 390.336C111.04 390.296 111.465 390.229 111.872 390.229ZM65.3814 385.539L66.0014 385.844C64.4988 385.967 62.9614 386.096 61.5841 386.714C60.2068 387.331 58.9988 388.54 58.8068 390.036C59.3694 390.519 60.0948 390.707 60.8428 390.707C61.3961 390.707 61.9614 390.604 62.4841 390.441C63.7148 390.059 64.8575 389.4 66.1215 389.147C66.6335 389.045 67.2015 388.992 67.5775 388.628C68.1295 388.091 67.9588 387.109 67.4268 386.552C66.8948 385.996 66.1201 385.756 65.3814 385.539ZM43.3028 384.089C43.0375 384.089 42.7548 384.095 42.5361 384.247C42.0361 384.589 42.2681 385.438 42.7814 385.762C43.2948 386.084 43.9401 386.074 44.5401 386.16C45.5694 386.31 46.5482 386.795 47.2935 387.521C47.3548 387.527 47.4174 387.529 47.4788 387.529C48.6574 387.529 49.7668 386.495 49.8041 385.308C49.8348 384.36 49.2468 383.302 48.3361 383.302C48.1295 383.302 47.9068 383.356 47.6708 383.477C47.3561 383.64 47.0361 383.76 46.7121 383.85C45.9268 384.064 45.1148 384.095 44.2788 384.095C43.9561 384.095 43.6321 384.089 43.3028 384.089ZM25.3335 381.233C25.1668 381.233 25.0015 381.251 24.8415 381.292L24.6215 381.359C24.3228 381.462 24.0388 381.605 23.7401 381.708C22.9374 381.983 21.3441 381.988 21.3481 383.259C21.3508 383.722 21.8122 384.032 22.2295 384.235C23.7855 384.984 25.4881 385.428 27.2121 385.531C27.3094 385.536 27.4081 385.539 27.5081 385.539C28.0481 385.539 28.6081 385.436 28.9174 385.014C29.1694 384.671 29.1775 384.205 29.1028 383.788C28.9495 382.927 28.4535 382.021 27.5962 381.788C26.9042 381.6 26.0948 381.233 25.3335 381.233ZM76.5788 380.475C75.5468 380.475 74.3428 380.877 74.3308 381.867C74.3188 382.76 75.3561 383.284 76.2454 383.363C77.1361 383.439 78.1068 383.31 78.8561 383.798C79.1414 383.988 79.3695 384.253 79.6495 384.455C79.9801 384.692 80.3734 384.8 80.7734 384.8C81.7388 384.8 82.7375 384.168 82.9615 383.208C83.2535 381.948 82.0975 380.605 80.8308 380.605C80.7335 380.605 80.6361 380.614 80.5388 380.629L79.5108 380.953C78.6481 380.709 77.7614 380.553 76.8681 380.486C76.7748 380.479 76.6774 380.475 76.5788 380.475ZM41.1135 373.897C41.6575 373.897 42.1801 373.964 42.6028 374.253C42.8321 374.41 43.0201 374.629 43.2748 374.74C43.3908 374.79 43.5068 374.812 43.6201 374.812C44.3108 374.812 44.9228 373.96 44.9135 373.192C44.8961 371.828 43.5761 370.677 42.2428 370.677C42.0214 370.677 41.8014 370.709 41.5868 370.776L42.4641 371.189C41.7215 370.932 40.9322 370.674 40.1602 370.674C39.8682 370.674 39.5788 370.709 39.2948 370.798C38.2601 371.119 37.4921 372.451 38.1361 373.322C38.5161 373.84 39.1121 373.943 39.7721 373.943C39.9895 373.943 40.2121 373.931 40.4374 373.92C40.6628 373.909 40.8908 373.897 41.1135 373.897Z" fill="#36271A"/>
<path d="M175.699 368.814C175.695 368.814 175.692 368.812 175.688 368.81C175.691 368.812 175.695 368.814 175.699 368.814ZM175.524 368.756C173.52 368.114 171.367 368.121 169.303 367.704C171.367 368.12 173.52 368.114 175.524 368.756ZM100.975 337.279C101.516 337.24 102.061 337.221 102.612 337.221C102.063 337.221 101.516 337.24 100.975 337.279Z" fill="white"/>
<path d="M149.852 383.632C149.855 383.568 149.852 383.503 149.847 383.436C149.756 382.414 148.593 381.228 147.557 381.04C147.284 380.996 147.004 381.021 146.729 380.991C145.875 380.897 145.164 380.293 144.335 380.071C144.171 380.027 144.003 379.999 143.833 379.987C143.681 379.86 143.521 379.733 143.355 379.607C140.339 377.323 137.093 376.617 134.477 373.612C133.231 372.18 132.411 370.388 131.283 368.844C131.831 369.08 132.403 369.226 132.997 369.226C133.101 369.226 133.207 369.221 133.312 369.212C134.401 369.117 135.74 368.28 136.057 367.175C136.341 366.187 136.205 364.981 135.245 364.479C135.053 364.379 134.857 364.292 134.663 364.217C134.037 363.98 133.393 363.874 132.748 363.874C131.401 363.874 130.048 364.341 128.837 365.064C128.505 365.262 128.16 365.556 128.037 365.897C124.491 363.72 120.345 363.579 116.109 363.519C109.388 363.424 106.081 362.351 104.188 358.533C105.216 358.151 106.204 357.641 107.279 357.426C107.792 357.324 108.359 357.271 108.735 356.908C109.369 356.291 109.099 355.331 108.425 354.94C108.011 354.699 107.56 354.532 107.092 354.431C106.691 354.343 106.275 354.303 105.857 354.303C104.855 354.303 103.837 354.535 102.948 354.903C102.781 354.202 102.629 353.445 102.487 352.632C101.577 347.403 100.661 342.093 97.1147 337.911C98.2134 337.639 99.3281 337.431 100.469 337.32C100.612 337.307 100.755 337.295 100.899 337.284C100.924 337.283 100.949 337.28 100.975 337.279C101.516 337.24 102.063 337.221 102.612 337.221C102.613 337.221 102.613 337.221 102.615 337.221C102.624 337.221 102.635 337.221 102.644 337.221C107.641 337.227 112.936 338.771 117.421 340.774C117.435 340.78 117.448 340.786 117.461 340.792C117.544 340.828 117.625 340.865 117.707 340.903C122.339 343.008 125.465 347.217 130.005 349.429C134.675 351.705 140.228 351.202 145.147 352.864C154.18 355.921 159.955 365.823 169.303 367.704C171.367 368.121 173.52 368.114 175.524 368.756C175.544 368.763 175.564 368.769 175.584 368.776C175.596 368.78 175.607 368.784 175.619 368.787C175.627 368.79 175.635 368.792 175.643 368.795C175.657 368.8 175.672 368.805 175.688 368.811C175.692 368.812 175.695 368.814 175.699 368.815C175.717 368.82 175.735 368.827 175.752 368.832C175.753 368.833 175.755 368.833 175.755 368.833C178.115 369.652 180.021 371.272 181.871 373.014L181.581 373.103C178.337 373.969 175.748 373.843 172.843 374.609C172.499 373.14 170.501 372.669 168.923 372.574L169.493 372.864C168.488 372.681 167.457 372.497 166.44 372.497C165.92 372.497 165.404 372.545 164.896 372.665C163.392 373.02 161.964 374.18 161.803 375.717C161.769 376.045 161.807 376.411 162.035 376.647C162.221 376.839 162.463 376.897 162.728 376.897C163.071 376.897 163.453 376.798 163.799 376.765C163.877 376.759 163.955 376.755 164.032 376.755C164.848 376.755 165.597 377.152 166.357 377.538C165.323 378.044 164.252 378.48 162.967 378.764C158.269 379.804 156.404 380.574 152.288 382.635C152.269 382.643 152.252 382.652 152.235 382.662C152.228 382.664 152.221 382.668 152.215 382.671C152.208 382.675 152.201 382.677 152.193 382.681C151.436 383.055 150.653 383.369 149.852 383.632ZM149.439 371.847C148.483 371.847 147.621 372.232 147.153 373.219C146.585 374.421 146.976 374.936 148.024 375.46C148.719 375.807 149.728 375.65 150.491 375.974C151.109 376.238 151.493 376.862 152.205 376.962C152.265 376.969 152.325 376.974 152.383 376.974C153.628 376.974 154.264 375.069 153.533 373.979C152.949 373.109 151.725 372.298 150.477 371.983C150.128 371.895 149.777 371.847 149.439 371.847ZM154.208 363.874C153.1 363.874 152.04 364.229 151.433 365.035C151.191 365.357 151.004 365.721 150.731 366.017C150.067 366.738 148.845 367.186 148.892 368.163C148.947 369.286 150.413 369.732 152.163 369.732C154.587 369.732 157.556 368.874 158.064 367.76C158.885 365.962 157.491 364.595 155.723 364.088C155.233 363.948 154.716 363.874 154.208 363.874ZM138.568 356.152C137.563 356.152 136.537 356.331 135.689 356.56C132.72 357.364 134.781 360.186 136.549 361.071C137.652 361.621 138.989 362.136 140.183 362.136C140.989 362.138 141.731 361.902 142.289 361.281C143.485 359.955 142.799 357.848 141.46 356.907C140.749 356.407 139.833 356.195 138.881 356.157C138.777 356.153 138.672 356.152 138.568 356.152ZM120.56 354.668C120.451 354.668 120.341 354.674 120.232 354.686C119.623 354.748 119.033 354.989 118.555 355.424C118.096 355.84 117.864 356.575 118.204 357.091C118.427 357.427 118.827 357.592 119.209 357.72C120.276 358.12 121.387 358.186 122.508 358.272C122.593 358.279 122.676 358.283 122.752 358.283C124.885 358.283 123.376 355.776 122.281 355.139C121.752 354.829 121.153 354.668 120.56 354.668ZM116.936 347.583C115.5 347.671 114.18 349.121 114.803 350.597C115.219 351.584 116.3 352.126 117.38 352.126C117.787 352.126 118.195 352.048 118.565 351.889C119.179 351.626 119.737 351.141 119.907 350.497C120.317 348.927 118.641 347.686 117.232 347.583H116.936ZM107.748 341.372C107.58 341.372 107.416 341.391 107.256 341.431L107.036 341.496C106.737 341.599 106.453 341.745 106.153 341.847C105.352 342.121 103.757 342.127 103.763 343.399C103.764 343.862 104.227 344.172 104.644 344.374C106.199 345.124 107.903 345.567 109.627 345.669C109.723 345.675 109.82 345.679 109.92 345.679C110.461 345.679 111.023 345.575 111.332 345.152C111.584 344.809 111.592 344.345 111.517 343.926C111.363 343.067 110.868 342.16 110.011 341.927C109.319 341.738 108.509 341.372 107.748 341.372Z" fill="#725B43"/>
<path d="M152.193 382.681C152.201 382.677 152.208 382.674 152.215 382.671C152.208 382.674 152.2 382.677 152.193 382.681Z" fill="#5B4531"/>
<path d="M94.6402 351.847C93.1935 351.847 91.7375 351.283 90.4589 350.556C88.6962 349.556 88.3749 347.536 89.7615 345.963C90.5709 345.044 91.8549 344.744 93.1442 344.744C93.1549 344.744 93.1668 344.744 93.1788 344.744C94.2255 344.748 95.2748 344.948 96.0735 345.176C97.2215 345.504 98.3082 346.285 98.6829 347.42C99.2775 349.228 97.7522 351.215 95.9095 351.691C95.4895 351.798 95.0655 351.847 94.6402 351.847Z" fill="#402F21"/>
<path d="M117.38 352.125C116.3 352.125 115.219 351.584 114.803 350.597C114.18 349.121 115.5 347.671 116.936 347.583H117.232C118.641 347.685 120.317 348.927 119.907 350.497C119.737 351.141 119.179 351.625 118.565 351.889C118.195 352.048 117.787 352.125 117.38 352.125Z" fill="#4B3827"/>
<path d="M140.182 362.136C138.989 362.136 137.652 361.621 136.549 361.071C134.781 360.185 132.72 357.364 135.689 356.56C136.537 356.331 137.562 356.152 138.568 356.152C138.672 356.152 138.777 356.153 138.881 356.157C139.833 356.195 140.749 356.407 141.46 356.907C142.799 357.848 143.485 359.955 142.289 361.281C141.73 361.902 140.989 362.137 140.182 362.136Z" fill="#4B3827"/>
<path d="M92.9707 396.415C91.776 396.415 90.4374 395.898 89.336 395.348C88.0347 394.695 86.4934 393.471 87.0547 392.125C87.3774 391.349 88.2987 391.003 89.1373 390.952C89.2573 390.945 89.3787 390.941 89.5 390.941C89.7214 390.941 89.9427 390.951 90.164 390.961C90.3854 390.971 90.608 390.98 90.828 390.98C91.1054 390.98 91.3814 390.965 91.6547 390.916L91.3321 390.58C91.4827 390.567 91.6347 390.56 91.7867 390.56C92.9814 390.56 94.196 390.984 94.968 391.886C95.8387 392.903 95.972 394.565 95.076 395.56C94.5187 396.179 93.7773 396.415 92.9707 396.415Z" fill="#24180F"/>
<path d="M152.163 369.732C150.413 369.732 148.947 369.285 148.892 368.162C148.845 367.185 150.067 366.737 150.731 366.017C151.004 365.721 151.191 365.357 151.433 365.035C152.04 364.229 153.1 363.873 154.208 363.873C154.716 363.873 155.233 363.948 155.723 364.088C157.491 364.595 158.885 365.961 158.064 367.76C157.556 368.873 154.587 369.732 152.163 369.732Z" fill="#4B3827"/>
<path d="M122.752 358.283C122.676 358.283 122.593 358.279 122.508 358.272C121.387 358.185 120.276 358.12 119.209 357.72C118.827 357.592 118.427 357.426 118.204 357.091C117.864 356.574 118.096 355.84 118.555 355.424C119.034 354.989 119.623 354.748 120.232 354.685C120.342 354.673 120.451 354.668 120.56 354.668C121.154 354.668 121.752 354.829 122.281 355.138C123.376 355.776 124.885 358.283 122.752 358.283Z" fill="#4B3827"/>
<path d="M102 358.985C101.252 358.985 100.527 358.797 99.9653 358.314C100.156 356.819 101.364 355.609 102.741 354.992C102.809 354.961 102.879 354.932 102.948 354.903C103.288 356.325 103.689 357.525 104.188 358.533C104.008 358.6 103.825 358.662 103.643 358.72C103.119 358.883 102.553 358.985 102 358.985Z" fill="#402F21"/>
<path d="M104.188 358.533C103.69 357.525 103.288 356.325 102.948 354.903C103.838 354.535 104.855 354.303 105.858 354.303C106.275 354.303 106.691 354.343 107.092 354.431C107.56 354.532 108.011 354.698 108.426 354.94C109.099 355.331 109.37 356.291 108.735 356.908C108.359 357.271 107.792 357.324 107.279 357.425C106.204 357.641 105.216 358.15 104.188 358.533Z" fill="#4B3827"/>
<path d="M60.8426 390.707C60.0946 390.707 59.3693 390.519 58.8066 390.036C58.9986 388.54 60.2067 387.331 61.584 386.714C62.9613 386.096 64.4986 385.967 66.0013 385.844L65.3813 385.539C66.12 385.756 66.8947 385.996 67.4267 386.552C67.9587 387.109 68.1293 388.091 67.5773 388.628C67.2013 388.992 66.6334 389.045 66.1214 389.147C64.8574 389.4 63.7147 390.059 62.484 390.441C61.9613 390.604 61.396 390.707 60.8426 390.707Z" fill="#24180F"/>
<path d="M88.2482 359.639C88.1482 359.639 88.0483 359.635 87.9523 359.629C86.227 359.528 84.5243 359.084 82.9696 358.333C82.5523 358.133 82.0896 357.821 82.0869 357.357C82.0829 356.087 83.6776 356.083 84.4789 355.807C84.7776 355.704 85.0629 355.56 85.3616 355.457L85.5803 355.391C85.7403 355.351 85.9042 355.332 86.0709 355.332C86.8336 355.332 87.6443 355.699 88.3363 355.887C89.1936 356.121 89.6896 357.027 89.8429 357.887C89.9162 358.304 89.9083 358.769 89.6576 359.112C89.3483 359.535 88.7869 359.639 88.2482 359.639Z" fill="#402F21"/>
<path d="M109.92 345.679C109.82 345.679 109.723 345.675 109.627 345.669C107.903 345.567 106.199 345.124 104.644 344.374C104.227 344.172 103.764 343.862 103.763 343.398C103.757 342.127 105.352 342.121 106.153 341.847C106.453 341.745 106.737 341.598 107.036 341.496L107.256 341.431C107.416 341.391 107.58 341.372 107.748 341.372C108.509 341.372 109.319 341.738 110.011 341.927C110.868 342.16 111.363 343.067 111.517 343.926C111.592 344.345 111.584 344.809 111.332 345.152C111.023 345.575 110.461 345.679 109.92 345.679Z" fill="#4B3827"/>
<path d="M27.5082 385.539C27.4082 385.539 27.3095 385.536 27.2121 385.531C25.4881 385.428 23.7855 384.984 22.2295 384.235C21.8122 384.032 21.3508 383.722 21.3482 383.259C21.3442 381.988 22.9375 381.983 23.7401 381.708C24.0388 381.605 24.3229 381.462 24.6215 381.359L24.8415 381.292C25.0015 381.251 25.1668 381.233 25.3335 381.233C26.0948 381.233 26.9042 381.6 27.5962 381.788C28.4535 382.021 28.9495 382.927 29.1028 383.788C29.1775 384.205 29.1695 384.671 28.9175 385.014C28.6082 385.436 28.0482 385.539 27.5082 385.539Z" fill="#24180F"/>
<path d="M56.6625 365.835C56.6279 365.835 56.5918 365.833 56.5558 365.832C55.6118 365.791 54.6585 364.94 54.8531 364.016C54.9598 363.502 55.3732 363.11 55.7998 362.804C57.0652 361.896 58.5678 361.419 59.9558 360.741C60.5532 360.451 60.9292 359.972 61.5465 359.736C62.0945 359.528 62.7425 359.483 63.1478 359.008C63.2425 358.897 63.3145 358.771 63.3865 358.644C63.4745 358.489 63.5585 358.335 63.6798 358.207C64.0078 357.859 64.4612 357.721 64.9492 357.721C65.8652 357.721 66.9051 358.204 67.4758 358.668C68.8545 359.786 69.1039 362.257 67.6292 363.244C67.1292 363.577 66.5758 363.686 65.9945 363.686C65.4372 363.686 64.8519 363.586 64.2625 363.486C63.6719 363.385 63.0759 363.285 62.4959 363.285C62.1812 363.285 61.8705 363.315 61.5692 363.389C60.6518 363.616 59.8972 364.243 59.1332 364.798C58.3998 365.333 57.5639 365.835 56.6625 365.835Z" fill="#312317"/>
<path d="M124.877 374.877C124.545 374.877 124.208 374.741 123.889 374.619C123.047 374.295 122.32 374.141 121.519 374.141C121.193 374.141 120.856 374.167 120.495 374.216C120.273 374.247 120.047 374.269 119.821 374.269C119.459 374.269 119.104 374.209 118.796 374.024C116.939 372.912 119.523 370.338 121.067 370.338C121.127 370.338 121.184 370.343 121.241 370.35L121.937 370.169C122.24 370.05 122.553 369.996 122.867 369.996C124.659 369.996 126.432 371.783 126.084 373.613C125.984 374.141 125.687 374.692 125.168 374.838C125.072 374.865 124.975 374.877 124.877 374.877Z" fill="#402F21"/>
<path d="M152.383 376.973C152.325 376.973 152.265 376.969 152.205 376.961C151.493 376.861 151.109 376.237 150.491 375.973C149.728 375.649 148.719 375.807 148.024 375.46C146.976 374.936 146.585 374.421 147.153 373.219C147.621 372.232 148.483 371.847 149.439 371.847C149.777 371.847 150.128 371.895 150.477 371.983C151.725 372.298 152.949 373.109 153.533 373.979C154.264 375.069 153.628 376.973 152.383 376.973Z" fill="#4B3827"/>
<path d="M71.9027 374.125C70.0614 373.985 68.2707 373.395 66.512 372.808C66.1907 372.702 65.8547 372.585 65.6307 372.333C64.9934 371.617 65.7374 370.448 66.6334 370.112C67.5307 369.777 68.5587 369.863 69.4173 369.441C69.9373 369.188 70.3534 368.769 70.8134 368.42C71.8614 367.625 73.1733 367.189 74.4867 367.189C74.6373 367.189 74.7867 367.196 74.936 367.207L74.6533 367.217C77.0347 367.307 78.9187 370.029 78.164 372.291C78.0067 372.763 77.736 373.225 77.3 373.465C77.2227 373.507 77.1427 373.541 77.06 373.569C76.7494 373.552 76.436 373.543 76.1227 373.543C74.752 373.543 73.3494 373.72 71.9027 374.125Z" fill="#312317"/>
<path d="M72.7082 374.156C72.6428 374.156 72.5775 374.155 72.5135 374.153C72.3095 374.149 72.1055 374.14 71.9028 374.125C73.3495 373.72 74.7522 373.543 76.1228 373.543C76.4362 373.543 76.7495 373.552 77.0602 373.569C76.8669 373.637 76.6615 373.676 76.4588 373.71C75.2175 373.932 73.9682 374.156 72.7082 374.156Z" fill="#24180F"/>
<path d="M87.3349 366.965C87.1456 366.965 86.9882 366.959 86.8682 366.945C84.4456 366.665 82.1816 366.031 80.1963 364.927C80.291 364.555 80.6642 364.231 81.0202 364.02C82.2309 363.296 83.583 362.829 84.9296 362.829C85.575 362.829 86.2189 362.936 86.8456 363.173C87.0402 363.248 87.2363 363.335 87.427 363.434C88.3883 363.936 88.5242 365.143 88.2402 366.131C88.1536 366.428 87.9936 366.707 87.7842 366.956C87.6202 366.961 87.4696 366.965 87.3349 366.965Z" fill="#402F21"/>
<path d="M85.1785 368.181C83.4958 368.181 81.9985 367.016 80.6879 365.912C80.4865 365.741 80.2732 365.556 80.1999 365.302C80.1625 365.172 80.1652 365.047 80.1959 364.926C82.1812 366.031 84.4452 366.665 86.8678 366.945C86.9878 366.959 87.1452 366.965 87.3345 366.965C87.4692 366.965 87.6198 366.961 87.7838 366.956C87.2172 367.632 86.2892 368.097 85.4945 368.168C85.3892 368.177 85.2838 368.181 85.1785 368.181Z" fill="#312317"/>
<path d="M131.283 368.844C130.279 368.41 129.353 367.671 128.507 366.957C128.305 366.786 128.091 366.6 128.019 366.347C127.973 366.191 127.985 366.04 128.037 365.897C128.708 366.309 129.359 366.795 129.984 367.367C130.473 367.815 130.896 368.315 131.283 368.844Z" fill="#402F21"/>
<path d="M132.997 369.226C132.402 369.226 131.83 369.08 131.282 368.844C130.896 368.315 130.473 367.815 129.984 367.367C129.358 366.795 128.708 366.309 128.037 365.897C128.16 365.556 128.505 365.262 128.837 365.064C130.048 364.341 131.401 363.874 132.748 363.874C133.393 363.874 134.037 363.98 134.662 364.217C134.857 364.292 135.053 364.379 135.245 364.479C136.205 364.981 136.341 366.187 136.057 367.175C135.74 368.28 134.401 369.117 133.312 369.212C133.206 369.221 133.101 369.226 132.997 369.226Z" fill="#4B3827"/>
<path d="M80.0172 353.759C79.9692 353.759 79.9199 353.757 79.8719 353.757C78.5772 353.733 77.2812 353.71 75.9852 353.689C74.8479 353.668 73.4172 353.434 73.1198 352.337C72.8118 351.21 74.0719 350.233 75.2305 350.091C75.4692 350.061 75.7092 350.052 75.9505 350.052C76.2065 350.052 76.4638 350.063 76.7198 350.075C76.9772 350.085 77.2332 350.097 77.4892 350.097C77.9052 350.097 78.3172 350.067 78.7185 349.959L78.7452 350.003C78.9052 349.957 79.0652 349.936 79.2252 349.936C80.5812 349.936 81.8439 351.473 81.3719 352.803C81.2359 353.189 80.9638 353.551 80.5758 353.685C80.3972 353.747 80.2065 353.759 80.0172 353.759Z" fill="#402F21"/>
<path d="M168.841 378.277C168.429 378.277 168.017 378.217 167.624 378.092C167.191 377.956 166.772 377.748 166.357 377.538C167.436 377.008 168.473 376.402 169.668 375.807C170.791 375.248 171.836 374.876 172.843 374.609C172.86 374.684 172.873 374.762 172.881 374.841C172.949 375.464 172.683 376.08 172.308 376.583C171.509 377.655 170.172 378.277 168.841 378.277Z" fill="#2F2116"/>
<path d="M166.357 377.538C165.597 377.152 164.848 376.755 164.032 376.755C163.955 376.755 163.877 376.759 163.799 376.765C163.453 376.799 163.071 376.897 162.728 376.897C162.463 376.897 162.221 376.839 162.035 376.647C161.807 376.411 161.769 376.045 161.803 375.717C161.964 374.18 163.392 373.02 164.896 372.665C165.404 372.545 165.92 372.497 166.44 372.497C167.457 372.497 168.488 372.681 169.493 372.864L168.923 372.574C170.501 372.669 172.499 373.14 172.843 374.609C171.836 374.876 170.791 375.248 169.668 375.807C168.473 376.402 167.436 377.008 166.357 377.538Z" fill="#4B3827"/>
<path d="M144.161 384.696C143.788 384.471 143.434 384.209 143.112 383.916C142.697 383.537 142.343 383.088 141.936 382.736C141.551 382.402 141.197 382.191 141.291 381.58C141.364 381.089 141.72 380.68 142.137 380.412C142.581 380.128 143.108 379.98 143.634 379.98C143.701 379.98 143.767 379.981 143.833 379.986C145.552 381.417 146.348 382.861 146.932 384.361C147.921 384.185 148.899 383.945 149.852 383.632C149.852 383.637 149.852 383.643 149.85 383.647C148.017 384.267 146.092 384.614 144.161 384.696Z" fill="#402F21"/>
<path d="M147.008 385.58C146.834 385.58 146.662 385.568 146.497 385.543C145.672 385.42 144.876 385.126 144.161 384.696C146.092 384.615 148.017 384.267 149.85 383.647C149.798 384.868 148.336 385.58 147.008 385.58Z" fill="#2F2116"/>
<path d="M146.932 384.361C146.348 382.861 145.552 381.417 143.833 379.986C144.003 379.998 144.171 380.026 144.335 380.071C145.164 380.293 145.875 380.897 146.73 380.991C147.004 381.021 147.284 380.996 147.558 381.04C148.594 381.228 149.756 382.413 149.847 383.436C149.852 383.503 149.855 383.568 149.852 383.632C148.899 383.945 147.922 384.185 146.932 384.361Z" fill="#4B3827"/>
<path d="M134.155 378.776C133.676 378.776 133.177 378.701 132.737 378.597C131.948 378.409 131.048 378.135 130.734 377.385C130.4 376.585 130.97 375.641 131.749 375.257C132.289 374.991 132.894 374.925 133.504 374.925C133.77 374.925 134.037 374.938 134.3 374.952L133.999 374.968C135.159 375.517 136.538 376.544 136.108 377.755C135.832 378.528 135.025 378.776 134.155 378.776Z" fill="#402F21"/>
<path d="M108.385 371.031C108.32 371.031 108.255 371.027 108.189 371.017C107.785 370.957 107.429 370.726 107.045 370.586C105.813 370.139 104.119 370.522 103.424 369.414C102.205 367.469 104.417 366.316 106.637 366.316C107.201 366.316 107.765 366.391 108.273 366.545C109.607 366.953 110.557 367.914 110.113 369.533C109.896 370.324 109.184 371.031 108.385 371.031Z" fill="#402F21"/>
<path d="M93.7321 379.045C92.9361 379.045 91.9787 378.588 91.5774 377.941C90.916 376.868 91.568 375.345 92.6814 374.752C93.2947 374.424 93.8707 374.262 94.468 374.262C94.9013 374.262 95.348 374.348 95.828 374.519C96.0054 374.583 96.1827 374.655 96.3627 374.708C96.5081 374.75 96.6533 374.78 96.804 374.78C96.8187 374.78 96.8334 374.779 96.848 374.779C97.4854 374.757 98.0267 374.198 98.656 374.198C98.6814 374.198 98.7067 374.2 98.7321 374.202C99.2214 374.239 99.612 374.624 99.8787 375.036C100.324 375.726 100.549 376.564 100.459 377.379C100.396 377.941 100.139 378.538 99.6241 378.768C99.4601 378.841 99.2867 378.871 99.1093 378.871C98.8453 378.871 98.5761 378.804 98.3267 378.712C97.9107 378.557 97.5174 378.336 97.084 378.236C96.916 378.197 96.7587 378.181 96.6093 378.181C95.612 378.181 94.9334 378.919 93.9507 379.033C93.88 379.041 93.8067 379.045 93.7321 379.045Z" fill="#312317"/>
<path d="M57.1107 375.964C56.1027 375.716 55.0853 375.353 54.0493 374.857C53.8867 374.673 53.7147 374.5 53.4934 374.398C53.3267 374.322 53.1467 374.296 52.964 374.289C52.664 374.12 52.3627 373.938 52.0587 373.745C51.6893 373.509 51.332 373.261 50.9854 373.005C50.9894 372.612 51.1053 372.196 51.3013 371.862C51.912 370.819 52.912 370.086 54.0253 370.086C54.4347 370.086 54.8573 370.185 55.284 370.403C55.7667 370.648 56.1653 371.068 56.672 371.243L56.8107 371.284C56.956 371.319 57.104 371.331 57.252 371.331C57.448 371.331 57.6453 371.309 57.84 371.293C57.9653 371.283 58.092 371.274 58.2187 371.274C58.4387 371.274 58.6574 371.3 58.86 371.384C59.788 371.773 59.6027 373.733 59.2333 374.461C58.82 375.274 58.0013 375.792 57.1107 375.964Z" fill="#312317"/>
<path d="M56.4521 376.027C55.6601 376.027 54.8774 375.753 54.3294 375.174C54.2334 375.072 54.1427 374.963 54.0494 374.857C55.0854 375.353 56.1027 375.716 57.1107 375.964C56.8934 376.005 56.6721 376.027 56.4521 376.027ZM52.248 374.307C52.0347 374.307 51.8254 374.286 51.6321 374.2C51.1708 373.996 50.9814 373.519 50.9854 373.005C51.3321 373.262 51.6894 373.509 52.0587 373.745C52.3627 373.939 52.6641 374.12 52.9641 374.29C52.9321 374.288 52.9014 374.288 52.8694 374.288C52.7667 374.288 52.6627 374.293 52.5587 374.297C52.4547 374.303 52.3507 374.307 52.248 374.307Z" fill="#24180F"/>
<path d="M80.7733 384.8C80.3733 384.8 79.98 384.692 79.6494 384.455C79.3694 384.253 79.1413 383.988 78.856 383.798C78.1067 383.31 77.136 383.439 76.2453 383.363C75.356 383.284 74.3187 382.76 74.3307 381.867C74.3427 380.877 75.5467 380.475 76.5787 380.475C76.6773 380.475 76.7746 380.479 76.868 380.486C77.7613 380.553 78.648 380.709 79.5107 380.953L80.5387 380.629C80.636 380.614 80.7333 380.605 80.8307 380.605C82.0973 380.605 83.2533 381.948 82.9613 383.208C82.7373 384.168 81.7386 384.8 80.7733 384.8Z" fill="#24180F"/>
<path d="M114.861 391.757C114.471 391.757 114.092 391.632 113.784 391.347C113.517 391.1 113.325 390.773 113.035 390.555C112.699 390.303 112.295 390.229 111.872 390.229C111.465 390.229 111.04 390.296 110.637 390.336C110.533 390.347 110.427 390.352 110.317 390.352C109.569 390.352 108.755 390.095 108.584 389.397C108.408 388.686 109.052 388.029 109.716 387.721C110.272 387.461 110.887 387.331 111.5 387.331C112.041 387.331 112.583 387.432 113.084 387.636L113.744 386.869C113.831 386.861 113.919 386.859 114.007 386.859C115.541 386.859 117.111 388.016 117.151 389.547C117.181 390.744 115.973 391.757 114.861 391.757Z" fill="#24180F"/>
<path d="M149.241 393.488C149.129 393.488 149.016 393.483 148.905 393.479C147.1 393.41 144.943 393.212 143.664 391.735C142.252 390.103 143.488 388.959 145.48 388.728C145.847 388.686 146.22 388.662 146.595 388.662C146.864 388.662 147.133 388.674 147.4 388.702C148.571 388.826 149.684 389.252 150.475 390.214C151.281 391.189 151.145 392.998 149.943 393.395C149.716 393.469 149.48 393.488 149.241 393.488Z" fill="#2F2116"/>
<path d="M169.676 388.123C169.295 388.123 168.917 388.028 168.584 387.821C168.215 387.592 167.901 387.256 167.484 387.132C167.061 387.007 166.595 387.121 166.172 386.999C165.164 386.709 165.005 385.191 165.696 384.404C166.385 383.615 167.529 383.417 168.579 383.407L169.007 383.628C169.232 383.544 169.464 383.505 169.697 383.505C171 383.505 172.296 384.723 172.161 386.063C172.041 387.252 170.839 388.123 169.676 388.123Z" fill="#2F2116"/>
<path d="M186.048 385.741C185.052 385.741 184.225 384.988 183.376 384.473C182.759 384.098 181.984 383.171 182.224 382.403C182.433 381.724 183.244 381.386 183.923 381.386C183.972 381.386 184.021 381.388 184.069 381.392C184.619 381.433 185.129 381.465 185.657 381.465C185.961 381.465 186.271 381.455 186.596 381.429L186.865 381.412C186.888 381.412 186.912 381.412 186.936 381.412C187.104 381.412 187.271 381.429 187.427 381.491C187.615 381.567 187.771 381.7 187.924 381.832C188.473 382.305 189.023 382.78 189.572 383.252L189.852 383.545C190.061 383.869 189.965 384.327 189.705 384.614C189.447 384.898 189.061 385.04 188.68 385.105C187.872 385.244 187.175 385.581 186.373 385.714C186.263 385.732 186.155 385.741 186.048 385.741Z" fill="#2F2116"/>
<path d="M47.4787 387.529C47.4173 387.529 47.3547 387.527 47.2934 387.521C46.5481 386.795 45.5693 386.31 44.54 386.16C43.94 386.074 43.2947 386.084 42.7813 385.762C42.268 385.438 42.036 384.589 42.536 384.247C42.7547 384.095 43.0374 384.089 43.3027 384.089C43.632 384.089 43.956 384.095 44.2787 384.095C45.1147 384.095 45.9267 384.064 46.712 383.85C47.036 383.76 47.356 383.64 47.6707 383.477C47.9067 383.356 48.1294 383.302 48.336 383.302C49.2467 383.302 49.8347 384.36 49.804 385.308C49.7667 386.495 48.6573 387.529 47.4787 387.529Z" fill="#24180F"/>
<path d="M43.6201 374.812C43.5068 374.812 43.3908 374.79 43.2748 374.74C43.0201 374.629 42.8321 374.41 42.6028 374.253C42.1801 373.964 41.6575 373.897 41.1135 373.897C40.8908 373.897 40.6627 373.909 40.4374 373.92C40.2121 373.931 39.9894 373.943 39.7721 373.943C39.1121 373.943 38.5161 373.84 38.1361 373.322C37.4921 372.451 38.2601 371.119 39.2948 370.798C39.5788 370.709 39.8681 370.673 40.1601 370.673C40.9321 370.673 41.7214 370.932 42.4641 371.189L41.5868 370.776C41.8014 370.709 42.0214 370.677 42.2428 370.677C43.5761 370.677 44.8961 371.828 44.9135 373.192C44.9228 373.96 44.3108 374.812 43.6201 374.812Z" fill="#24180F"/>
</svg>
