<svg width="205" height="70" viewBox="0 0 205 70" fill="none" xmlns="http://www.w3.org/2000/svg">
<path d="M18.9983 37.9959C20.9744 37.5839 23.0327 37.6438 24.9905 37.1506C31.9947 35.3891 35.6753 27.324 42.3452 24.5547C46.6395 22.7708 51.9436 23.2896 55.4805 20.2708C56.8561 19.0959 57.8015 17.5 59.0816 16.224C62.9488 12.3694 68.9772 12.0948 74.2159 10.5558C83.2305 7.90789 90.9252 0.988025 100.295 0.283891C105.888 -0.137442 112.035 1.59842 117.104 3.90269C121.736 6.00789 124.861 10.2172 129.401 12.4292C134.071 14.7052 139.624 14.2016 144.544 15.864C153.576 18.9214 159.351 28.8224 168.697 30.7042C170.764 31.1214 172.916 31.1136 174.921 31.7558C180.253 33.4651 183.284 39.2479 188.343 41.647C190.957 42.8864 209.859 46.3522 203.388 53.4266C202.659 54.2255 201.512 54.4547 200.447 54.6412C196.595 55.312 192.232 55.535 188.527 56.7839C185.871 57.6803 183.867 59.0318 181.017 59.5574C177.028 60.2907 172.936 60.4864 168.905 60.8803C165.029 61.2574 160.685 62.7255 156.868 62.7255C153.473 63.5891 150.153 64.8574 146.664 65.1839C144.457 65.3907 142.236 65.2136 140.016 65.0375C137.512 64.8375 135.008 64.6386 132.531 64.9907C128.197 65.6068 124.177 67.8787 119.807 68.0922C118.463 68.1574 117.121 68.0255 115.78 67.8932C114.552 67.7719 113.324 67.6506 112.092 67.6812C108.537 67.7678 105.14 69.1079 101.623 69.6292C96.8465 70.336 91.9919 69.5188 87.2332 68.7011C81.1239 67.6531 75.0145 66.6052 68.9052 65.5574C61.6249 64.3079 54.2244 63.6907 47.0228 62.4402C44.1077 61.9334 41.1149 62.1162 38.1264 62.3C34.2681 62.536 30.4165 62.7719 26.7468 61.524C22.8488 60.2 19.6045 57.1464 15.5504 56.4344C13.8947 56.1438 12.2144 56.2667 10.5301 56.388C9.28946 56.4787 8.04572 56.5678 6.80972 56.4932C3.89572 56.3146 0.633191 54.6907 0.246791 51.7959C-0.00427528 49.9255 1.07586 48.076 2.54933 46.8974C4.02173 45.7172 5.84466 45.0803 7.62906 44.464C11.9827 42.9615 14.4411 38.9495 18.9983 37.9959Z" fill="#614D39"/>
<path d="M132.53 64.9907C132.592 64.9813 132.653 64.9735 132.714 64.9651C133.397 64.8761 134.082 64.8266 134.768 64.8079C134.772 64.8121 134.774 64.8146 134.777 64.8189C134.026 64.8413 133.277 64.8855 132.53 64.9907Z" fill="#C4BCB5"/>
<path d="M103.48 45.6438C103.028 45.6438 102.565 45.6214 102.091 45.5735C92.824 44.6214 85.2734 37.0829 76.4574 36.5694C76.5387 36.5413 76.6187 36.5069 76.696 36.4651C77.132 36.2255 77.404 35.7626 77.5614 35.2907C78.316 33.0293 76.432 30.3069 74.0507 30.2173L74.332 30.2069C74.1827 30.1959 74.0334 30.1891 73.884 30.1891C72.5707 30.1891 71.2574 30.6255 70.2107 31.4198C69.7507 31.7694 69.3334 32.1881 68.8147 32.4413C67.9552 32.8626 66.9282 32.7771 66.0312 33.1121C65.1339 33.4479 64.3902 34.6173 65.0266 35.3334C65.2516 35.5855 65.5875 35.7017 65.9088 35.8079C67.6683 36.3949 69.4574 36.9865 71.3 37.1255C71.188 37.1558 71.0774 37.1881 70.9654 37.2225C67.1527 38.3771 63.6932 39.4069 60.2448 39.4069C59.0027 39.4069 57.7631 39.2735 56.5084 38.9641C57.3979 38.7922 58.2172 38.2746 58.6298 37.4615C58.9995 36.7334 59.185 34.7735 58.2552 34.3839C58.0536 34.3001 57.8355 34.2746 57.6151 34.2746C57.4886 34.2746 57.3615 34.2829 57.2364 34.2933C57.0412 34.3094 56.8438 34.3307 56.6484 34.3307C56.5 34.3307 56.3522 34.3189 56.2079 34.2839L56.0683 34.2427C55.5626 34.0683 55.1636 33.6479 54.6807 33.4027C54.2552 33.1855 53.8312 33.0865 53.4224 33.0865C52.3084 33.0865 51.3088 33.8189 50.6974 34.8626C50.5022 35.1959 50.3855 35.6121 50.3823 36.0053C45.9844 32.7479 43.3823 28.0001 39.5402 26.123C34.599 29.5402 31.0798 35.4307 25.3172 37.0641C32.1104 35.1375 35.7798 27.2813 42.3454 24.5547C46.6396 22.7709 51.9438 23.2897 55.4807 20.2709C56.8563 19.0959 57.8016 17.5001 59.0818 16.2241C59.0932 16.2121 59.1052 16.2017 59.1167 16.1891C59.614 15.6985 60.1495 15.2709 60.7115 14.8865C62.3396 14.4479 64.1307 14.0829 65.8506 14.0829C67.3839 14.0829 68.86 14.3735 70.1134 15.1574C72.8094 16.8454 73.052 20.4694 74.5054 22.9361C75.8227 25.1746 77.5614 26.7959 79.592 27.9266C79.5614 28.047 79.56 28.1719 79.5974 28.3017C79.6707 28.5558 79.8827 28.7413 80.0854 28.9121C81.396 30.0162 82.892 31.1813 84.576 31.1813C84.68 31.1813 84.7854 31.1771 84.8907 31.1683C85.6867 31.0974 86.6147 30.6318 87.1814 29.9563C88.9427 29.8949 92.2494 29.5318 93.9294 29.4865C94.796 30.9173 95.824 32.1933 97.0134 33.3094L97.212 33.6121C100.317 37.4361 104.355 38.5881 108.824 39.9907C110.971 40.6651 112.847 41.4949 114.549 42.4683C113.583 42.8001 112.633 43.1881 111.677 43.5761C109.128 44.6105 106.537 45.6438 103.48 45.6438ZM93.8654 37.2615C93.2667 37.2615 92.6907 37.4241 92.0774 37.7522C90.9654 38.3454 90.312 39.8683 90.9747 40.9413C91.3747 41.5881 92.332 42.0454 93.128 42.0454C93.2027 42.0454 93.276 42.0413 93.3467 42.0334C94.3294 41.9189 95.0094 41.1813 96.0054 41.1813C96.156 41.1813 96.3134 41.1974 96.48 41.2361C96.9134 41.3361 97.3067 41.5574 97.7227 41.7121C97.972 41.8042 98.2427 41.8709 98.5067 41.8709C98.6827 41.8709 98.8574 41.8413 99.02 41.7678C99.536 41.5375 99.7934 40.9413 99.856 40.3787C99.9454 39.5641 99.7214 38.7255 99.2747 38.0361C99.0094 37.6241 98.6174 37.2386 98.1294 37.2017C98.104 37.2001 98.0787 37.1985 98.0534 37.1985C97.424 37.1985 96.8814 37.7574 96.244 37.7787C96.2294 37.7787 96.2147 37.7803 96.2 37.7803C96.0507 37.7803 95.904 37.7495 95.76 37.7079C95.5787 37.6547 95.4014 37.5829 95.224 37.5189C94.744 37.3479 94.2987 37.2615 93.8654 37.2615ZM64.3454 20.7214C63.8574 20.7214 63.4047 20.8589 63.076 21.2069C62.9558 21.335 62.8703 21.4891 62.7828 21.6438C62.712 21.7709 62.6396 21.8974 62.5459 22.0079C62.1386 22.4829 61.4922 22.5282 60.9438 22.7361C60.326 22.9719 59.95 23.4506 59.3522 23.7413C57.964 24.4189 56.462 24.8959 55.197 25.8042C54.7698 26.1105 54.3568 26.5017 54.2495 27.0162C54.0563 27.9402 55.0088 28.7907 55.9527 28.8318C55.988 28.8334 56.024 28.835 56.0594 28.835C56.9615 28.835 57.7959 28.3334 58.5303 27.7985C59.2943 27.2427 60.0495 26.6162 60.9662 26.3891C61.2683 26.3146 61.5782 26.2855 61.8927 26.2855C62.473 26.2855 63.0688 26.3855 63.6588 26.4865C64.249 26.5865 64.8334 26.6865 65.3912 26.6865C65.973 26.6865 66.5255 26.5771 67.0246 26.2438C68.5 25.2574 68.2516 22.7865 66.873 21.6683C66.3027 21.2042 65.262 20.7214 64.3454 20.7214ZM53.4454 37.8574C53.086 37.6839 52.724 37.4959 52.3599 37.2897C52.5443 37.2959 52.7235 37.3225 52.8907 37.3985C53.112 37.4985 53.2828 37.6735 53.4454 37.8574ZM25.0807 37.1282C25.0896 37.1255 25.0979 37.123 25.1063 37.1214C25.0974 37.123 25.0896 37.1255 25.0807 37.1282ZM25.1579 37.1079C25.1703 37.1042 25.1818 37.1011 25.1943 37.0974C25.1818 37.1011 25.1698 37.1042 25.1579 37.1079Z" fill="#4A3928"/>
<path d="M168.905 60.8803C172.936 60.4864 177.028 60.2907 181.017 59.5574C183.867 59.0318 185.871 57.6803 188.527 56.7839C192.232 55.535 196.595 55.312 200.447 54.6412C196.595 55.312 192.232 55.535 188.527 56.7855C185.871 57.6803 183.867 59.0318 181.017 59.5574C177.028 60.2907 172.936 60.4864 168.905 60.8803ZM188.136 41.547C188.123 41.5402 188.111 41.535 188.097 41.5282C188.109 41.535 188.123 41.5402 188.136 41.547ZM188.071 41.5146C188.06 41.5079 188.049 41.5027 188.037 41.4974C188.048 41.5027 188.06 41.5094 188.071 41.5146ZM25.0673 37.1307C25.0715 37.1307 25.0767 37.1292 25.0808 37.1282C25.0761 37.1292 25.072 37.1307 25.0673 37.1307ZM25.1064 37.1214C25.1105 37.1198 25.1147 37.1188 25.1189 37.1172C25.1152 37.1188 25.11 37.1198 25.1064 37.1214ZM25.1465 37.1104C25.1507 37.1094 25.1537 37.1079 25.158 37.1079C25.1543 37.1079 25.1501 37.1094 25.1465 37.1104ZM25.3157 37.064C25.3163 37.064 25.3168 37.064 25.3173 37.064C25.3163 37.064 25.3163 37.064 25.3157 37.064Z" fill="#BAB1A8"/>
<path d="M144.533 65.2771C144.527 65.2771 144.521 65.2771 144.515 65.2771C143.203 65.276 141.887 65.1839 140.571 65.0812C140.387 65.0667 140.201 65.0522 140.016 65.0375C139.948 65.0318 139.879 65.0266 139.809 65.0214C139.804 65.0198 139.799 65.0198 139.795 65.0198C139.765 65.0172 139.737 65.0146 139.709 65.0136C139.629 65.0068 139.549 65 139.471 64.9932C139.463 64.9932 139.456 64.9932 139.449 64.9922C138.139 64.8891 136.829 64.7984 135.524 64.7974C135.517 64.7974 135.512 64.7974 135.505 64.7974C135.501 64.7974 135.499 64.7974 135.495 64.7974C135.252 64.7974 135.011 64.8016 134.768 64.8079C131.751 60.9974 129.507 56.4828 126.187 52.8307C122.297 48.5547 119.02 45.0198 114.549 42.4683C116.16 41.912 117.819 41.5079 119.625 41.5079C120.723 41.5079 121.875 41.6558 123.105 42.0104C129.713 43.9104 135.621 47.7146 142.688 47.7146C142.773 47.7146 142.859 47.7146 142.944 47.7136C143.149 47.7104 143.355 47.7052 143.559 47.6959C144.273 48.1255 145.068 48.4198 145.893 48.5427C146.06 48.5683 146.231 48.5803 146.405 48.5803C147.733 48.5803 149.195 47.8683 149.248 46.6479C150.049 46.3771 150.832 46.0547 151.591 45.6812C151.597 45.6771 151.605 45.6746 151.612 45.6708C151.619 45.6683 151.625 45.664 151.632 45.6615C151.649 45.6522 151.667 45.6427 151.685 45.635C155.801 43.5735 157.665 42.8042 162.363 41.764C163.648 41.4803 164.72 41.0438 165.753 40.5375C166.169 40.7479 166.587 40.9563 167.02 41.0922C167.415 41.2172 167.827 41.2771 168.239 41.2771C169.568 41.2771 170.905 40.6547 171.705 39.5828C172.08 39.0803 172.347 38.464 172.279 37.8412C172.269 37.7615 172.256 37.6839 172.239 37.6094C175.145 36.8427 177.733 36.9694 180.977 36.1027L181.268 36.0136C183.357 37.9771 185.373 40.0932 187.869 41.4104C187.872 41.412 187.875 41.4136 187.877 41.4146C187.893 41.4224 187.908 41.4307 187.924 41.4386C187.929 41.4427 187.936 41.4454 187.941 41.4479C187.955 41.4547 187.967 41.4615 187.98 41.4683C187.989 41.4719 187.997 41.4771 188.007 41.4812C188.017 41.4864 188.027 41.4922 188.037 41.4974C188.049 41.5027 188.06 41.5079 188.071 41.5146C188.08 41.5188 188.088 41.5224 188.097 41.5282C188.111 41.535 188.123 41.5402 188.136 41.547C188.143 41.5506 188.151 41.5547 188.157 41.5574C188.172 41.5651 188.187 41.5719 188.201 41.5803C188.207 41.5828 188.212 41.5855 188.219 41.588C188.235 41.5959 188.252 41.6042 188.269 41.612C188.273 41.6146 188.276 41.6162 188.28 41.6172C188.301 41.6282 188.321 41.6375 188.343 41.647C190.579 42.7079 204.735 45.3959 204.729 50.5812C204.728 51.4574 204.323 52.4042 203.388 53.4266C202.659 54.2255 201.512 54.4547 200.447 54.6412C196.595 55.312 192.232 55.535 188.527 56.7839C185.871 57.6803 183.867 59.0318 181.017 59.5574C177.028 60.2907 172.936 60.4864 168.905 60.8803C165.029 61.2574 160.685 62.7255 156.868 62.7255C153.5 63.5812 150.205 64.8386 146.747 65.176C146.719 65.1787 146.692 65.1812 146.664 65.1839C146.632 65.1864 146.599 65.1891 146.567 65.1922C145.892 65.2522 145.217 65.276 144.541 65.2771C144.539 65.2771 144.536 65.2771 144.533 65.2771ZM145.991 51.6615C145.617 51.6615 145.243 51.6855 144.877 51.7282C142.885 51.9588 141.649 53.1027 143.061 54.735C144.339 56.212 146.497 56.4104 148.301 56.4787C148.412 56.4828 148.525 56.488 148.637 56.488C148.876 56.488 149.113 56.4694 149.34 56.3948C150.541 55.9984 150.677 54.1891 149.872 53.2136C149.081 52.2522 147.968 51.8255 146.796 51.7016C146.529 51.6735 146.26 51.6615 145.991 51.6615ZM167.975 46.4068C166.927 46.4172 165.783 46.6146 165.092 47.4042C164.403 48.1907 164.561 49.7094 165.568 49.9984C165.992 50.1214 166.457 50.0068 166.881 50.1318C167.299 50.2558 167.612 50.5922 167.981 50.8214C168.315 51.0282 168.692 51.123 169.073 51.123C170.236 51.123 171.439 50.2522 171.559 49.0626C171.693 47.7224 170.397 46.5052 169.093 46.5052C168.861 46.5052 168.628 46.5438 168.403 46.6282L167.975 46.4068ZM183.319 44.3864C182.641 44.3864 181.831 44.724 181.62 45.4027C181.381 46.1708 182.156 47.0984 182.773 47.4735C183.623 47.988 184.449 48.7412 185.444 48.7412C185.551 48.7412 185.66 48.7318 185.771 48.7136C186.572 48.5812 187.269 48.2438 188.077 48.1052C188.457 48.0402 188.843 47.8984 189.101 47.6136C189.361 47.3266 189.459 46.8694 189.248 46.5454L188.968 46.2522C188.42 45.7803 187.871 45.3052 187.321 44.8318C187.168 44.7 187.011 44.5667 186.823 44.4907C186.668 44.4292 186.501 44.412 186.333 44.412C186.309 44.412 186.285 44.412 186.261 44.412L185.993 44.4292C185.667 44.4547 185.357 44.4651 185.055 44.4651C184.525 44.4651 184.016 44.4334 183.465 44.3922C183.417 44.388 183.369 44.3864 183.319 44.3864Z" fill="#473526"/>
<path d="M97.7802 69.8984C98.9975 69.8974 100.215 69.8255 101.425 69.6574C100.213 69.8255 98.9975 69.8974 97.7802 69.8984ZM119.807 68.0922C124.177 67.8787 128.197 65.6068 132.531 64.9907C128.199 65.6068 124.177 67.8787 119.807 68.0922ZM33.5324 62.488C34.883 62.488 36.2444 62.4136 37.6064 62.3307C36.2439 62.4136 34.8835 62.488 33.5324 62.488ZM7.78136 56.5214C7.78083 56.5214 7.78083 56.5214 7.78083 56.5214C8.69603 56.5214 9.61416 56.4547 10.5304 56.388C9.61376 56.4547 8.69656 56.5214 7.78136 56.5214ZM0.448564 49.8172C0.82363 48.6828 1.6059 47.6522 2.54963 46.8974C1.6059 47.6531 0.82363 48.6828 0.448564 49.8172ZM18.9986 37.9959C20.9434 37.588 22.9684 37.6412 24.8986 37.1735C22.9684 37.6412 20.9434 37.5891 18.9986 37.9959Z" fill="#8F8277"/>
<path d="M97.7734 69.8984C97.7667 69.8984 97.7587 69.8984 97.752 69.8984C94.24 69.8959 90.7107 69.2984 87.2334 68.7011C81.124 67.6531 75.0147 66.6052 68.9054 65.5574C61.6251 64.3079 54.2246 63.6907 47.023 62.4402C45.6088 62.1948 44.1776 62.1104 42.7364 62.1104C41.2063 62.1104 39.6656 62.2052 38.1266 62.3C38.014 62.3068 37.9011 62.3131 37.788 62.3198C37.7574 62.3214 37.7261 62.324 37.6954 62.3255C37.6949 62.3255 37.6943 62.3255 37.6938 62.3255H37.6932C37.664 62.3282 37.6355 62.3292 37.6063 62.3307C36.2443 62.4136 34.8828 62.488 33.5323 62.488C33.5287 62.488 33.5255 62.488 33.5219 62.488C33.5178 62.488 33.5131 62.488 33.5084 62.488C31.2558 62.4864 29.0298 62.2803 26.8662 61.564C26.826 61.5522 26.7864 61.5386 26.747 61.524C22.849 60.2 19.6047 57.1464 15.5506 56.4344C15.5277 56.4307 15.5042 56.4266 15.4812 56.4224C15.462 56.4198 15.4427 56.4162 15.423 56.4136C14.9031 56.3282 14.3812 56.2839 13.8574 56.2651C13.6626 56.2588 13.4672 56.2558 13.2719 56.2558C12.3615 56.2558 11.4464 56.3214 10.5303 56.388C9.61405 56.4547 8.69591 56.5214 7.78071 56.5214C7.45738 56.5214 7.13392 56.5136 6.81045 56.4932C4.21458 56.335 1.34272 55.0282 0.472982 52.7C0.365648 52.4136 0.289114 52.112 0.246981 51.7959C0.245914 51.788 0.244849 51.7812 0.243783 51.7735C0.221383 51.5984 0.210449 51.424 0.210449 51.2495C0.210449 50.7694 0.293247 50.2959 0.441781 49.8386C0.442714 49.835 0.443782 49.8318 0.445382 49.8282C0.446448 49.8255 0.447383 49.8214 0.44845 49.8172C0.823516 48.6828 1.60578 47.6531 2.54952 46.8974C4.02192 45.7172 5.84485 45.0803 7.62925 44.464C11.9828 42.9615 14.4412 38.9495 18.9984 37.9959C20.9432 37.5891 22.9683 37.6412 24.8984 37.1735C24.9292 37.1667 24.9599 37.1588 24.9907 37.1506C25.0031 37.1479 25.0157 37.1438 25.0287 37.1412C25.0323 37.1402 25.0364 37.1386 25.0407 37.1386C25.0495 37.136 25.0585 37.1334 25.0673 37.1307C25.0719 37.1307 25.076 37.1292 25.0807 37.1282C25.0896 37.1255 25.0974 37.123 25.1063 37.1214C25.1099 37.1198 25.1151 37.1188 25.1188 37.1172C25.1282 37.1146 25.137 37.1136 25.1465 37.1104C25.1501 37.1094 25.1542 37.1079 25.1579 37.1079C25.1698 37.1042 25.1818 37.1011 25.1943 37.0974H25.1948C25.235 37.0864 25.2755 37.0746 25.3156 37.064C25.3162 37.064 25.3162 37.064 25.3173 37.064C31.0798 35.4307 34.599 29.5402 39.5402 26.123C43.3823 28 45.9844 32.7479 50.3823 36.0052C50.3782 36.5198 50.5672 36.9959 51.0282 37.2C51.2214 37.2864 51.4307 37.3068 51.6454 37.3068C51.7479 37.3068 51.8516 37.3027 51.9558 37.2974C52.0594 37.2932 52.1636 37.288 52.2662 37.288C52.2979 37.288 52.3292 37.288 52.3599 37.2896C52.724 37.4959 53.086 37.6839 53.4454 37.8574C53.5391 37.9626 53.6298 38.0719 53.7255 38.1735C54.2746 38.7531 55.0574 39.0266 55.8484 39.0266C56.0694 39.0266 56.2912 39.0052 56.5084 38.964C57.7631 39.2735 59.0027 39.4068 60.2448 39.4068C63.6932 39.4068 67.1527 38.3771 70.9654 37.2224C71.0774 37.188 71.188 37.1558 71.3 37.1255C71.5027 37.1402 71.7054 37.1495 71.9094 37.1531C71.9747 37.1547 72.04 37.1558 72.104 37.1558C73.364 37.1558 74.6147 36.9318 75.8561 36.7104C76.0574 36.676 76.2641 36.6375 76.4574 36.5694C85.2734 37.0828 92.8241 44.6214 102.091 45.5735C102.565 45.6214 103.028 45.6438 103.48 45.6438C106.537 45.6438 109.128 44.6104 111.677 43.576C112.633 43.188 113.583 42.8 114.549 42.4683C119.02 45.0198 122.297 48.5547 126.187 52.8307C129.507 56.4828 131.751 60.9974 134.768 64.8079C134.083 64.8266 133.397 64.876 132.715 64.9651C132.653 64.9735 132.592 64.9812 132.531 64.9907C128.197 65.6068 124.177 67.8787 119.807 68.0922C119.784 68.0932 119.761 68.0948 119.74 68.0959C119.564 68.1027 119.389 68.1079 119.213 68.1094C119.168 68.1094 119.123 68.1094 119.077 68.1094C117.977 68.1094 116.879 68.0016 115.78 67.8932C115.757 67.8907 115.735 67.888 115.712 67.8855C114.645 67.7812 113.58 67.6771 112.511 67.676C112.503 67.676 112.493 67.676 112.485 67.676C112.484 67.676 112.483 67.676 112.481 67.676C112.419 67.676 112.356 67.676 112.293 67.6771C112.227 67.6787 112.159 67.6787 112.092 67.6812C108.537 67.7678 105.14 69.1079 101.623 69.6292C101.556 69.6386 101.491 69.6479 101.425 69.6574C100.215 69.8255 98.9974 69.8974 97.78 69.8984C97.7774 69.8984 97.7747 69.8984 97.7734 69.8984ZM88.8974 53.9412C88.776 53.9412 88.6547 53.9454 88.5334 53.9522C87.6947 54.0027 86.7747 54.3495 86.4507 55.1255C85.8907 56.4708 87.4307 57.6948 88.7334 58.3479C89.8347 58.8984 91.1734 59.4146 92.3667 59.4146C93.1747 59.4146 93.9147 59.1787 94.4734 58.5599C95.3694 57.5651 95.2347 55.9027 94.3654 54.8864C93.5934 53.9839 92.3774 53.5599 91.1827 53.5599C91.0307 53.5599 90.88 53.5667 90.7294 53.5803L91.052 53.9162C90.7774 53.9651 90.5014 53.9803 90.2254 53.9803C90.004 53.9803 89.7827 53.9708 89.5614 53.9615C89.34 53.9506 89.1174 53.9412 88.8974 53.9412ZM111.268 53.2292C111.692 53.2292 112.096 53.3027 112.432 53.5547C112.723 53.7735 112.913 54.1 113.18 54.347C113.489 54.6318 113.868 54.7574 114.259 54.7574C115.371 54.7574 116.579 53.7438 116.548 52.547C116.507 51.0162 114.939 49.8588 113.404 49.8588C113.316 49.8588 113.228 49.8615 113.141 49.8694L112.479 50.636C111.979 50.4318 111.437 50.3307 110.897 50.3307C110.283 50.3307 109.669 50.4615 109.112 50.7214C108.448 51.0292 107.804 51.6864 107.98 52.3974C108.152 53.0948 108.965 53.3522 109.715 53.3522C109.824 53.3522 109.931 53.347 110.035 53.336C110.436 53.2959 110.861 53.2292 111.268 53.2292ZM64.7782 48.5386L65.3984 48.8438C63.8948 48.9667 62.3568 49.0959 60.9807 49.7136C59.6042 50.3307 58.3954 51.5402 58.2042 53.036C58.7667 53.5188 59.4912 53.7068 60.2396 53.7068C60.7927 53.7068 61.3584 53.6042 61.8818 53.4412C63.112 53.0588 64.2547 52.4 65.5183 52.147C66.0312 52.0454 66.5984 51.9922 66.9735 51.6282C67.526 51.0907 67.3552 50.1094 66.823 49.5522C66.2912 48.9959 65.5162 48.7558 64.7782 48.5386ZM42.7 47.0891C42.435 47.0891 42.1522 47.0948 41.9328 47.247C41.4339 47.5891 41.6646 48.4375 42.1776 48.7615C42.6912 49.0839 43.3364 49.0735 43.937 49.1599C44.9662 49.3104 45.9448 49.7948 46.6902 50.5214C46.7522 50.5266 46.814 50.5292 46.876 50.5292C48.0536 50.5292 49.1631 49.4948 49.2006 48.3079C49.2307 47.3599 48.6438 46.3016 47.7334 46.3016C47.5266 46.3016 47.3031 46.3558 47.0667 46.4771C46.7527 46.6402 46.4328 46.7599 46.1094 46.8495C45.324 47.064 44.5115 47.0948 43.6751 47.0948C43.3531 47.0948 43.0282 47.0891 42.7 47.0891ZM24.7292 44.2334C24.5626 44.2334 24.3984 44.2506 24.2375 44.2922L24.0183 44.3588C23.7198 44.4615 23.435 44.6052 23.1361 44.7079C22.3339 44.9828 20.7402 44.988 20.7448 46.2588C20.747 46.7224 21.2088 47.0318 21.6266 47.235C23.1818 47.9839 24.885 48.4282 26.6088 48.5307C26.7052 48.536 26.8042 48.5386 26.9042 48.5386C27.4438 48.5386 28.0047 48.436 28.3146 48.0136C28.5656 47.6708 28.574 47.2052 28.5 46.788C28.3459 45.9266 27.85 45.0214 26.9927 44.788C26.3011 44.6 25.4918 44.2334 24.7292 44.2334ZM75.976 43.4746C74.9427 43.4746 73.7387 43.8771 73.7267 44.8667C73.716 45.7599 74.7534 46.2839 75.6427 46.3626C76.532 46.4386 77.504 46.3104 78.252 46.7984C78.5387 46.988 78.7667 47.2531 79.0454 47.4547C79.376 47.6922 79.7707 47.8 80.1694 47.8C81.136 47.8 82.1334 47.1683 82.3574 46.2079C82.6507 44.9479 81.4947 43.6052 80.228 43.6052C80.1307 43.6052 80.0334 43.6136 79.936 43.6292L78.9081 43.9531C78.0454 43.7094 77.1587 43.5531 76.2654 43.4855C76.1707 43.4787 76.0747 43.4746 75.976 43.4746ZM40.5104 36.8974C41.0542 36.8974 41.576 36.964 42 37.2531C42.2287 37.4104 42.4178 37.6292 42.6719 37.7402C42.7875 37.7896 42.9031 37.812 43.0167 37.812C43.7084 37.812 44.3198 36.9599 44.3099 36.1922C44.2922 34.8282 42.973 33.6771 41.6391 33.6771C41.4189 33.6771 41.1984 33.7094 40.9828 33.776L41.8599 34.1891C41.1178 33.9318 40.3292 33.6735 39.5574 33.6735C39.2651 33.6735 38.9755 33.7094 38.6918 33.7984C37.6563 34.1188 36.8891 35.4506 37.5318 36.3224C37.9126 36.8402 38.5088 36.9427 39.1694 36.9427C39.386 36.9427 39.6094 36.9307 39.8344 36.9198C40.0599 36.9094 40.287 36.8974 40.5104 36.8974Z" fill="#36271A"/>
<path d="M175.097 31.8145C175.092 31.812 175.085 31.8104 175.079 31.8078C175.085 31.8104 175.091 31.812 175.097 31.8145ZM175.04 31.7948C175.029 31.7921 175.02 31.788 175.009 31.7854C175.02 31.788 175.031 31.7921 175.04 31.7948ZM174.921 31.7557C172.916 31.1136 170.764 31.1213 168.697 30.7041C170.764 31.1197 172.916 31.1136 174.921 31.7557ZM100.369 0.278628C100.911 0.240095 101.457 0.221287 102.008 0.221287C101.459 0.221287 100.911 0.240095 100.369 0.278628Z" fill="white"/>
<path d="M149.248 46.6333C149.251 46.5682 149.249 46.5026 149.243 46.436C149.153 45.4136 147.989 44.2281 146.953 44.0401C146.68 43.9958 146.4 44.0213 146.125 43.9906C145.272 43.8973 144.56 43.2932 143.731 43.0708C143.567 43.0265 143.4 42.9984 143.231 42.9864C143.079 42.8598 142.919 42.7333 142.751 42.6068C139.735 40.3224 136.491 39.6172 133.873 36.612C132.628 35.1802 131.808 33.388 130.679 31.8437C131.227 32.0802 131.799 32.2254 132.393 32.2254C132.497 32.2254 132.603 32.2213 132.709 32.212C133.797 32.1172 135.137 31.2802 135.453 30.1745C135.737 29.1864 135.603 27.9812 134.641 27.4786C134.449 27.3786 134.255 27.2921 134.059 27.2172C133.433 26.9802 132.789 26.8734 132.145 26.8734C130.797 26.8734 129.445 27.3412 128.233 28.064C127.903 28.2614 127.556 28.5557 127.433 28.8973C123.887 26.7197 119.743 26.5786 115.507 26.5188C108.785 26.424 105.477 25.3494 103.584 21.5333C104.613 21.1505 105.6 20.6412 106.676 20.4254C107.189 20.324 107.755 20.2708 108.131 19.9078C108.765 19.2906 108.495 18.3306 107.823 17.9401C107.407 17.6984 106.957 17.5317 106.489 17.4306C106.087 17.3426 105.672 17.3026 105.253 17.3026C104.251 17.3026 103.233 17.5349 102.344 17.9026C102.177 17.2016 102.025 16.4453 101.884 15.6317C100.975 10.4026 100.059 5.09317 96.5107 0.910371C97.6121 0.637437 98.7294 0.430638 99.8721 0.319705C99.8734 0.319705 99.8734 0.319705 99.8748 0.319705C99.8881 0.318772 99.9014 0.317166 99.9147 0.3161C100.041 0.3041 100.168 0.293174 100.295 0.283841C100.32 0.282774 100.344 0.28024 100.369 0.27864C100.911 0.240107 101.459 0.2213 102.008 0.2213C102.009 0.2213 102.009 0.2213 102.011 0.2213C102.017 0.2213 102.024 0.2213 102.031 0.2213C107.137 0.225433 112.555 1.83491 117.104 3.90264C121.736 6.00784 124.861 10.2172 129.401 12.4292C134.071 14.7052 139.624 14.2016 144.544 15.864C153.576 18.9213 159.351 28.8224 168.697 30.7041C170.764 31.1213 172.916 31.1136 174.921 31.7557C174.941 31.7625 174.961 31.7693 174.981 31.776C174.991 31.7786 175 31.7828 175.009 31.7854C175.02 31.788 175.029 31.7921 175.04 31.7948C175.053 31.8 175.065 31.8041 175.079 31.8078C175.085 31.8104 175.092 31.812 175.097 31.8145C175.113 31.8197 175.128 31.8254 175.143 31.8306C175.147 31.8317 175.151 31.8333 175.155 31.8349C175.172 31.8401 175.189 31.8469 175.207 31.8521C175.208 31.853 175.208 31.853 175.209 31.853C177.543 32.677 179.433 34.2864 181.268 36.0136L180.977 36.1026C177.733 36.9693 175.145 36.8426 172.239 37.6093C171.895 36.1401 169.899 35.6693 168.32 35.5734L168.892 35.864C167.884 35.6812 166.855 35.4973 165.836 35.4973C165.317 35.4973 164.801 35.5453 164.293 35.665C162.788 36.0197 161.36 37.1802 161.2 38.7172C161.167 39.0453 161.203 39.4104 161.432 39.6469C161.617 39.8385 161.86 39.8973 162.124 39.8973C162.468 39.8973 162.849 39.7984 163.195 39.765C163.273 39.7588 163.352 39.7546 163.429 39.7546C164.244 39.7546 164.995 40.1521 165.753 40.5374C164.72 41.0437 163.648 41.4802 162.363 41.764C157.665 42.8041 155.801 43.5734 151.685 45.6349C151.667 45.6426 151.649 45.6521 151.632 45.6614C151.625 45.664 151.619 45.6682 151.612 45.6708C151.605 45.6745 151.597 45.677 151.591 45.6812C150.833 46.0546 150.049 46.3693 149.248 46.6333ZM148.835 34.8469C147.88 34.8469 147.019 35.2317 146.551 36.2188C145.983 37.4213 146.373 37.936 147.42 38.4598C148.116 38.8068 149.124 38.6494 149.887 38.9734C150.507 39.2374 150.891 39.8614 151.603 39.9614C151.663 39.9693 151.723 39.9734 151.78 39.9734C153.024 39.9734 153.661 38.0693 152.931 36.9786C152.345 36.1093 151.121 35.2984 149.875 34.9828C149.525 34.8948 149.173 34.8469 148.835 34.8469ZM153.605 26.8734C152.497 26.8734 151.437 27.2292 150.831 28.0349C150.588 28.3573 150.401 28.7213 150.128 29.0172C149.463 29.7374 148.243 30.1854 148.289 31.1625C148.343 32.2854 149.809 32.7317 151.559 32.7317C153.984 32.7317 156.952 31.8734 157.46 30.7598C158.281 28.9614 156.888 27.5948 155.119 27.088C154.631 26.9478 154.112 26.8734 153.605 26.8734ZM137.964 19.1521C136.959 19.1521 135.935 19.3306 135.087 19.5598C132.117 20.364 134.177 23.1854 135.945 24.0708C137.048 24.6213 138.385 25.136 139.579 25.136C140.387 25.1374 141.128 24.9016 141.687 24.2812C142.881 22.9546 142.195 20.8478 140.857 19.9068C140.147 19.4068 139.231 19.1948 138.279 19.1573C138.175 19.153 138.069 19.1521 137.964 19.1521ZM119.957 17.6682C119.848 17.6682 119.737 17.6734 119.629 17.6854C119.019 17.7478 118.431 17.989 117.951 18.424C117.493 18.8401 117.261 19.5745 117.601 20.0906C117.824 20.4265 118.224 20.5921 118.605 20.7197C119.672 21.1197 120.784 21.1854 121.905 21.2718C121.991 21.2786 122.073 21.2828 122.149 21.2828C124.283 21.2828 122.772 18.776 121.677 18.1385C121.149 17.8292 120.551 17.6682 119.957 17.6682ZM116.333 10.5828C114.896 10.6708 113.577 12.1213 114.2 13.5973C114.616 14.5838 115.697 15.1254 116.776 15.1254C117.184 15.1254 117.591 15.0478 117.963 14.889C118.575 14.6254 119.135 14.1412 119.303 13.4973C119.715 11.9265 118.037 10.6854 116.628 10.5828H116.333ZM107.144 4.37184C106.977 4.37184 106.812 4.39063 106.652 4.43063L106.432 4.49584C106.135 4.59837 105.849 4.7453 105.551 4.8469C104.749 5.1213 103.155 5.1265 103.159 6.39837C103.161 6.86143 103.624 7.17184 104.04 7.37344C105.596 8.12397 107.299 8.56664 109.024 8.66931C109.119 8.67451 109.217 8.67864 109.317 8.67864C109.857 8.67864 110.419 8.5745 110.729 8.1521C110.98 7.8093 110.989 7.3453 110.915 6.92543C110.76 6.06663 110.265 5.15983 109.407 4.9265C108.715 4.73743 107.907 4.37184 107.144 4.37184Z" fill="#725B43"/>
<path d="M94.0372 14.8469C92.5905 14.8469 91.1345 14.2828 89.8558 13.5557C88.0932 12.5557 87.7718 10.536 89.1585 8.96252C89.9678 8.04372 91.2505 7.74373 92.5398 7.74373C92.5518 7.74373 92.5625 7.74373 92.5745 7.74373C93.6225 7.74786 94.6718 7.94786 95.4705 8.17599C96.6172 8.50413 97.7052 9.28546 98.0785 10.4197C98.6732 12.2281 97.1492 14.2145 95.3052 14.6907C94.8865 14.7984 94.4625 14.8469 94.0372 14.8469Z" fill="#402F21"/>
<path d="M116.776 15.1255C115.697 15.1255 114.616 14.5839 114.2 13.5974C113.577 12.1214 114.896 10.6708 116.333 10.5828H116.628C118.037 10.6855 119.714 11.9266 119.302 13.4974C119.134 14.1412 118.574 14.6255 117.962 14.8891C117.59 15.0479 117.184 15.1255 116.776 15.1255Z" fill="#4B3827"/>
<path d="M139.579 25.136C138.385 25.136 137.048 24.6213 135.945 24.0708C134.177 23.1854 132.117 20.364 135.087 19.5598C135.935 19.3306 136.959 19.1521 137.964 19.1521C138.069 19.1521 138.175 19.153 138.279 19.1573C139.231 19.1948 140.147 19.4068 140.857 19.9068C142.195 20.8478 142.881 22.9546 141.687 24.2812C141.128 24.9016 140.387 25.1374 139.579 25.136Z" fill="#4B3827"/>
<path d="M92.3668 59.4146C91.1735 59.4146 89.8348 58.8984 88.7335 58.3479C87.4308 57.6948 85.8908 56.4708 86.4508 55.1255C86.7748 54.3495 87.6948 54.0027 88.5335 53.9521C88.6548 53.9453 88.7761 53.9412 88.8975 53.9412C89.1175 53.9412 89.3401 53.9505 89.5614 53.9615C89.7828 53.9708 90.0041 53.9803 90.2254 53.9803C90.5014 53.9803 90.7775 53.9651 91.0521 53.9162L90.7294 53.5803C90.8801 53.5667 91.0308 53.5599 91.1828 53.5599C92.3775 53.5599 93.5935 53.9839 94.3655 54.8864C95.2348 55.9027 95.3695 57.5651 94.4735 58.5599C93.9148 59.1787 93.1748 59.4146 92.3668 59.4146Z" fill="#24180F"/>
<path d="M151.559 32.7317C149.809 32.7317 148.343 32.2854 148.289 31.1625C148.243 30.1854 149.463 29.7374 150.128 29.0172C150.401 28.7213 150.588 28.3573 150.831 28.0349C151.437 27.2292 152.497 26.8734 153.605 26.8734C154.112 26.8734 154.631 26.9478 155.119 27.088C156.888 27.5948 158.281 28.9614 157.46 30.7598C156.952 31.8734 153.984 32.7317 151.559 32.7317Z" fill="#4B3827"/>
<path d="M122.149 21.2827C122.073 21.2827 121.99 21.2786 121.905 21.2718C120.784 21.1854 119.672 21.1197 118.605 20.7197C118.224 20.5921 117.824 20.4265 117.601 20.0906C117.261 19.5745 117.493 18.8401 117.95 18.4239C118.43 17.989 119.018 17.7478 119.629 17.6854C119.737 17.6734 119.848 17.6682 119.957 17.6682C120.55 17.6682 121.149 17.8291 121.677 18.1385C122.772 18.7759 124.282 21.2827 122.149 21.2827Z" fill="#4B3827"/>
<path d="M101.396 21.9854C100.648 21.9854 99.924 21.7972 99.3613 21.3144C99.552 19.8187 100.761 18.6092 102.137 17.992C102.205 17.9614 102.275 17.9316 102.344 17.9026C102.684 19.3264 103.085 20.5254 103.584 21.5332C103.404 21.5999 103.223 21.6624 103.039 21.7196C102.516 21.8827 101.949 21.9854 101.396 21.9854Z" fill="#402F21"/>
<path d="M103.584 21.5332C103.085 20.5253 102.684 19.3264 102.344 17.9025C103.233 17.5348 104.25 17.3025 105.253 17.3025C105.672 17.3025 106.086 17.3425 106.489 17.4305C106.957 17.5316 107.406 17.6983 107.822 17.94C108.494 18.3305 108.765 19.2905 108.13 19.9077C107.754 20.2707 107.189 20.3239 106.676 20.4253C105.6 20.6411 104.613 21.1504 103.584 21.5332Z" fill="#4B3827"/>
<path d="M60.2396 53.7068C59.4912 53.7068 58.7666 53.5188 58.2041 53.036C58.3953 51.5401 59.6041 50.3307 60.9806 49.7136C62.3568 49.0959 63.8948 48.9667 65.3984 48.8437L64.7781 48.5385C65.5161 48.7557 66.2912 48.9959 66.8229 49.5521C67.3552 50.1093 67.526 51.0907 66.9734 51.6281C66.5984 51.9921 66.0312 52.0453 65.5182 52.1469C64.2546 52.4 63.112 53.0588 61.8817 53.4412C61.3584 53.6041 60.7926 53.7068 60.2396 53.7068Z" fill="#24180F"/>
<path d="M87.6439 22.6387C87.5439 22.6387 87.4452 22.6351 87.3479 22.6293C85.6239 22.5283 83.9199 22.084 82.3652 21.3335C81.9479 21.1335 81.4852 20.8215 81.4839 20.3575C81.4799 19.0865 83.0732 19.0829 83.8746 18.8069C84.1746 18.7043 84.4586 18.56 84.7572 18.4575L84.9759 18.3908C85.1372 18.3507 85.3012 18.3319 85.4679 18.3319C86.2306 18.3319 87.0399 18.6985 87.7319 18.8865C88.5892 19.1215 89.0852 20.0267 89.2386 20.8865C89.3132 21.3043 89.3052 21.7695 89.0532 22.1121C88.7439 22.5351 88.1839 22.6387 87.6439 22.6387Z" fill="#402F21"/>
<path d="M109.317 8.67871C109.217 8.67871 109.119 8.67458 109.024 8.66938C107.299 8.56671 105.596 8.12404 104.04 7.37351C103.624 7.17191 103.161 6.8615 103.159 6.39844C103.155 5.12657 104.749 5.12137 105.551 4.84697C105.849 4.74537 106.135 4.59844 106.432 4.49591L106.652 4.43071C106.812 4.39071 106.977 4.37191 107.144 4.37191C107.907 4.37191 108.715 4.7375 109.407 4.92657C110.265 5.1599 110.76 6.0667 110.915 6.9255C110.989 7.34537 110.98 7.80937 110.729 8.15217C110.419 8.57457 109.857 8.67871 109.317 8.67871Z" fill="#4B3827"/>
<path d="M26.904 48.5386C26.804 48.5386 26.705 48.536 26.6086 48.5307C24.8848 48.4282 23.1816 47.9839 21.6264 47.235C21.2086 47.0318 20.7468 46.7224 20.7446 46.2588C20.74 44.988 22.3337 44.9828 23.1358 44.7079C23.4348 44.6052 23.7196 44.4615 24.0181 44.3588L24.2373 44.2922C24.3982 44.2506 24.5624 44.2334 24.729 44.2334C25.4916 44.2334 26.3009 44.6 26.9925 44.788C27.8498 45.0214 28.3457 45.9266 28.4998 46.788C28.5738 47.2052 28.5654 47.6708 28.3144 48.0136C28.0045 48.436 27.4436 48.5386 26.904 48.5386Z" fill="#24180F"/>
<path d="M56.0592 28.835C56.0238 28.835 55.9878 28.8334 55.9525 28.8318C55.0086 28.7907 54.0561 27.9402 54.2493 27.0162C54.3566 26.5016 54.7696 26.1104 55.1968 25.8042C56.4618 24.8959 57.9638 24.4188 59.352 23.7412C59.9498 23.4506 60.3258 22.9719 60.9436 22.736C61.492 22.5282 62.1384 22.4828 62.5457 22.0079C62.6394 21.8974 62.7118 21.7708 62.7826 21.6438C62.8701 21.4891 62.9556 21.335 63.0758 21.2068C63.4045 20.8588 63.8572 20.7214 64.3452 20.7214C65.2618 20.7214 66.3025 21.2042 66.8728 21.6683C68.2514 22.7864 68.4998 25.2574 67.0244 26.2438C66.5253 26.5771 65.9728 26.6864 65.391 26.6864C64.8332 26.6864 64.2488 26.5864 63.6586 26.4864C63.0686 26.3855 62.4728 26.2855 61.8925 26.2855C61.578 26.2855 61.2681 26.3146 60.966 26.3891C60.0493 26.6162 59.2941 27.2427 58.5301 27.7984C57.7957 28.3334 56.9613 28.835 56.0592 28.835Z" fill="#312317"/>
<path d="M124.275 37.877C123.941 37.877 123.604 37.7411 123.287 37.6187C122.444 37.2947 121.717 37.1411 120.916 37.1411C120.591 37.1411 120.253 37.1665 119.891 37.216C119.671 37.2468 119.443 37.2692 119.219 37.2692C118.856 37.2692 118.5 37.2092 118.192 37.0239C116.335 35.9119 118.919 33.3384 120.463 33.3384C120.523 33.3384 120.581 33.3426 120.637 33.3504L121.335 33.1692C121.637 33.0504 121.951 32.9958 122.264 32.9958C124.056 32.9958 125.829 34.7827 125.481 36.6135C125.381 37.1411 125.083 37.692 124.565 37.8384C124.469 37.865 124.372 37.877 124.275 37.877Z" fill="#402F21"/>
<path d="M151.78 39.9734C151.723 39.9734 151.663 39.9693 151.603 39.9614C150.891 39.8614 150.507 39.2374 149.887 38.9734C149.124 38.6494 148.116 38.8067 147.42 38.4598C146.374 37.9359 145.983 37.4213 146.551 36.2187C147.019 35.2317 147.88 34.8469 148.835 34.8469C149.174 34.8469 149.526 34.8947 149.875 34.9827C151.122 35.2983 152.346 36.1093 152.931 36.9786C153.662 38.0693 153.024 39.9734 151.78 39.9734Z" fill="#4B3827"/>
<path d="M71.3001 37.1255C69.4574 36.9864 67.6684 36.3948 65.9089 35.8079C65.5876 35.7016 65.2517 35.5855 65.0266 35.3334C64.3902 34.6172 65.134 33.4479 66.0313 33.112C66.9282 32.7771 67.9553 32.8626 68.8148 32.4412C69.3334 32.188 69.7508 31.7694 70.2108 31.4198C71.2574 30.6255 72.5708 30.1891 73.8841 30.1891C74.0334 30.1891 74.1828 30.1959 74.3321 30.2068L74.0508 30.2172C76.4321 30.3068 78.3161 33.0292 77.5614 35.2907C77.4041 35.7626 77.1321 36.2255 76.6961 36.4651C76.6188 36.5068 76.5388 36.5412 76.4574 36.5694C76.1454 36.5522 75.8334 36.5427 75.5201 36.5427C74.1494 36.5427 72.7468 36.7198 71.3001 37.1255Z" fill="#312317"/>
<path d="M72.1038 37.1558C72.0398 37.1558 71.9745 37.1547 71.9091 37.1531C71.7051 37.1495 71.5025 37.1402 71.2998 37.1255C72.7465 36.7198 74.1491 36.5427 75.5198 36.5427C75.8331 36.5427 76.1451 36.5522 76.4571 36.5694C76.2638 36.6375 76.0571 36.676 75.8558 36.7104C74.6145 36.9318 73.3638 37.1558 72.1038 37.1558Z" fill="#24180F"/>
<path d="M86.7305 29.9651C86.5411 29.9651 86.3838 29.9588 86.2651 29.9454C83.8411 29.6651 81.5771 29.0307 79.5918 27.9266C79.6878 27.5547 80.0611 27.2307 80.4158 27.0198C81.6265 26.2959 82.9785 25.8292 84.3265 25.8292C84.9705 25.8292 85.6145 25.936 86.2411 26.1735C86.4371 26.2479 86.6318 26.335 86.8238 26.4344C87.7838 26.936 87.9198 28.1427 87.6358 29.1307C87.5505 29.4282 87.3905 29.7068 87.1811 29.9563C87.0171 29.9615 86.8651 29.9651 86.7305 29.9651Z" fill="#402F21"/>
<path d="M84.5762 31.1812C82.8922 31.1812 81.3962 30.0161 80.0855 28.912C79.8829 28.7412 79.6709 28.5557 79.5975 28.3016C79.5602 28.1718 79.5615 28.0469 79.5922 27.9265C81.5775 29.0306 83.8415 29.665 86.2655 29.9453C86.3842 29.9588 86.5415 29.965 86.7309 29.965C86.8655 29.965 87.0175 29.9614 87.1815 29.9562C86.6149 30.6317 85.6869 31.0973 84.8909 31.1682C84.7855 31.177 84.6802 31.1812 84.5762 31.1812Z" fill="#312317"/>
<path d="M130.679 31.8438C129.676 31.4104 128.751 30.6708 127.904 29.9573C127.701 29.7864 127.488 29.6 127.415 29.3469C127.369 29.1907 127.381 29.0401 127.433 28.8973C128.105 29.3093 128.756 29.7959 129.381 30.3667C129.869 30.8145 130.292 31.3146 130.679 31.8438Z" fill="#402F21"/>
<path d="M132.393 32.2256C131.798 32.2256 131.226 32.0804 130.678 31.8439C130.292 31.3147 129.869 30.8147 129.381 30.3668C128.756 29.796 128.105 29.3095 127.433 28.8975C127.556 28.5559 127.902 28.2616 128.233 28.0641C129.445 27.3413 130.797 26.8736 132.145 26.8736C132.789 26.8736 133.433 26.9804 134.058 27.2173C134.254 27.2923 134.449 27.3788 134.641 27.4788C135.602 27.9813 135.737 29.1865 135.453 30.1747C135.137 31.2804 133.797 32.1173 132.709 32.2121C132.602 32.2215 132.497 32.2256 132.393 32.2256Z" fill="#4B3827"/>
<path d="M79.4133 16.7588C79.3653 16.7588 79.3173 16.7573 79.2693 16.7573C77.9733 16.7333 76.6787 16.7104 75.3827 16.6891C74.244 16.6683 72.8147 16.4344 72.516 15.3375C72.2093 14.2104 73.468 13.2333 74.6267 13.0907C74.8653 13.0615 75.1053 13.0521 75.3467 13.0521C75.6027 13.0521 75.86 13.0625 76.1173 13.0745C76.3747 13.0855 76.6307 13.0973 76.8853 13.0973C77.3013 13.0973 77.7133 13.0667 78.116 12.9588L78.1413 13.0027C78.3013 12.9573 78.4627 12.936 78.6227 12.936C79.9787 12.936 81.24 14.4735 80.7693 15.8027C80.632 16.1891 80.3587 16.5505 79.972 16.6855C79.7933 16.7469 79.604 16.7588 79.4133 16.7588Z" fill="#402F21"/>
<path d="M168.239 41.2771C167.827 41.2771 167.415 41.2172 167.02 41.0922C166.587 40.9563 166.169 40.7479 165.753 40.5375C166.833 40.0079 167.871 39.4016 169.065 38.8068C170.188 38.2479 171.233 37.876 172.239 37.6094C172.256 37.6839 172.269 37.7615 172.279 37.8412C172.347 38.464 172.08 39.0803 171.705 39.5828C170.905 40.6547 169.568 41.2771 168.239 41.2771Z" fill="#2F2116"/>
<path d="M165.753 40.5376C164.995 40.1523 164.244 39.7548 163.429 39.7548C163.352 39.7548 163.273 39.7589 163.195 39.7652C162.849 39.7985 162.468 39.8975 162.124 39.8975C161.86 39.8975 161.617 39.8387 161.432 39.6471C161.203 39.4105 161.167 39.0455 161.2 38.7173C161.36 37.1804 162.788 36.0199 164.293 35.6652C164.801 35.5455 165.317 35.4975 165.836 35.4975C166.855 35.4975 167.884 35.6813 168.892 35.8641L168.32 35.5736C169.899 35.6695 171.895 36.1403 172.239 37.6095C171.233 37.8761 170.188 38.248 169.065 38.8069C167.871 39.4017 166.833 40.008 165.753 40.5376Z" fill="#4B3827"/>
<path d="M143.559 47.6958C143.184 47.4707 142.832 47.2093 142.509 46.9161C142.095 46.5374 141.739 46.0879 141.332 45.7359C140.948 45.4015 140.595 45.1906 140.687 44.5802C140.761 44.089 141.117 43.6802 141.535 43.4119C141.979 43.1281 142.505 42.9802 143.032 42.9802C143.099 42.9802 143.164 42.9811 143.231 42.9863C144.949 44.4171 145.745 45.8614 146.329 47.3614C147.317 47.1854 148.296 46.9453 149.248 46.6333C149.248 46.6374 149.248 46.6426 149.248 46.6478C147.415 47.2666 145.489 47.6145 143.559 47.6958Z" fill="#402F21"/>
<path d="M146.405 48.5803C146.231 48.5803 146.06 48.5683 145.893 48.5427C145.068 48.4198 144.273 48.1255 143.559 47.6959C145.489 47.6146 147.415 47.2667 149.248 46.6479C149.195 47.8683 147.733 48.5803 146.405 48.5803Z" fill="#2F2116"/>
<path d="M146.329 47.3613C145.745 45.8613 144.949 44.4171 143.23 42.9863C143.4 42.9983 143.566 43.0264 143.73 43.0707C144.56 43.2931 145.272 43.8972 146.125 43.9905C146.4 44.0212 146.68 43.9957 146.953 44.04C147.989 44.228 149.153 45.4135 149.242 46.4359C149.249 46.5025 149.25 46.5681 149.248 46.6332C148.296 46.9452 147.317 47.1853 146.329 47.3613Z" fill="#4B3827"/>
<path d="M133.551 41.7759C133.072 41.7759 132.575 41.7015 132.135 41.5972C131.344 41.4092 130.445 41.1348 130.131 40.3853C129.796 39.5853 130.368 38.6411 131.145 38.2572C131.687 37.9905 132.292 37.9253 132.901 37.9253C133.167 37.9253 133.433 37.9384 133.696 37.952L133.395 37.9681C134.556 38.5171 135.935 39.5436 135.504 40.7545C135.228 41.528 134.421 41.7759 133.551 41.7759Z" fill="#402F21"/>
<path d="M107.783 34.0308C107.717 34.0308 107.652 34.0266 107.585 34.0173C107.181 33.9574 106.827 33.7256 106.441 33.5856C105.211 33.1386 103.515 33.5225 102.82 32.4137C101.601 30.4694 103.815 29.3162 106.033 29.3162C106.597 29.3162 107.161 29.3908 107.669 29.5454C109.004 29.9532 109.955 30.9137 109.509 32.5334C109.293 33.3241 108.581 34.0308 107.783 34.0308Z" fill="#402F21"/>
<path d="M93.1278 42.0454C92.3318 42.0454 91.3745 41.5881 90.9745 40.9413C90.3118 39.8683 90.9651 38.3454 92.0771 37.7522C92.6905 37.4241 93.2665 37.2615 93.8651 37.2615C94.2985 37.2615 94.7438 37.3479 95.2238 37.5189C95.4011 37.5829 95.5785 37.6547 95.7598 37.7079C95.9038 37.7495 96.0505 37.7803 96.1998 37.7803C96.2145 37.7803 96.2291 37.7787 96.2438 37.7787C96.8811 37.7574 97.4238 37.1985 98.0531 37.1985C98.0785 37.1985 98.1038 37.2001 98.1291 37.2017C98.6171 37.2386 99.0091 37.6241 99.2745 38.0361C99.7211 38.7255 99.9451 39.5641 99.8558 40.3787C99.7931 40.9413 99.5358 41.5375 99.0198 41.7678C98.8571 41.8413 98.6825 41.8709 98.5065 41.8709C98.2425 41.8709 97.9718 41.8042 97.7225 41.7121C97.3065 41.5574 96.9131 41.3361 96.4798 41.2361C96.3131 41.1974 96.1558 41.1813 96.0051 41.1813C95.0091 41.1813 94.3291 41.9189 93.3465 42.0334C93.2758 42.0413 93.2025 42.0454 93.1278 42.0454Z" fill="#312317"/>
<path d="M56.5085 38.9639C55.4995 38.716 54.4807 38.3529 53.4454 37.8572C53.2829 37.6733 53.1121 37.4983 52.8907 37.3983C52.7235 37.3223 52.5443 37.2957 52.3599 37.2895C52.0599 37.1196 51.7585 36.9384 51.4547 36.7452C51.0855 36.5092 50.7282 36.2613 50.3823 36.0051C50.3855 35.6119 50.5022 35.1957 50.6974 34.8624C51.3089 33.8187 52.3085 33.0863 53.4225 33.0863C53.8313 33.0863 54.2553 33.1853 54.6807 33.4025C55.1637 33.6477 55.5626 34.0681 56.0683 34.2425L56.2079 34.2837C56.3522 34.3187 56.5001 34.3305 56.6485 34.3305C56.8438 34.3305 57.0413 34.3092 57.2365 34.2931C57.3615 34.2827 57.4886 34.2744 57.6151 34.2744C57.8355 34.2744 58.0537 34.2999 58.2553 34.3837C59.185 34.7733 58.9995 36.7332 58.6298 37.4613C58.2173 38.2744 57.3979 38.792 56.5085 38.9639Z" fill="#312317"/>
<path d="M55.8485 39.0266C55.0575 39.0266 54.2747 38.7532 53.7256 38.1736C53.6299 38.072 53.5392 37.9626 53.4455 37.8574C54.4808 38.3531 55.4996 38.7162 56.5085 38.9641C56.2913 39.0053 56.0695 39.0266 55.8485 39.0266ZM51.6455 37.3069C51.4308 37.3069 51.2215 37.2865 51.0283 37.2001C50.5673 36.9959 50.3783 36.5198 50.3824 36.0053C50.7283 36.2615 51.0856 36.5094 51.4548 36.7454C51.7585 36.9386 52.06 37.1198 52.36 37.2897C52.3293 37.2881 52.298 37.2881 52.2663 37.2881C52.1637 37.2881 52.0595 37.2933 51.9559 37.2974C51.8517 37.3027 51.748 37.3069 51.6455 37.3069Z" fill="#24180F"/>
<path d="M80.1693 47.8C79.7707 47.8 79.376 47.6922 79.0453 47.4547C78.7666 47.2531 78.5387 46.988 78.252 46.7984C77.504 46.3104 76.532 46.4386 75.6426 46.3626C74.7533 46.2839 73.716 45.7599 73.7266 44.8667C73.7386 43.8771 74.9426 43.4746 75.976 43.4746C76.0746 43.4746 76.1706 43.4787 76.2653 43.4855C77.1586 43.5531 78.0453 43.7094 78.908 43.9531L79.936 43.6292C80.0333 43.6136 80.1306 43.6052 80.228 43.6052C81.4946 43.6052 82.6507 44.9479 82.3573 46.2079C82.1333 47.1683 81.136 47.8 80.1693 47.8Z" fill="#24180F"/>
<path d="M114.259 54.7573C113.868 54.7573 113.489 54.6317 113.18 54.3469C112.913 54.1 112.723 53.7735 112.432 53.5547C112.096 53.3027 111.692 53.2292 111.268 53.2292C110.861 53.2292 110.436 53.2959 110.035 53.336C109.931 53.3469 109.824 53.3521 109.715 53.3521C108.965 53.3521 108.152 53.0948 107.98 52.3973C107.804 51.6864 108.448 51.0292 109.112 50.7213C109.669 50.4615 110.283 50.3307 110.897 50.3307C111.437 50.3307 111.979 50.4317 112.479 50.636L113.141 49.8693C113.228 49.8615 113.316 49.8588 113.404 49.8588C114.939 49.8588 116.507 51.0161 116.548 52.5469C116.579 53.7437 115.371 54.7573 114.259 54.7573Z" fill="#24180F"/>
<path d="M148.638 56.488C148.526 56.488 148.412 56.4828 148.302 56.4787C146.498 56.4104 144.339 56.212 143.062 54.735C141.65 53.1027 142.886 51.9588 144.878 51.7282C145.243 51.6855 145.618 51.6615 145.991 51.6615C146.26 51.6615 146.53 51.6735 146.796 51.7016C147.968 51.8255 149.082 52.2522 149.872 53.2136C150.678 54.1891 150.542 55.9984 149.34 56.3948C149.114 56.4694 148.876 56.488 148.638 56.488Z" fill="#2F2116"/>
<path d="M169.073 51.123C168.692 51.123 168.315 51.0282 167.981 50.8214C167.612 50.5922 167.299 50.2558 166.881 50.1318C166.457 50.0069 165.992 50.1214 165.568 49.9985C164.561 49.7094 164.403 48.1908 165.092 47.4042C165.783 46.6146 166.927 46.4173 167.975 46.4069L168.403 46.6282C168.628 46.5438 168.861 46.5053 169.093 46.5053C170.397 46.5053 171.693 47.7225 171.559 49.0626C171.439 50.2522 170.236 51.123 169.073 51.123Z" fill="#2F2116"/>
<path d="M185.444 48.7412C184.449 48.7412 183.623 47.988 182.773 47.4735C182.156 47.0984 181.381 46.1708 181.62 45.4027C181.831 44.724 182.641 44.3864 183.319 44.3864C183.369 44.3864 183.417 44.388 183.465 44.3921C184.016 44.4333 184.525 44.4651 185.055 44.4651C185.357 44.4651 185.667 44.4547 185.993 44.4292L186.261 44.412C186.285 44.412 186.309 44.412 186.333 44.412C186.501 44.412 186.668 44.4292 186.823 44.4907C187.011 44.5667 187.168 44.7 187.321 44.8317C187.871 45.3052 188.42 45.7803 188.968 46.2521L189.248 46.5453C189.459 46.8693 189.361 47.3265 189.101 47.6136C188.843 47.8984 188.457 48.0401 188.077 48.1052C187.269 48.2437 186.572 48.5812 185.771 48.7136C185.66 48.7317 185.551 48.7412 185.444 48.7412Z" fill="#2F2116"/>
<path d="M46.8758 50.5293C46.8138 50.5293 46.752 50.5266 46.69 50.5214C45.9446 49.7949 44.966 49.3105 43.9368 49.16C43.3362 49.0736 42.691 49.084 42.1774 48.7616C41.6644 48.4376 41.4337 47.5892 41.9326 47.247C42.152 47.0949 42.4348 47.0892 42.6998 47.0892C43.028 47.0892 43.3529 47.0949 43.6749 47.0949C44.5113 47.0949 45.3238 47.0641 46.1092 46.8496C46.4326 46.76 46.7525 46.6402 47.0665 46.4772C47.3029 46.3558 47.5264 46.3017 47.7332 46.3017C48.6436 46.3017 49.2305 47.36 49.2004 48.308C49.1629 49.4949 48.0534 50.5293 46.8758 50.5293Z" fill="#24180F"/>
<path d="M43.0169 37.812C42.9033 37.812 42.7877 37.7896 42.6721 37.7401C42.4179 37.6292 42.2289 37.4104 42.0002 37.2531C41.5762 36.964 41.0543 36.8973 40.5106 36.8973C40.2871 36.8973 40.0601 36.9093 39.8346 36.9197C39.6095 36.9307 39.3862 36.9427 39.1695 36.9427C38.509 36.9427 37.9127 36.8401 37.5319 36.3224C36.8893 35.4505 37.6565 34.1188 38.6919 33.7984C38.9757 33.7093 39.2653 33.6735 39.5575 33.6735C40.3294 33.6735 41.1179 33.9317 41.8601 34.1891L40.983 33.776C41.1986 33.7093 41.419 33.6771 41.6393 33.6771C42.9731 33.6771 44.2923 34.8281 44.3101 36.1921C44.3199 36.9599 43.7086 37.812 43.0169 37.812Z" fill="#24180F"/>
</svg>
