<svg width="205" height="229" viewBox="0 0 205 229" fill="none" xmlns="http://www.w3.org/2000/svg">
<path d="M107.168 94.1934C106.972 94.7014 106.776 95.2081 106.553 95.6974C104.859 99.4694 102.547 102.44 100.692 105.933C100.953 141.964 99.2828 167.089 99.2828 167.089C99.2828 167.089 98.6281 171.604 102.285 171.981C106.231 172.389 106.045 167.68 106.045 167.68C106.971 147.709 107.289 122.511 107.168 94.1934Z" fill="#237A00"/>
<path d="M102.517 102.775C102.635 140.465 101.011 167.872 101.011 167.872C101.011 167.872 100.891 170.76 101.248 171.722C101.549 171.849 101.891 171.94 102.285 171.981C102.789 172.033 103.224 172.002 103.603 171.907C104.467 171.003 104.547 168.208 104.547 168.208C105.247 149.073 105.495 124.997 105.409 97.9706C104.495 99.6413 103.495 101.199 102.517 102.775Z" fill="#439300"/>
<path d="M104.106 100.209L104.316 120.497C104.41 117.367 104.524 109.724 104.545 99.4933C104.4 99.736 104.252 99.9706 104.106 100.209Z" fill="#0F6100"/>
<path d="M103.288 101.537L102.86 169.027C103.003 164.527 103.461 144.562 103.555 125.535C103.599 116.667 103.567 108.007 103.519 101.167C103.443 101.291 103.365 101.413 103.288 101.537Z" fill="#0F6100"/>
<path d="M153.937 39.2453C152.036 46.2813 147.6 56.1466 137.333 66.7106C117.62 86.9946 102.715 116.845 102.715 116.845C102.115 119.768 102.584 129.124 102.984 135.307C103.137 137.661 106.088 138.515 107.469 136.616C117.055 123.441 129.131 90.4587 137.451 77.5227C148.223 60.776 152.513 47.368 154.211 38.868C154.123 38.996 154.028 39.12 153.937 39.2453Z" fill="#327212"/>
<path d="M162.833 8.36403C162.792 5.66537 162.698 3.18803 162.577 0.848033C161.417 4.84803 157.633 19.744 157.213 21.952C156.414 26.1454 155.74 29.6374 155.162 32.004C153.249 39.844 151.76 44.86 150.285 48.7974C150.285 48.7974 163.208 33.5294 162.833 8.36403Z" fill="#327212"/>
<path d="M102.88 133.62C102.678 130.304 102.488 126.439 102.442 123.147C105.777 116.499 120.156 88.8681 137.398 71.1268C139.52 68.9441 141.378 66.7401 143.03 64.5428C141.224 67.8308 139.15 71.3268 136.772 75.0268C128.11 88.4908 113.065 121.98 102.88 133.62Z" fill="#5D9F0A"/>
<path d="M153.203 41.6881C152.656 43.3561 151.975 45.1414 151.116 47.0361C149.312 51.9561 146.732 57.8081 143.031 64.5427C146.339 60.1427 148.768 55.7814 150.543 51.6894C152.075 47.4934 153.109 43.8107 153.817 40.6787C153.615 41.0174 153.411 41.3547 153.203 41.6881Z" fill="#5D9F0A"/>
<path d="M162.113 4.94924C161.869 7.38257 162.09 16.2559 159.962 25.3026C156.198 41.3052 151.725 44.9519 150.285 48.7959C150.285 48.7959 155.384 36.8492 157.713 25.1519C159.813 14.5999 162.114 4.93724 162.113 4.94924Z" fill="#5D9F0A"/>
<path d="M103.611 125.485C103.611 125.485 125.317 82.1867 139.365 70.876C139.365 70.876 123.997 91.8267 120.931 99.7867C117.863 107.747 105 129.676 103.2 132.179C103.2 132.179 102.603 127.461 103.611 125.485Z" fill="#87B804"/>
<path d="M157.213 29.6025C155.427 35.2719 153.843 39.8599 152.867 42.6625L152.663 44.1372C152.663 44.1372 157.296 36.7959 159.799 22.4545C160.516 18.3399 161.705 12.7052 161.763 7.89987C160.263 17.9505 158.257 26.2865 157.213 29.6025Z" fill="#87B804"/>
<path d="M102.992 116.741C102.992 116.741 102.115 121.451 102.008 131.511C101.901 141.572 106.539 138.974 107.222 136.95C107.903 134.925 106.384 129.067 102.992 116.741Z" fill="#216700"/>
<path d="M105.403 107.744C105.403 107.744 90.888 78.9732 69.94 56.6586C67.4507 54.0079 65.3014 51.4639 63.4387 49.0346C61.8121 46.9159 60.0601 44.8879 58.1281 43.0186C57.9614 42.8586 57.7947 42.6959 57.6254 42.5359C57.0921 42.0319 56.5507 41.5426 56.0107 41.0586C57.1201 44.0346 55.18 43.2413 57.568 46.4199C63.1054 53.7986 72.2907 71.5666 74.1147 75.1826C83.2454 93.2826 94.1667 121.751 103.145 128.729C103.145 128.729 106.136 111.799 105.403 107.744Z" fill="#327212"/>
<path d="M104.184 122.281C104.613 119.416 105.061 116.083 105.314 113.236C102.062 106.824 87.9078 79.9439 69.4918 60.3853C67.1892 57.9399 65.1905 55.5413 63.4292 53.2026C65.2772 56.5146 67.4172 60.0719 69.8959 63.8786C78.8665 77.6613 93.5652 110.115 104.184 122.281Z" fill="#5D9F0A"/>
<path d="M57.6251 42.536C57.1371 42.0746 56.6412 41.6253 56.1465 41.1813C57.8612 44.888 60.2132 48.9293 63.4292 53.2026C61.4132 49.5893 59.7585 46.288 58.3878 43.272C58.1372 43.028 57.8838 42.7813 57.6251 42.536Z" fill="#5D9F0A"/>
<path d="M103.885 115.037C103.885 115.037 82.5548 72.9827 67.2041 59.6281C67.2041 59.6281 83.3321 81.5348 86.2348 89.1081C89.1388 96.6868 102.085 118.431 103.92 120.959C103.92 120.959 104.873 116.949 103.885 115.037Z" fill="#87B804"/>
<path d="M105.105 107.597C105.105 107.597 105.776 111.831 105.277 120.593C104.772 129.463 103.109 129.545 102.477 127.632C101.847 125.72 101.877 118.3 105.105 107.597Z" fill="#216700"/>
<path d="M52.9614 41.4987C52.9614 41.4987 54.8481 42.5574 57.3894 45.3027C54.6974 42.5721 52.9614 41.4987 52.9614 41.4987Z" fill="#327212"/>
<path d="M64.4052 55.0959C64.1145 53.9533 63.6038 52.8479 62.8892 51.8639C60.8332 49.0373 58.9505 46.8866 57.3892 45.3026C58.9932 47.0333 60.8572 49.4599 62.6812 52.7106C63.2438 53.5079 63.8318 54.2973 64.4052 55.0959Z" fill="#327212"/>
<path d="M61.8149 51.4333C62.6189 52.6933 63.5576 53.9133 64.4482 55.156C63.0269 49.6747 57.8269 34.14 42.2789 23.084C22.4776 9.00266 12.1562 7.69067 12.1562 7.69067C12.1562 7.69067 27.1722 17.0613 41.1202 29.4613C47.1402 34.812 60.5136 49.3987 61.8149 51.4333Z" fill="#327212"/>
<path d="M64.3893 55.0759C64.0839 53.9386 63.5986 52.8386 62.8866 51.8599C60.8333 49.0359 58.9506 46.8866 57.3906 45.3039C58.9986 47.0399 60.8666 49.4693 62.6973 52.7346C63.2493 53.5159 63.8266 54.2919 64.3893 55.0759Z" fill="#5D9F0A"/>
<path d="M61.8149 51.4334C62.5389 52.5681 63.3722 53.6708 64.1816 54.7881C62.2762 49.2068 56.2069 34.9254 41.0536 24.1774C21.1816 10.0827 12.1562 7.69076 12.1562 7.69076C12.1562 7.69076 28.5496 16.0414 41.9016 27.7987C49.1669 34.1947 55.1616 41.9427 59.6496 48.6761C60.4123 49.4747 61.1296 50.3614 61.8149 51.4334Z" fill="#5D9F0A"/>
<path d="M15.7109 9.30549C15.7109 9.30549 39.9896 21.4828 51.0523 33.7882C60.2296 43.9962 62.8856 52.3828 62.8856 52.3828L61.9176 51.3961C60.4242 48.9495 57.3949 43.5241 53.9482 39.0255C51.2229 35.4695 48.1069 32.4722 45.3883 29.7695C35.8696 20.3122 15.7109 9.30549 15.7109 9.30549Z" fill="#87B804"/>
<path d="M97.9052 123.343C97.1038 121.805 96.4851 120.165 96.1758 118.46C95.3131 113.699 95.7799 109.999 96.0519 107.217C96.4985 102.625 99.2092 97.2613 98.8212 86.2133C98.3625 73.1666 96.4359 63.5253 97.1625 57.5093C98.8332 43.6653 103.142 23.5919 107.222 18.7319C107.222 18.7319 102.157 42.4559 104.692 64.0599C106.069 75.7933 109.189 80.1533 109.604 92.7639C110.05 106.339 107.584 127.835 102.961 130.423C100.462 127.284 99.2998 126.019 97.9052 123.343Z" fill="#327212"/>
<path d="M98.8214 55.1562C97.828 65.9655 100.221 74.2028 101.192 85.3882C101.469 88.5735 102.157 90.2935 101.205 97.1655C100.103 105.124 96.376 109.019 97.6134 120.144C98.36 122.905 99.856 125.287 101.352 127.709C105.389 121.857 107.861 109.772 108.228 93.7908C108.481 82.7895 104.487 72.5481 103.465 63.3948C102.025 50.4855 103.039 37.4602 104.333 28.9068C105.389 21.9175 107.223 18.7322 107.223 18.7322C103.603 24.8535 99.9027 43.4015 98.8214 55.1562Z" fill="#5D9F0A"/>
<path d="M106.804 94.1947C106.502 84.6667 102.464 70.4614 101.713 59.6281C101.395 55.0534 102.464 36.4548 102.464 36.4548C102.464 36.4548 100.014 50.5321 99.7012 55.8587C98.8398 70.5454 103.085 76.3347 103.085 93.0654C103.085 100.265 100.265 107.852 99.4999 111.653C98.2399 117.92 98.4999 120.312 98.7159 121.691C98.9785 121.995 99.2225 122.315 99.4185 122.652C99.5519 122.88 99.6612 123.119 99.7692 123.357C100.296 122.797 100.793 122.215 101.199 121.557C102.864 118.851 103.943 115.796 104.891 112.768C106.303 108.259 106.317 103.441 106.757 98.9374C106.828 97.0721 106.841 95.4174 106.804 94.1947Z" fill="#87B804"/>
<path d="M104.704 31.3013H104.703L104.692 31.4307L104.704 31.3013Z" fill="#013300"/>
<path d="M97.2241 118.228C97.2241 118.228 97.3401 120.584 98.2481 123.373C99.3841 126.864 102.343 131.047 103.107 130.627C105.637 129.231 97.2241 118.228 97.2241 118.228Z" fill="#216700"/>
<path d="M19.1251 196.996C21.1011 196.584 23.1598 196.644 25.1171 196.151C32.1211 194.389 35.8011 186.324 42.4718 183.555C46.7665 181.771 52.0705 182.29 55.6078 179.271C56.9825 178.096 57.9278 176.5 59.2091 175.224C63.0758 171.369 69.1051 171.095 74.3425 169.556C83.3571 166.908 91.0518 159.988 100.422 159.284C106.014 158.863 112.161 160.598 117.23 162.903C121.862 165.008 124.988 169.217 129.529 171.429C134.197 173.705 139.752 173.202 144.67 174.864C153.702 177.921 159.477 187.822 168.825 189.704C170.889 190.121 173.042 190.114 175.048 190.756C180.38 192.465 183.409 198.248 188.469 200.647C191.084 201.886 209.985 205.352 203.514 212.427C202.785 213.225 201.638 213.455 200.573 213.641C196.721 214.312 192.358 214.535 188.653 215.784C185.997 216.68 183.993 218.032 181.144 218.557C177.153 219.291 173.062 219.486 169.03 219.88C165.157 220.257 160.812 221.725 156.996 221.725C153.6 222.589 150.28 223.857 146.792 224.184C144.584 224.391 142.362 224.214 140.142 224.037C137.638 223.837 135.136 223.639 132.657 223.991C128.325 224.607 124.305 226.879 119.933 227.092C118.589 227.157 117.248 227.025 115.906 226.893C114.678 226.772 113.449 226.651 112.218 226.681C108.664 226.768 105.266 228.108 101.749 228.629C96.9732 229.336 92.1185 228.519 87.3598 227.701C81.2505 226.653 75.1412 225.605 69.0318 224.557C61.7505 223.308 54.3505 222.691 47.1492 221.44C44.2345 220.933 41.2425 221.116 38.2531 221.3C34.3958 221.536 30.5438 221.772 26.8731 220.524C22.9758 219.2 19.7318 216.146 15.6772 215.434C14.0225 215.144 12.3412 215.267 10.6572 215.388C9.41584 215.479 8.17315 215.568 6.93715 215.493C4.02248 215.315 0.75982 213.691 0.373154 210.796C0.122487 208.925 1.20249 207.076 2.67582 205.897C4.14916 204.717 5.9718 204.08 7.7558 203.464C12.1091 201.961 14.5678 197.949 19.1251 196.996Z" fill="#614D39"/>
<path d="M132.657 223.991C132.719 223.981 132.78 223.974 132.843 223.965C133.525 223.876 134.209 223.827 134.896 223.808C134.899 223.812 134.901 223.815 134.904 223.819C134.153 223.841 133.404 223.886 132.657 223.991Z" fill="#C4BCB5"/>
<path d="M103.606 204.644C103.154 204.644 102.692 204.621 102.219 204.574C92.9505 203.621 85.3998 196.083 76.5838 195.569C76.6665 195.541 76.7465 195.507 76.8225 195.465C77.2585 195.226 77.5305 194.763 77.6879 194.291C78.4425 192.029 76.5585 189.307 74.1758 189.217L74.4599 189.207C74.3105 189.196 74.1598 189.189 74.0105 189.189C72.6958 189.189 71.3838 189.626 70.3371 190.42C69.8771 190.769 69.4598 191.188 68.9425 191.441C68.0811 191.863 67.0545 191.777 66.1572 192.112C65.2599 192.448 64.5172 193.617 65.1532 194.333C65.3785 194.586 65.7145 194.702 66.0358 194.808C67.7945 195.395 69.5839 195.986 71.4265 196.126C71.3145 196.156 71.2025 196.188 71.0905 196.222C67.2785 197.377 63.8198 198.407 60.3705 198.407C59.1291 198.407 57.8891 198.274 56.6345 197.964C57.5238 197.792 58.3438 197.275 58.7558 196.462C59.1265 195.733 59.3119 193.774 58.3825 193.384C58.1799 193.3 57.9625 193.275 57.7412 193.275C57.6145 193.275 57.4879 193.283 57.3625 193.293C57.1679 193.309 56.9705 193.331 56.7745 193.331C56.6265 193.331 56.4785 193.319 56.3345 193.284L56.1959 193.243C55.6892 193.068 55.2905 192.648 54.8078 192.403C54.3812 192.186 53.9572 192.086 53.5492 192.086C52.4345 192.086 51.4359 192.819 50.8239 193.863C50.6292 194.196 50.5118 194.612 50.5091 195.007C46.1105 191.748 43.5092 187 39.6652 185.123C34.6799 188.572 31.1412 194.54 25.2825 196.108C32.1799 194.262 35.8545 186.303 42.4718 183.555C46.7665 181.771 52.0705 182.29 55.6078 179.271C56.9825 178.096 57.9278 176.5 59.2091 175.224C59.2198 175.212 59.2318 175.202 59.2438 175.189C59.7412 174.698 60.2772 174.271 60.8385 173.886C62.4665 173.448 64.2572 173.083 65.9772 173.083C67.5105 173.083 68.9865 173.374 70.2398 174.157C72.9358 175.845 73.1785 179.469 74.6319 181.936C75.9492 184.175 77.6878 185.796 79.7198 186.927C79.6892 187.047 79.6865 187.172 79.7239 187.302C79.7972 187.556 80.0092 187.741 80.2132 187.912C81.5225 189.016 83.0185 190.181 84.7011 190.181C84.8065 190.181 84.9118 190.177 85.0172 190.168C85.8132 190.097 86.7412 189.632 87.3078 188.956C89.0692 188.895 92.3758 188.532 94.0558 188.486C94.9225 189.917 95.9505 191.193 97.1398 192.309L97.3385 192.612C100.444 196.436 104.481 197.588 108.949 198.991C111.097 199.665 112.973 200.495 114.676 201.468C113.709 201.8 112.758 202.188 111.804 202.576C109.254 203.61 106.664 204.644 103.606 204.644ZM93.9918 196.262C93.3932 196.262 92.8171 196.424 92.2038 196.752C91.0905 197.345 90.4385 198.868 91.1011 199.941C91.5011 200.588 92.4599 201.045 93.2545 201.045C93.3292 201.045 93.4025 201.041 93.4731 201.033C94.4558 200.919 95.1358 200.181 96.1332 200.181C96.2825 200.181 96.4398 200.197 96.6078 200.236C97.0398 200.336 97.4332 200.557 97.8492 200.712C98.0985 200.804 98.3692 200.871 98.6332 200.871C98.8105 200.871 98.9838 200.841 99.1465 200.768C99.6638 200.538 99.9198 199.941 99.9811 199.379C100.072 198.564 99.8465 197.726 99.4011 197.036C99.1358 196.624 98.7439 196.239 98.2545 196.202C98.2292 196.2 98.2038 196.198 98.1785 196.198C97.5491 196.198 97.0091 196.757 96.3705 196.779C96.3558 196.779 96.3412 196.78 96.3265 196.78C96.1772 196.78 96.0305 196.75 95.8865 196.708C95.7052 196.655 95.5278 196.583 95.3505 196.519C94.8705 196.348 94.4252 196.262 93.9918 196.262ZM64.4718 179.721C63.9838 179.721 63.5305 179.859 63.2025 180.207C63.0825 180.335 62.9972 180.489 62.9105 180.644C62.8385 180.771 62.7665 180.897 62.6718 181.008C62.2652 181.483 61.6185 181.528 61.0705 181.736C60.4518 181.972 60.0758 182.451 59.4785 182.741C58.0905 183.419 56.5879 183.896 55.3239 184.804C54.8972 185.11 54.4838 185.502 54.3758 186.016C54.1825 186.94 55.1358 187.791 56.0785 187.832C56.1145 187.833 56.1505 187.835 56.1865 187.835C57.0892 187.835 57.9225 187.333 58.6572 186.798C59.4212 186.243 60.1758 185.616 61.0918 185.389C61.3945 185.315 61.7039 185.286 62.0185 185.286C62.5999 185.286 63.1945 185.386 63.7852 185.486C64.3759 185.586 64.9598 185.686 65.5172 185.686C66.0998 185.686 66.6519 185.577 67.1519 185.244C68.6265 184.257 68.3785 181.786 66.9998 180.668C66.4292 180.204 65.3878 179.721 64.4718 179.721ZM53.5718 196.857C53.2132 196.684 52.8505 196.496 52.4865 196.29C52.6705 196.296 52.8492 196.322 53.0172 196.398C53.2385 196.5 53.4092 196.674 53.5718 196.857ZM25.2438 196.119C25.2545 196.115 25.2638 196.112 25.2745 196.109C25.2638 196.112 25.2545 196.116 25.2438 196.119Z" fill="#4A3928"/>
<path d="M169.031 219.88C173.063 219.486 177.153 219.291 181.144 218.557C183.993 218.032 185.997 216.68 188.653 215.784C191.111 214.956 193.857 214.579 196.552 214.222C193.857 214.579 191.111 214.956 188.653 215.785C185.997 216.68 183.993 218.032 181.144 218.557C177.153 219.291 173.063 219.486 169.031 219.88ZM188.389 200.609C188.375 200.603 188.36 200.595 188.345 200.588C188.36 200.596 188.375 200.603 188.389 200.609ZM188.32 200.576C188.308 200.569 188.297 200.564 188.285 200.559C188.297 200.564 188.309 200.569 188.32 200.576Z" fill="#BAB1A8"/>
<path d="M144.66 224.277C144.654 224.277 144.65 224.277 144.645 224.277C143.332 224.276 142.015 224.184 140.699 224.081C140.513 224.067 140.328 224.052 140.142 224.038C140.074 224.032 140.005 224.027 139.936 224.021C139.93 224.02 139.925 224.02 139.921 224.02C139.892 224.017 139.864 224.015 139.836 224.014C139.756 224.007 139.676 224 139.597 223.993C139.589 223.993 139.582 223.993 139.576 223.992C138.264 223.889 136.953 223.798 135.646 223.797C135.642 223.797 135.637 223.797 135.633 223.797C135.63 223.797 135.628 223.797 135.625 223.797C135.381 223.797 135.138 223.802 134.896 223.808C131.876 219.997 129.633 215.483 126.312 211.831C122.424 207.555 119.146 204.02 114.676 201.468C116.286 200.912 117.945 200.508 119.753 200.508C120.849 200.508 122.002 200.656 123.233 201.01C129.84 202.91 135.748 206.715 142.814 206.715C142.9 206.715 142.985 206.715 143.07 206.714C143.276 206.71 143.48 206.705 143.685 206.696C144.4 207.125 145.196 207.42 146.021 207.543C146.186 207.568 146.359 207.58 146.532 207.58C147.86 207.58 149.321 206.868 149.374 205.648C150.177 205.376 150.964 205.053 151.724 204.677C151.728 204.676 151.732 204.674 151.736 204.672C151.744 204.668 151.752 204.664 151.76 204.66C151.777 204.652 151.794 204.643 151.812 204.635C155.926 202.573 157.792 201.804 162.49 200.764C163.776 200.48 164.846 200.044 165.88 199.538C166.296 199.748 166.713 199.956 167.146 200.092C167.541 200.217 167.953 200.277 168.365 200.277C169.696 200.277 171.032 199.655 171.832 198.583C172.205 198.08 172.472 197.464 172.405 196.841C172.397 196.762 172.384 196.684 172.366 196.609C175.272 195.843 177.86 195.969 181.104 195.103L181.394 195.014C183.501 196.992 185.532 199.128 188.057 200.443C188.057 200.443 188.058 200.444 188.06 200.444C188.077 200.453 188.094 200.462 188.112 200.471C188.116 200.474 188.12 200.475 188.124 200.477C188.138 200.486 188.153 200.492 188.168 200.5C188.174 200.503 188.181 200.507 188.189 200.51C188.201 200.516 188.213 200.522 188.226 200.529C188.236 200.533 188.245 200.539 188.254 200.543C188.265 200.548 188.274 200.553 188.285 200.559C188.297 200.564 188.308 200.569 188.32 200.576C188.328 200.58 188.337 200.584 188.345 200.588C188.36 200.595 188.374 200.603 188.389 200.609C188.394 200.612 188.401 200.615 188.406 200.617C188.428 200.628 188.448 200.637 188.469 200.647C190.705 201.708 204.861 204.396 204.856 209.581C204.854 210.457 204.45 211.404 203.514 212.427C202.785 213.226 201.638 213.455 200.573 213.641C199.276 213.867 197.92 214.043 196.552 214.222C193.857 214.579 191.11 214.956 188.653 215.784C185.997 216.68 183.993 218.032 181.144 218.557C177.153 219.291 173.062 219.486 169.03 219.88C165.157 220.257 160.812 221.726 156.996 221.726C153.626 222.581 150.332 223.839 146.873 224.176C146.846 224.179 146.818 224.181 146.792 224.184C146.76 224.186 146.728 224.189 146.696 224.192C146.021 224.252 145.345 224.276 144.669 224.277C144.665 224.277 144.662 224.277 144.66 224.277ZM146.118 210.661C145.744 210.661 145.369 210.685 145.004 210.728C143.012 210.959 141.777 212.103 143.188 213.735C144.466 215.212 146.624 215.41 148.428 215.479C148.538 215.483 148.652 215.488 148.764 215.488C149.002 215.488 149.24 215.469 149.466 215.395C150.669 214.998 150.804 213.189 149.999 212.214C149.207 211.252 148.093 210.825 146.922 210.702C146.656 210.673 146.386 210.661 146.118 210.661ZM168.101 205.407C167.053 205.417 165.909 205.615 165.218 206.404C164.528 207.191 164.688 208.709 165.694 208.998C166.118 209.121 166.584 209.007 167.006 209.132C167.424 209.256 167.738 209.592 168.108 209.821C168.441 210.028 168.818 210.123 169.2 210.123C170.362 210.123 171.565 209.252 171.684 208.063C171.818 206.722 170.524 205.505 169.22 205.505C168.986 205.505 168.754 205.544 168.529 205.628L168.101 205.407ZM183.445 203.386C182.768 203.386 181.957 203.724 181.746 204.403C181.508 205.171 182.281 206.098 182.9 206.473C183.749 206.988 184.576 207.741 185.57 207.741C185.677 207.741 185.786 207.732 185.897 207.714C186.698 207.581 187.396 207.244 188.204 207.105C188.584 207.04 188.969 206.898 189.228 206.614C189.488 206.327 189.584 205.869 189.374 205.545L189.094 205.252C188.546 204.78 187.996 204.305 187.448 203.832C187.294 203.7 187.137 203.567 186.949 203.491C186.794 203.429 186.628 203.412 186.46 203.412C186.436 203.412 186.412 203.412 186.388 203.412L186.118 203.429C185.793 203.455 185.484 203.465 185.181 203.465C184.652 203.465 184.142 203.433 183.592 203.392C183.544 203.388 183.496 203.386 183.445 203.386Z" fill="#473526"/>
<path d="M25.2344 196.12C25.237 196.12 25.2411 196.119 25.2437 196.119C25.2397 196.119 25.237 196.12 25.2344 196.12Z" fill="#BAB1A8"/>
<path d="M7.90807 215.521C8.82274 215.521 9.74142 215.455 10.6574 215.388C9.74009 215.455 8.82274 215.521 7.90807 215.521ZM0.337402 210.25C0.337402 208.571 1.34674 206.96 2.67607 205.897C1.34674 206.962 0.337402 208.571 0.337402 210.25ZM19.1254 196.996C21.0667 196.589 23.0881 196.641 25.0134 196.176C23.0881 196.641 21.0667 196.591 19.1254 196.996Z" fill="#8F8277"/>
<path d="M97.9001 228.898C97.8934 228.898 97.8854 228.898 97.8787 228.898C94.3667 228.896 90.8374 228.298 87.3601 227.701C81.2508 226.653 75.1414 225.605 69.0321 224.557C61.7508 223.308 54.3507 222.691 47.1494 221.44C45.7361 221.195 44.3041 221.11 42.8641 221.11C41.3334 221.11 39.7934 221.205 38.2534 221.3C36.7134 221.393 35.1761 221.488 33.6494 221.488C33.6227 221.488 33.5961 221.488 33.5694 221.488C33.5414 221.488 33.5148 221.488 33.4881 221.488C33.4388 221.486 33.3894 221.486 33.34 221.486C33.336 221.486 33.3307 221.486 33.3254 221.486C31.1374 221.467 28.976 221.239 26.8734 220.524C22.976 219.2 19.7321 216.146 15.6774 215.434C15.6547 215.431 15.6321 215.427 15.6081 215.422C15.5907 215.42 15.5734 215.417 15.5561 215.415C14.8441 215.297 14.1294 215.256 13.4107 215.256C13.4067 215.256 13.4028 215.256 13.3988 215.256C13.3948 215.256 13.3894 215.256 13.3854 215.256C12.6694 215.256 11.9508 215.297 11.2321 215.347C11.0401 215.36 10.8481 215.375 10.6574 215.388C9.74142 215.455 8.82274 215.521 7.90807 215.521C7.58407 215.521 7.26007 215.514 6.9374 215.493C4.26274 215.329 1.29339 213.947 0.525391 211.483C0.456057 211.262 0.405405 211.033 0.373405 210.796C0.372072 210.788 0.370736 210.781 0.370736 210.774C0.348069 210.598 0.337402 210.424 0.337402 210.25C0.337402 208.571 1.34674 206.962 2.67607 205.897C4.14941 204.717 5.97205 204.08 7.75605 203.464C12.1094 201.962 14.5681 197.95 19.1254 196.996C21.0667 196.591 23.0881 196.641 25.0134 196.176C25.0481 196.168 25.0827 196.16 25.1174 196.151C25.1294 196.148 25.1428 196.144 25.1548 196.141C25.1588 196.14 25.1627 196.139 25.1667 196.139C25.1761 196.136 25.1854 196.133 25.1947 196.131C25.1987 196.131 25.2027 196.129 25.2067 196.128C25.216 196.126 25.224 196.123 25.2347 196.12C25.2374 196.12 25.2401 196.119 25.2441 196.119C25.2547 196.116 25.2641 196.112 25.2747 196.109C25.2774 196.109 25.2801 196.108 25.2827 196.108C31.1414 194.54 34.6801 188.572 39.6654 185.123C43.5094 187 46.1107 191.748 50.5094 195.007C50.5054 195.52 50.6934 195.996 51.1547 196.2C51.3481 196.286 51.5574 196.307 51.7721 196.307C51.8747 196.307 51.9787 196.303 52.0827 196.297C52.1867 196.293 52.2908 196.288 52.3934 196.288C52.4241 196.288 52.4547 196.288 52.4867 196.29C52.8507 196.496 53.2134 196.684 53.5721 196.857C53.6654 196.963 53.7561 197.072 53.8521 197.174C54.4014 197.753 55.1841 198.027 55.9747 198.027C56.1961 198.027 56.4174 198.005 56.6347 197.964C57.8894 198.274 59.1294 198.407 60.3707 198.407C63.82 198.407 67.2788 197.377 71.0908 196.222C71.2028 196.188 71.3148 196.156 71.4268 196.126C71.6294 196.14 71.8321 196.15 72.0361 196.153C72.1014 196.155 72.1668 196.156 72.2321 196.156C73.4908 196.156 74.7414 195.932 75.9814 195.71C76.184 195.676 76.3907 195.638 76.584 195.569C85.4 196.083 92.9507 203.621 102.219 204.574C102.692 204.621 103.155 204.644 103.607 204.644C106.664 204.644 109.255 203.61 111.804 202.576C112.759 202.188 113.709 201.8 114.676 201.468C119.147 204.02 122.424 207.555 126.312 211.831C129.633 215.483 131.876 219.997 134.896 223.808C134.209 223.827 133.525 223.876 132.843 223.965C132.78 223.974 132.719 223.981 132.657 223.991C128.325 224.607 124.305 226.879 119.933 227.092C119.912 227.093 119.891 227.095 119.868 227.096C119.649 227.105 119.429 227.109 119.209 227.109C119.207 227.109 119.205 227.109 119.204 227.109C119.195 227.109 119.187 227.109 119.177 227.109C118.108 227.108 117.041 227.004 115.973 226.898C115.951 226.897 115.929 226.895 115.907 226.893C114.809 226.784 113.712 226.676 112.612 226.676C112.48 226.676 112.349 226.677 112.219 226.681C109.123 226.757 106.145 227.784 103.104 228.391C102.655 228.481 102.203 228.562 101.749 228.629C101.684 228.639 101.619 228.648 101.552 228.657C100.341 228.826 99.1254 228.897 97.9067 228.898C97.904 228.898 97.9027 228.898 97.9001 228.898ZM89.0241 212.941C88.9027 212.941 88.7814 212.945 88.6614 212.952C87.8214 213.003 86.9014 213.35 86.5787 214.126C86.0174 215.471 87.5574 216.695 88.8601 217.348C89.9614 217.898 91.3001 218.415 92.4934 218.415C93.3014 218.415 94.0427 218.179 94.6001 217.56C95.4961 216.565 95.3614 214.903 94.4921 213.886C93.7187 212.984 92.504 212.56 91.3094 212.56C91.1574 212.56 91.0054 212.567 90.8547 212.58L91.1787 212.916C90.9054 212.965 90.6294 212.98 90.3521 212.98C90.1307 212.98 89.9094 212.971 89.6867 212.962C89.4654 212.951 89.2441 212.941 89.0241 212.941ZM111.396 212.229C111.819 212.229 112.223 212.303 112.559 212.555C112.849 212.774 113.04 213.1 113.308 213.347C113.616 213.632 113.995 213.757 114.385 213.757C115.497 213.757 116.705 212.744 116.673 211.547C116.633 210.016 115.064 208.859 113.531 208.859C113.443 208.859 113.355 208.862 113.268 208.869L112.607 209.636C112.105 209.432 111.564 209.331 111.024 209.331C110.409 209.331 109.796 209.462 109.239 209.721C108.576 210.029 107.932 210.686 108.107 211.397C108.279 212.095 109.092 212.352 109.841 212.352C109.951 212.352 110.059 212.347 110.163 212.336C110.564 212.296 110.989 212.229 111.396 212.229ZM64.904 207.539L65.5254 207.844C64.0214 207.967 62.4841 208.096 61.1081 208.714C59.7307 209.331 58.5227 210.54 58.3307 212.036C58.8934 212.519 59.6187 212.707 60.3667 212.707C60.9201 212.707 61.4854 212.604 62.0081 212.441C63.2387 212.059 64.3814 211.4 65.6441 211.147C66.1574 211.045 66.7254 210.992 67.1001 210.628C67.6521 210.091 67.4814 209.109 66.9494 208.552C66.4174 207.996 65.6427 207.756 64.904 207.539ZM42.8268 206.089C42.5614 206.089 42.2788 206.095 42.0601 206.247C41.5601 206.589 41.7907 207.438 42.304 207.762C42.8174 208.084 43.4641 208.074 44.0628 208.16C45.0934 208.31 46.0707 208.795 46.8161 209.521C46.8787 209.527 46.9414 209.529 47.0027 209.529C48.1814 209.529 49.2894 208.495 49.3281 207.308C49.3574 206.36 48.7708 205.302 47.8601 205.302C47.6534 205.302 47.4294 205.356 47.1934 205.477C46.8788 205.64 46.5601 205.76 46.2361 205.85C45.4507 206.064 44.6374 206.095 43.8014 206.095C43.48 206.095 43.1548 206.089 42.8268 206.089ZM24.8561 203.233C24.6894 203.233 24.5254 203.251 24.3641 203.292L24.1441 203.359C23.8467 203.462 23.5614 203.605 23.2628 203.708C22.4614 203.983 20.8667 203.988 20.8721 205.259C20.8734 205.722 21.3361 206.032 21.7521 206.235C23.3081 206.984 25.0121 207.428 26.7361 207.531C26.8321 207.536 26.9307 207.539 27.0307 207.539C27.5707 207.539 28.1321 207.436 28.4414 207.014C28.6921 206.671 28.7014 206.205 28.6268 205.788C28.4721 204.927 27.9774 204.021 27.1201 203.788C26.4281 203.6 25.6187 203.233 24.8561 203.233ZM76.1027 202.475C75.0694 202.475 73.8667 202.877 73.8534 203.867C73.8427 204.76 74.8801 205.284 75.7694 205.363C76.6587 205.439 77.6307 205.31 78.3787 205.798C78.6654 205.988 78.8934 206.253 79.1721 206.455C79.5041 206.692 79.8974 206.8 80.2974 206.8C81.2627 206.8 82.2614 206.168 82.484 205.208C82.7774 203.948 81.6214 202.605 80.3534 202.605C80.2574 202.605 80.1601 202.614 80.0628 202.629L79.0334 202.953C78.1721 202.709 77.2854 202.553 76.3921 202.486C76.2974 202.479 76.2014 202.475 76.1027 202.475ZM40.6374 195.897C41.1814 195.897 41.7028 195.964 42.1268 196.253C42.3548 196.41 42.5441 196.629 42.7988 196.74C42.9148 196.79 43.0307 196.812 43.1441 196.812C43.8361 196.812 44.4467 195.96 44.4374 195.192C44.42 193.828 43.1001 192.677 41.7654 192.677C41.5454 192.677 41.3254 192.709 41.1094 192.776L41.9867 193.189C41.244 192.932 40.456 192.674 39.684 192.674C39.392 192.674 39.1027 192.709 38.8187 192.798C37.7827 193.119 37.0161 194.451 37.6587 195.322C38.0401 195.84 38.6361 195.943 39.2961 195.943C39.5134 195.943 39.7361 195.931 39.9614 195.92C40.1867 195.909 40.4147 195.897 40.6374 195.897Z" fill="#36271A"/>
<path d="M175.224 190.814C175.219 190.814 175.214 190.81 175.208 190.809C175.214 190.81 175.219 190.812 175.224 190.814ZM175.167 190.795C175.158 190.792 175.148 190.79 175.14 190.786C175.15 190.79 175.158 190.792 175.167 190.795ZM175.048 190.756C173.043 190.114 170.89 190.121 168.826 189.704C170.89 190.12 173.043 190.114 175.048 190.756Z" fill="white"/>
<path d="M100.496 159.279C100.807 159.256 101.119 159.24 101.433 159.231C101.12 159.24 100.807 159.256 100.496 159.279Z" fill="#3B850D"/>
<path d="M149.375 205.633C149.377 205.568 149.375 205.503 149.369 205.436C149.28 204.414 148.116 203.228 147.08 203.04C146.807 202.996 146.527 203.021 146.252 202.991C145.399 202.897 144.687 202.293 143.857 202.071C143.693 202.027 143.527 201.998 143.357 201.986C143.205 201.86 143.045 201.733 142.879 201.607C139.861 199.322 136.617 198.617 134 195.612C132.755 194.18 131.935 192.388 130.807 190.844C131.355 191.08 131.925 191.225 132.52 191.225C132.624 191.225 132.729 191.221 132.836 191.212C133.924 191.117 135.263 190.28 135.58 189.175C135.864 188.186 135.729 186.981 134.768 186.479C134.576 186.379 134.383 186.292 134.187 186.217C133.56 185.98 132.916 185.873 132.272 185.873C130.924 185.873 129.572 186.341 128.36 187.064C128.029 187.261 127.683 187.556 127.56 187.897C124.015 185.72 119.869 185.579 115.633 185.519C108.912 185.424 105.604 184.349 103.712 180.533C104.74 180.151 105.728 179.641 106.803 179.425C107.315 179.324 107.883 179.271 108.257 178.908C108.892 178.291 108.623 177.331 107.949 176.94C107.533 176.698 107.083 176.532 106.616 176.431C106.213 176.343 105.799 176.303 105.38 176.303C104.377 176.303 103.36 176.535 102.472 176.903C102.304 176.202 102.152 175.445 102.011 174.632C101.101 169.403 100.185 164.093 96.6387 159.91C97.7373 159.637 98.8534 159.431 99.996 159.32C100.137 159.307 100.28 159.295 100.423 159.284C100.447 159.283 100.471 159.28 100.496 159.279C100.807 159.256 101.12 159.24 101.433 159.231C101.667 159.224 101.901 159.221 102.136 159.221C102.136 159.221 102.137 159.221 102.139 159.221C102.148 159.221 102.159 159.221 102.168 159.221C107.115 159.226 112.352 160.74 116.809 162.714C116.827 162.721 116.844 162.729 116.861 162.737C116.889 162.749 116.917 162.761 116.945 162.773C116.959 162.78 116.972 162.785 116.985 162.792C117.067 162.828 117.149 162.865 117.231 162.903C121.863 165.008 124.988 169.217 129.529 171.429C134.197 173.705 139.752 173.202 144.671 174.864C153.703 177.921 159.477 187.822 168.825 189.704C170.889 190.121 173.043 190.114 175.048 190.756C175.068 190.763 175.088 190.769 175.108 190.776C175.119 190.779 175.129 190.783 175.14 190.786C175.148 190.79 175.157 190.792 175.167 190.795C175.18 190.8 175.195 190.804 175.208 190.809C175.213 190.81 175.219 190.814 175.224 190.815C175.24 190.82 175.257 190.825 175.273 190.832C175.276 190.832 175.277 190.833 175.28 190.833C177.639 191.652 179.544 193.273 181.395 195.014L181.104 195.103C177.86 195.969 175.272 195.843 172.367 196.609C172.023 195.14 170.025 194.669 168.448 194.573L169.017 194.864C168.011 194.681 166.98 194.497 165.963 194.497C165.444 194.497 164.928 194.545 164.42 194.665C162.915 195.02 161.487 196.18 161.327 197.717C161.293 198.045 161.329 198.41 161.559 198.647C161.744 198.838 161.987 198.897 162.251 198.897C162.595 198.897 162.976 198.798 163.321 198.765C163.4 198.759 163.479 198.755 163.556 198.755C164.371 198.755 165.12 199.152 165.88 199.537C164.847 200.044 163.776 200.48 162.491 200.764C157.792 201.804 155.927 202.573 151.812 204.635C151.795 204.643 151.777 204.652 151.76 204.66C151.752 204.664 151.744 204.668 151.736 204.672C151.732 204.673 151.728 204.676 151.724 204.677C150.964 205.052 150.179 205.369 149.375 205.633ZM148.961 193.847C148.007 193.847 147.144 194.232 146.677 195.219C146.109 196.421 146.5 196.936 147.547 197.46C148.243 197.807 149.251 197.649 150.013 197.973C150.632 198.237 151.017 198.861 151.729 198.961C151.789 198.969 151.849 198.973 151.907 198.973C153.151 198.973 153.788 197.069 153.056 195.979C152.472 195.109 151.249 194.298 150.001 193.983C149.652 193.895 149.301 193.847 148.961 193.847ZM153.732 185.873C152.624 185.873 151.564 186.229 150.957 187.035C150.715 187.357 150.528 187.721 150.253 188.017C149.589 188.737 148.369 189.185 148.416 190.163C148.469 191.285 149.936 191.732 151.685 191.732C154.111 191.732 157.079 190.873 157.587 189.76C158.408 187.961 157.015 186.595 155.247 186.088C154.757 185.948 154.24 185.873 153.732 185.873ZM138.091 178.152C137.087 178.152 136.061 178.331 135.213 178.56C132.244 179.364 134.305 182.185 136.073 183.071C137.175 183.621 138.512 184.136 139.705 184.136C140.513 184.137 141.255 183.902 141.813 183.281C143.008 181.955 142.321 179.848 140.983 178.907C140.273 178.407 139.357 178.195 138.405 178.157C138.3 178.153 138.196 178.152 138.091 178.152ZM120.084 176.668C119.975 176.668 119.864 176.673 119.756 176.685C119.145 176.748 118.557 176.989 118.079 177.424C117.62 177.84 117.387 178.575 117.728 179.091C117.949 179.427 118.351 179.592 118.732 179.72C119.8 180.12 120.911 180.185 122.032 180.272C122.119 180.279 122.2 180.283 122.277 180.283C124.409 180.283 122.9 177.776 121.805 177.139C121.276 176.829 120.676 176.668 120.084 176.668ZM116.459 169.583C115.023 169.671 113.704 171.121 114.327 172.597C114.743 173.584 115.824 174.125 116.903 174.125C117.311 174.125 117.717 174.048 118.088 173.889C118.701 173.625 119.26 173.141 119.429 172.497C119.841 170.927 118.164 169.685 116.755 169.583H116.459ZM107.271 163.372C107.104 163.372 106.939 163.391 106.779 163.431L106.56 163.496C106.261 163.598 105.976 163.745 105.677 163.847C104.875 164.121 103.281 164.127 103.285 165.398C103.288 165.861 103.749 166.172 104.168 166.373C105.723 167.124 107.425 167.567 109.149 167.669C109.245 167.675 109.344 167.679 109.444 167.679C109.984 167.679 110.545 167.575 110.855 167.152C111.107 166.809 111.115 166.345 111.04 165.925C110.888 165.067 110.391 164.16 109.533 163.926C108.843 163.737 108.033 163.372 107.271 163.372Z" fill="#725B43"/>
<path d="M94.1637 173.847C92.7171 173.847 91.261 173.283 89.981 172.556C88.2197 171.556 87.8984 169.536 89.2851 167.963C90.0931 167.044 91.3771 166.744 92.6664 166.744C92.6784 166.744 92.6904 166.744 92.701 166.744C93.749 166.748 94.7984 166.948 95.5957 167.176C96.7451 167.504 97.8317 168.285 98.2051 169.42C98.8011 171.228 97.2757 173.215 95.4331 173.691C95.0131 173.798 94.5891 173.847 94.1637 173.847Z" fill="#402F21"/>
<path d="M116.903 174.125C115.824 174.125 114.743 173.584 114.327 172.597C113.704 171.121 115.023 169.671 116.459 169.583H116.755C118.164 169.685 119.841 170.927 119.429 172.497C119.26 173.141 118.701 173.625 118.088 173.889C117.717 174.048 117.311 174.125 116.903 174.125Z" fill="#4B3827"/>
<path d="M139.706 184.136C138.512 184.136 137.175 183.621 136.074 183.071C134.306 182.185 132.244 179.364 135.214 178.56C136.062 178.331 137.087 178.152 138.091 178.152C138.196 178.152 138.3 178.153 138.406 178.157C139.358 178.195 140.274 178.407 140.983 178.907C142.322 179.848 143.008 181.955 141.814 183.281C141.255 183.902 140.514 184.137 139.706 184.136Z" fill="#4B3827"/>
<path d="M92.4934 218.415C91.3001 218.415 89.9614 217.898 88.8601 217.348C87.5574 216.695 86.0174 215.471 86.5787 214.125C86.9014 213.349 87.8214 213.003 88.6614 212.952C88.7814 212.945 88.9028 212.941 89.0241 212.941C89.2441 212.941 89.4654 212.951 89.6867 212.961C89.9094 212.971 90.1308 212.98 90.3521 212.98C90.6294 212.98 90.9054 212.965 91.1787 212.916L90.8548 212.58C91.0054 212.567 91.1574 212.56 91.3094 212.56C92.5041 212.56 93.7187 212.984 94.4921 213.886C95.3614 214.903 95.4961 216.565 94.6001 217.56C94.0427 218.179 93.3014 218.415 92.4934 218.415Z" fill="#24180F"/>
<path d="M151.685 191.732C149.936 191.732 148.469 191.285 148.416 190.162C148.369 189.185 149.589 188.737 150.253 188.017C150.528 187.721 150.715 187.357 150.957 187.035C151.564 186.229 152.624 185.873 153.732 185.873C154.24 185.873 154.757 185.948 155.247 186.088C157.015 186.595 158.408 187.961 157.586 189.76C157.078 190.873 154.111 191.732 151.685 191.732Z" fill="#4B3827"/>
<path d="M122.278 180.283C122.2 180.283 122.119 180.279 122.032 180.272C120.911 180.185 119.8 180.12 118.732 179.72C118.351 179.592 117.949 179.426 117.728 179.091C117.387 178.574 117.62 177.84 118.079 177.424C118.557 176.989 119.145 176.748 119.756 176.685C119.864 176.673 119.975 176.668 120.084 176.668C120.676 176.668 121.276 176.829 121.806 177.138C122.9 177.776 124.41 180.283 122.278 180.283Z" fill="#4B3827"/>
<path d="M101.524 180.985C100.776 180.985 100.051 180.797 99.4883 180.314C99.6803 178.819 100.888 177.609 102.266 176.992C102.334 176.961 102.402 176.932 102.472 176.903C102.811 178.326 103.212 179.525 103.712 180.533C103.531 180.6 103.35 180.662 103.167 180.72C102.643 180.883 102.078 180.985 101.524 180.985Z" fill="#402F21"/>
<path d="M103.712 180.533C103.212 179.525 102.811 178.326 102.472 176.903C103.36 176.535 104.378 176.303 105.38 176.303C105.799 176.303 106.214 176.343 106.616 176.431C107.083 176.532 107.534 176.698 107.95 176.94C108.623 177.331 108.892 178.291 108.258 178.908C107.883 179.271 107.315 179.324 106.803 179.425C105.728 179.641 104.74 180.15 103.712 180.533Z" fill="#4B3827"/>
<path d="M60.3666 212.707C59.6186 212.707 58.8932 212.519 58.3306 212.036C58.5226 210.54 59.7306 209.331 61.1079 208.714C62.4839 208.096 64.0212 207.967 65.5252 207.844L64.9039 207.539C65.6425 207.756 66.4173 207.996 66.9493 208.552C67.4813 209.109 67.6519 210.091 67.0999 210.628C66.7252 210.992 66.1572 211.045 65.6439 211.147C64.3812 211.4 63.2386 212.059 62.0079 212.441C61.4852 212.604 60.9199 212.707 60.3666 212.707Z" fill="#24180F"/>
<path d="M87.7708 181.639C87.6708 181.639 87.5722 181.635 87.4748 181.629C85.7508 181.528 84.0482 181.084 82.4922 180.333C82.0748 180.133 81.6122 179.821 81.6108 179.357C81.6068 178.087 83.2001 178.083 84.0015 177.807C84.3015 177.704 84.5855 177.56 84.8842 177.457L85.1041 177.391C85.2641 177.351 85.4282 177.332 85.5948 177.332C86.3575 177.332 87.1668 177.699 87.8588 177.887C88.7162 178.121 89.2122 179.027 89.3655 179.887C89.4402 180.304 89.4322 180.769 89.1802 181.112C88.8708 181.535 88.3108 181.639 87.7708 181.639Z" fill="#402F21"/>
<path d="M109.444 167.679C109.344 167.679 109.245 167.675 109.149 167.669C107.425 167.567 105.722 167.124 104.168 166.374C103.749 166.172 103.288 165.862 103.285 165.398C103.281 164.127 104.874 164.121 105.677 163.847C105.976 163.745 106.261 163.598 106.56 163.496L106.778 163.431C106.938 163.391 107.104 163.372 107.27 163.372C108.033 163.372 108.842 163.738 109.533 163.927C110.39 164.16 110.888 165.067 111.04 165.926C111.114 166.345 111.106 166.809 110.854 167.152C110.545 167.575 109.984 167.679 109.444 167.679Z" fill="#4B3827"/>
<path d="M27.0307 207.539C26.9307 207.539 26.8321 207.536 26.7361 207.531C25.0121 207.428 23.3081 206.984 21.7521 206.235C21.3361 206.032 20.8734 205.722 20.8721 205.259C20.8668 203.988 22.4614 203.983 23.2628 203.708C23.5614 203.605 23.8468 203.462 24.1441 203.359L24.3641 203.292C24.5254 203.251 24.6894 203.233 24.8561 203.233C25.6187 203.233 26.4281 203.6 27.1201 203.788C27.9774 204.021 28.4721 204.927 28.6268 205.788C28.7014 206.205 28.6921 206.671 28.4414 207.014C28.1321 207.436 27.5707 207.539 27.0307 207.539Z" fill="#24180F"/>
<path d="M56.1865 187.835C56.1505 187.835 56.1144 187.833 56.0784 187.832C55.1358 187.791 54.1824 186.94 54.3758 186.016C54.4838 185.502 54.8972 185.11 55.3238 184.804C56.5878 183.896 58.0904 183.419 59.4784 182.741C60.0758 182.451 60.4518 181.972 61.0704 181.736C61.6184 181.528 62.2651 181.483 62.6718 181.008C62.7665 180.897 62.8385 180.771 62.9105 180.644C62.9971 180.489 63.0825 180.335 63.2025 180.207C63.5305 179.859 63.9838 179.721 64.4718 179.721C65.3878 179.721 66.4291 180.204 66.9998 180.668C68.3785 181.786 68.6265 184.257 67.1518 185.244C66.6518 185.577 66.0998 185.686 65.5171 185.686C64.9598 185.686 64.3758 185.586 63.7851 185.486C63.1945 185.385 62.5998 185.285 62.0185 185.285C61.7038 185.285 61.3945 185.315 61.0918 185.389C60.1758 185.616 59.4212 186.243 58.6572 186.798C57.9225 187.333 57.0891 187.835 56.1865 187.835Z" fill="#312317"/>
<path d="M124.401 196.877C124.068 196.877 123.731 196.741 123.414 196.619C122.571 196.295 121.844 196.141 121.043 196.141C120.717 196.141 120.38 196.167 120.019 196.216C119.798 196.247 119.569 196.269 119.345 196.269C118.983 196.269 118.627 196.209 118.319 196.024C116.462 194.912 119.045 192.338 120.589 192.338C120.649 192.338 120.707 192.343 120.764 192.35L121.461 192.169C121.764 192.05 122.078 191.996 122.391 191.996C124.183 191.996 125.956 193.783 125.608 195.613C125.508 196.141 125.209 196.692 124.692 196.838C124.596 196.865 124.499 196.877 124.401 196.877Z" fill="#402F21"/>
<path d="M151.907 198.973C151.849 198.973 151.789 198.969 151.729 198.961C151.017 198.861 150.632 198.237 150.013 197.973C149.251 197.649 148.243 197.807 147.547 197.46C146.5 196.936 146.109 196.421 146.677 195.219C147.144 194.232 148.007 193.847 148.961 193.847C149.301 193.847 149.652 193.895 150.001 193.983C151.249 194.298 152.472 195.109 153.056 195.979C153.788 197.069 153.151 198.973 151.907 198.973Z" fill="#4B3827"/>
<path d="M71.4264 196.125C69.5837 195.985 67.7944 195.395 66.0357 194.808C65.7144 194.702 65.3784 194.585 65.153 194.333C64.517 193.617 65.2597 192.448 66.1571 192.112C67.0544 191.777 68.081 191.863 68.9424 191.441C69.4597 191.188 69.877 190.769 70.337 190.42C71.3837 189.625 72.6957 189.189 74.0104 189.189C74.1597 189.189 74.3104 189.196 74.4597 189.207L74.1757 189.217C76.5584 189.307 78.4424 192.029 77.6877 194.291C77.5304 194.763 77.2584 195.225 76.8224 195.465C76.7464 195.507 76.6664 195.541 76.5837 195.569C76.273 195.552 75.9597 195.543 75.6464 195.543C74.2744 195.543 72.8731 195.72 71.4264 196.125Z" fill="#312317"/>
<path d="M72.2321 196.156C72.1668 196.156 72.1014 196.155 72.0361 196.153C71.8321 196.149 71.6294 196.14 71.4268 196.125C72.8734 195.72 74.2747 195.543 75.6467 195.543C75.9601 195.543 76.2734 195.552 76.584 195.569C76.3907 195.637 76.184 195.676 75.9814 195.71C74.7414 195.932 73.4908 196.156 72.2321 196.156Z" fill="#24180F"/>
<path d="M86.8571 188.965C86.6678 188.965 86.5104 188.959 86.3917 188.945C83.9677 188.665 81.7037 188.031 79.7197 186.927C79.8144 186.555 80.1877 186.231 80.5424 186.02C81.753 185.296 83.1051 184.829 84.4531 184.829C85.0984 184.829 85.7424 184.936 86.3677 185.173C86.5637 185.248 86.7584 185.335 86.9504 185.434C87.9117 185.936 88.0464 187.143 87.7624 188.131C87.6771 188.428 87.5171 188.707 87.3077 188.956C87.1424 188.961 86.9918 188.965 86.8571 188.965Z" fill="#402F21"/>
<path d="M84.7011 190.181C83.0184 190.181 81.5225 189.016 80.2131 187.912C80.0091 187.741 79.7971 187.556 79.7238 187.302C79.6865 187.172 79.6891 187.047 79.7198 186.926C81.7038 188.031 83.9678 188.665 86.3918 188.945C86.5104 188.959 86.6678 188.965 86.8571 188.965C86.9918 188.965 87.1425 188.961 87.3078 188.956C86.7411 189.632 85.8131 190.097 85.0171 190.168C84.9118 190.177 84.8064 190.181 84.7011 190.181Z" fill="#312317"/>
<path d="M130.807 190.844C129.803 190.41 128.879 189.671 128.031 188.957C127.828 188.786 127.615 188.6 127.541 188.347C127.496 188.191 127.509 188.04 127.56 187.897C128.232 188.309 128.883 188.795 129.508 189.367C129.997 189.815 130.42 190.315 130.807 190.844Z" fill="#402F21"/>
<path d="M132.52 191.226C131.925 191.226 131.355 191.08 130.807 190.844C130.42 190.315 129.997 189.815 129.508 189.367C128.883 188.795 128.232 188.309 127.56 187.897C127.683 187.556 128.029 187.262 128.36 187.064C129.572 186.341 130.924 185.874 132.272 185.874C132.916 185.874 133.56 185.98 134.187 186.217C134.383 186.292 134.576 186.379 134.768 186.479C135.729 186.981 135.864 188.187 135.58 189.175C135.263 190.28 133.924 191.117 132.836 191.212C132.729 191.221 132.624 191.226 132.52 191.226Z" fill="#4B3827"/>
<path d="M79.54 175.759C79.492 175.759 79.4426 175.757 79.3946 175.757C78.1 175.733 76.804 175.71 75.5093 175.689C74.372 175.668 72.9413 175.434 72.6426 174.337C72.3373 173.21 73.5946 172.233 74.7533 172.091C74.992 172.061 75.2333 172.052 75.4733 172.052C75.7293 172.052 75.9867 172.063 76.244 172.075C76.5 172.085 76.7573 172.097 77.012 172.097C77.428 172.097 77.84 172.067 78.2426 171.959L78.2679 172.003C78.4279 171.957 78.5893 171.936 78.7493 171.936C80.1053 171.936 81.368 173.473 80.896 174.803C80.7587 175.189 80.4867 175.551 80.0987 175.685C79.92 175.747 79.7293 175.759 79.54 175.759Z" fill="#402F21"/>
<path d="M168.365 200.277C167.953 200.277 167.541 200.217 167.147 200.092C166.713 199.956 166.296 199.748 165.88 199.538C166.959 199.008 167.996 198.402 169.192 197.807C170.315 197.248 171.36 196.875 172.367 196.609C172.384 196.684 172.397 196.762 172.405 196.841C172.472 197.464 172.205 198.08 171.832 198.583C171.032 199.655 169.696 200.277 168.365 200.277Z" fill="#2F2116"/>
<path d="M165.88 199.538C165.12 199.152 164.371 198.755 163.556 198.755C163.479 198.755 163.4 198.759 163.321 198.765C162.976 198.799 162.595 198.897 162.251 198.897C161.987 198.897 161.744 198.839 161.559 198.647C161.329 198.411 161.293 198.045 161.327 197.717C161.487 196.18 162.915 195.02 164.42 194.665C164.928 194.545 165.444 194.497 165.963 194.497C166.98 194.497 168.011 194.681 169.017 194.864L168.448 194.574C170.025 194.669 172.023 195.14 172.367 196.609C171.36 196.875 170.315 197.248 169.192 197.807C167.996 198.402 166.959 199.008 165.88 199.538Z" fill="#4B3827"/>
<path d="M143.686 206.696C143.311 206.471 142.959 206.209 142.635 205.916C142.22 205.537 141.866 205.088 141.459 204.736C141.075 204.402 140.722 204.191 140.814 203.58C140.888 203.089 141.244 202.68 141.662 202.412C142.106 202.128 142.632 201.98 143.159 201.98C143.226 201.98 143.291 201.981 143.358 201.986C145.076 203.417 145.871 204.861 146.456 206.361C147.444 206.185 148.422 205.945 149.375 205.633C149.375 205.637 149.375 205.643 149.375 205.648C147.542 206.267 145.616 206.614 143.686 206.696Z" fill="#402F21"/>
<path d="M146.532 207.58C146.359 207.58 146.187 207.568 146.022 207.543C145.196 207.42 144.4 207.126 143.686 206.696C145.616 206.615 147.542 206.267 149.375 205.648C149.322 206.868 147.86 207.58 146.532 207.58Z" fill="#2F2116"/>
<path d="M146.456 206.361C145.871 204.861 145.076 203.417 143.357 201.986C143.527 201.998 143.693 202.026 143.857 202.071C144.687 202.293 145.399 202.897 146.252 202.991C146.527 203.021 146.807 202.996 147.08 203.04C148.116 203.228 149.28 204.413 149.369 205.436C149.375 205.503 149.377 205.568 149.375 205.633C148.421 205.945 147.444 206.185 146.456 206.361Z" fill="#4B3827"/>
<path d="M133.679 200.776C133.2 200.776 132.701 200.701 132.261 200.597C131.471 200.409 130.571 200.135 130.257 199.385C129.924 198.585 130.495 197.641 131.273 197.257C131.813 196.991 132.419 196.925 133.028 196.925C133.293 196.925 133.56 196.938 133.823 196.952L133.523 196.968C134.683 197.517 136.061 198.544 135.631 199.755C135.355 200.528 134.548 200.776 133.679 200.776Z" fill="#402F21"/>
<path d="M107.908 193.031C107.844 193.031 107.777 193.027 107.712 193.017C107.308 192.957 106.952 192.726 106.568 192.586C105.337 192.139 103.641 192.522 102.945 191.414C101.728 189.469 103.941 188.316 106.16 188.316C106.724 188.316 107.288 188.391 107.797 188.545C109.131 188.953 110.08 189.914 109.637 191.533C109.42 192.324 108.708 193.031 107.908 193.031Z" fill="#402F21"/>
<path d="M93.2545 201.045C92.4599 201.045 91.5012 200.588 91.1012 199.941C90.4385 198.868 91.0905 197.345 92.2038 196.752C92.8172 196.424 93.3932 196.262 93.9918 196.262C94.4252 196.262 94.8705 196.348 95.3505 196.519C95.5278 196.583 95.7052 196.655 95.8865 196.708C96.0305 196.75 96.1772 196.78 96.3265 196.78C96.3412 196.78 96.3558 196.779 96.3705 196.779C97.0092 196.757 97.5492 196.198 98.1785 196.198C98.2038 196.198 98.2292 196.2 98.2545 196.202C98.7439 196.239 99.1358 196.624 99.4012 197.036C99.8465 197.726 100.072 198.564 99.9812 199.379C99.9198 199.941 99.6639 200.538 99.1465 200.768C98.9839 200.841 98.8105 200.871 98.6332 200.871C98.3692 200.871 98.0985 200.804 97.8492 200.712C97.4332 200.557 97.0399 200.336 96.6079 200.236C96.4399 200.197 96.2825 200.181 96.1332 200.181C95.1359 200.181 94.4558 200.919 93.4732 201.033C93.4025 201.041 93.3292 201.045 93.2545 201.045Z" fill="#312317"/>
<path d="M56.6346 197.964C55.6266 197.716 54.608 197.353 53.572 196.857C53.4093 196.673 53.2386 196.5 53.0173 196.398C52.8493 196.322 52.6706 196.296 52.4866 196.289C52.1866 196.12 51.8853 195.938 51.5813 195.745C51.2119 195.509 50.8546 195.262 50.5093 195.007C50.5119 194.612 50.6293 194.196 50.824 193.862C51.436 192.819 52.4346 192.086 53.5493 192.086C53.9573 192.086 54.3813 192.185 54.808 192.403C55.2906 192.648 55.6893 193.068 56.196 193.243L56.3346 193.284C56.4786 193.319 56.6266 193.331 56.7746 193.331C56.9706 193.331 57.168 193.309 57.3627 193.293C57.488 193.283 57.6146 193.274 57.7413 193.274C57.9626 193.274 58.18 193.3 58.3826 193.384C59.312 193.773 59.1266 195.733 58.756 196.461C58.344 197.274 57.5239 197.792 56.6346 197.964Z" fill="#312317"/>
<path d="M55.9747 198.027C55.184 198.027 54.4014 197.753 53.852 197.174C53.756 197.072 53.6654 196.963 53.572 196.857C54.608 197.353 55.6267 197.716 56.6347 197.964C56.4173 198.005 56.196 198.027 55.9747 198.027ZM51.772 196.307C51.5574 196.307 51.3481 196.286 51.1547 196.2C50.6934 195.996 50.5053 195.52 50.5093 195.007C50.8547 195.263 51.212 195.509 51.5813 195.745C51.8853 195.939 52.1867 196.12 52.4867 196.29C52.4547 196.288 52.4241 196.288 52.3934 196.288C52.2907 196.288 52.1867 196.293 52.0827 196.297C51.9787 196.303 51.8747 196.307 51.772 196.307Z" fill="#24180F"/>
<path d="M80.2976 206.8C79.8976 206.8 79.5043 206.692 79.1723 206.455C78.8936 206.253 78.6656 205.988 78.3789 205.798C77.6309 205.31 76.6589 205.439 75.7696 205.363C74.8803 205.284 73.8429 204.76 73.8536 203.867C73.8669 202.877 75.0696 202.475 76.1029 202.475C76.2016 202.475 76.2976 202.479 76.3923 202.486C77.2856 202.553 78.1723 202.709 79.0336 202.953L80.063 202.629C80.1603 202.614 80.2576 202.605 80.3536 202.605C81.6216 202.605 82.7776 203.948 82.4843 205.208C82.2616 206.168 81.2629 206.8 80.2976 206.8Z" fill="#24180F"/>
<path d="M114.385 213.757C113.995 213.757 113.616 213.632 113.308 213.347C113.04 213.1 112.849 212.773 112.559 212.555C112.223 212.303 111.819 212.229 111.396 212.229C110.989 212.229 110.564 212.296 110.163 212.336C110.059 212.347 109.951 212.352 109.841 212.352C109.092 212.352 108.279 212.095 108.107 211.397C107.932 210.686 108.576 210.029 109.239 209.721C109.796 209.461 110.409 209.331 111.024 209.331C111.564 209.331 112.105 209.432 112.607 209.636L113.268 208.869C113.355 208.861 113.443 208.859 113.531 208.859C115.064 208.859 116.633 210.016 116.673 211.547C116.705 212.744 115.497 213.757 114.385 213.757Z" fill="#24180F"/>
<path d="M148.764 215.488C148.652 215.488 148.539 215.483 148.428 215.479C146.624 215.41 144.467 215.212 143.188 213.735C141.777 212.103 143.012 210.959 145.004 210.728C145.369 210.686 145.744 210.662 146.119 210.662C146.387 210.662 146.656 210.674 146.923 210.702C148.093 210.826 149.207 211.252 149.999 212.214C150.804 213.189 150.669 214.998 149.467 215.395C149.24 215.469 149.003 215.488 148.764 215.488Z" fill="#2F2116"/>
<path d="M169.2 210.123C168.819 210.123 168.441 210.028 168.108 209.821C167.739 209.592 167.424 209.256 167.007 209.132C166.584 209.007 166.119 209.121 165.695 208.999C164.688 208.709 164.528 207.191 165.219 206.404C165.909 205.615 167.053 205.417 168.101 205.407L168.529 205.628C168.755 205.544 168.987 205.505 169.22 205.505C170.524 205.505 171.819 206.723 171.684 208.063C171.565 209.252 170.363 210.123 169.2 210.123Z" fill="#2F2116"/>
<path d="M185.57 207.741C184.576 207.741 183.749 206.988 182.9 206.473C182.281 206.098 181.508 205.171 181.747 204.403C181.957 203.724 182.768 203.386 183.445 203.386C183.496 203.386 183.544 203.388 183.592 203.392C184.142 203.433 184.652 203.465 185.181 203.465C185.484 203.465 185.793 203.455 186.119 203.429L186.388 203.412C186.412 203.412 186.436 203.412 186.46 203.412C186.628 203.412 186.795 203.429 186.949 203.491C187.137 203.567 187.294 203.7 187.448 203.832C187.996 204.305 188.546 204.78 189.094 205.252L189.374 205.545C189.584 205.869 189.488 206.327 189.228 206.614C188.969 206.898 188.584 207.04 188.204 207.105C187.396 207.244 186.698 207.581 185.897 207.714C185.786 207.732 185.677 207.741 185.57 207.741Z" fill="#2F2116"/>
<path d="M47.0026 209.529C46.9412 209.529 46.8786 209.527 46.8159 209.521C46.0706 208.795 45.0933 208.31 44.0626 208.16C43.4639 208.074 42.8172 208.084 42.3039 207.762C41.7905 207.438 41.5599 206.589 42.0599 206.247C42.2786 206.095 42.5613 206.089 42.8266 206.089C43.1546 206.089 43.4799 206.095 43.8012 206.095C44.6372 206.095 45.4506 206.064 46.2359 205.85C46.5599 205.76 46.8786 205.64 47.1933 205.477C47.4293 205.356 47.6533 205.302 47.8599 205.302C48.7706 205.302 49.3572 206.36 49.3279 207.308C49.2892 208.495 48.1812 209.529 47.0026 209.529Z" fill="#24180F"/>
<path d="M43.1438 196.812C43.0305 196.812 42.9145 196.79 42.7985 196.74C42.5438 196.629 42.3545 196.41 42.1265 196.253C41.7025 195.964 41.1811 195.897 40.6371 195.897C40.4144 195.897 40.1865 195.909 39.9611 195.92C39.7358 195.931 39.5132 195.943 39.2958 195.943C38.6358 195.943 38.0398 195.84 37.6585 195.322C37.0158 194.451 37.7825 193.119 38.8185 192.798C39.1025 192.709 39.3918 192.673 39.6838 192.673C40.4558 192.673 41.2438 192.932 41.9865 193.189L41.1091 192.776C41.3251 192.709 41.5452 192.677 41.7652 192.677C43.0998 192.677 44.4198 193.828 44.4371 195.192C44.4464 195.96 43.8358 196.812 43.1438 196.812Z" fill="#24180F"/>
</svg>
